SplineFontDB: 3.2
FontName: applause-BoldItalic
FullName: applause BoldItalic
FamilyName: applause
Weight: BoldItalic
Copyright: 
Version: 001.001
ItalicAngle: 0
UnderlinePosition: -100
UnderlineWidth: 50
Ascent: 800
Descent: 200
InvalidEm: 0
sfntRevision: 0x00010000
LayerCount: 2
Layer: 0 0 "Back" 1
Layer: 1 0 "Fore" 0
XUID: [1021 796 -163880829 8174809]
StyleMap: 0x0040
FSType: 4
OS2Version: 3
OS2_WeightWidthSlopeOnly: 0
OS2_UseTypoMetrics: 0
CreationTime: 1464040505
ModificationTime: 1616453499
PfmFamily: 81
TTFWeight: 400
TTFWidth: 5
LineGap: 63
VLineGap: 0
Panose: 0 0 0 0 0 0 0 0 0 0
OS2TypoAscent: 737
OS2TypoAOffset: 0
OS2TypoDescent: -170
OS2TypoDOffset: 0
OS2TypoLinegap: 63
OS2WinAscent: 1013
OS2WinAOffset: 0
OS2WinDescent: 170
OS2WinDOffset: 0
HheadAscent: 737
HheadAOffset: 0
HheadDescent: -170
HheadDOffset: 0
OS2SubXSize: 700
OS2SubYSize: 650
OS2SubXOff: 0
OS2SubYOff: 140
OS2SupXSize: 700
OS2SupYSize: 650
OS2SupXOff: 0
OS2SupYOff: 477
OS2StrikeYSize: 50
OS2StrikeYPos: 250
OS2CapHeight: 737
OS2XHeight: 566
OS2FamilyClass: 2048
OS2Vendor: 'PYRS'
OS2CodePages: 00000001.00000000
OS2UnicodeRanges: 80000027.00000040.00000000.00000000
Lookup: 258 0 0 "'kern' Horizontal Kerning lookup 0" { "'kern' Horizontal Kerning lookup 0 subtable"  } ['kern' ('DFLT' <'dflt' > ) ]
MarkAttachClasses: 1
DEI: 91125
LangName: 1033
Encoding: UnicodeBmp
UnicodeInterp: none
NameList: AGL For New Fonts
DisplaySize: -48
AntiAlias: 1
FitToEm: 0
WinInfo: 0 22 5
BeginPrivate: 5
BlueValues 21 [0 0 567 567 737 737]
OtherBlues 11 [-170 -170]
StdHW 5 [113]
StdVW 5 [113]
StemSnapV 9 [113 136]
EndPrivate
BeginChars: 65537 173

StartChar: exclam
Encoding: 33 33 4
Width: 253
Flags: HMW
LayerCount: 2
UndoRedoHistory
Layer: 1
Undoes
UndoOperation
Index: 0
Type: 1
WasModified: 0
WasOrder2: 0
Layer: 2
Width: 253
VWidth: 1000
LBearingChange: 0
UnicodeEnc: 0
InstructionsLength: 0
SplineSet
88 126 m 0
 55 126 23 98 15 63 c 0
 7 28 26 0 59 0 c 0
 92 0 124 28 132 63 c 0
 140 98 121 126 88 126 c 0
203 737 m 2
 255 737 l 2
 263 737 268 729 266 720 c 2
 124 233 l 2
 121 226 117 221 110 221 c 0
 103 221 99 226 100 233 c 2
 184 720 l 2
 186 729 195 737 203 737 c 2
EndSplineSet
EndUndoOperation
UndoOperation
Index: 1
Type: 3
WasModified: 0
WasOrder2: 0
Layer: 2
EndUndoOperation
EndUndoes
Redoes
EndRedoes
EndUndoRedoHistory
Fore
SplineSet
88 101 m 0
 68.7415413937 101 45.0570440166 82.2840265398 39.3726067824 57.4146136403 c 0
 38.5329340416 53.7410453991 38.1775147929 50.3767195187 38.1775147929 47.4196631771 c 0
 38.1775147929 40.1320996423 40.2741562536 34.9867370165 42.7934235354 31.7666523443 c 0
 45.7713493241 27.9603181549 50.3334686959 25 59 25 c 0
 78.2584586063 25 101.942955983 43.7159734602 107.627393218 68.5853863597 c 0
 108.467065958 72.2589546009 108.822485207 75.6232804813 108.822485207 78.5803368229 c 0
 108.822485207 85.8679003577 106.725843746 91.0132629835 104.206576465 94.2333476557 c 0
 101.228650676 98.0396818451 96.6665313041 101 88 101 c 0
203 762 m 2
 255 762 l 2
 278.453793727 762 291.441011717 741.273475281 291.441011717 723.938854653 c 0
 291.441011717 720.48814952 290.948605766 717.004520619 290.230497697 713.773034308 c 0
 242.435912746 550.286598902 195.029233802 386.412257488 146.990353911 223.170117021 c 1
 143.066401033 214.014226972 132.038054012 196 110 196 c 0
 102.420976635 196 94.1750624909 198.260887066 87.3507511266 203.852979445 c 0
 78.6352738205 210.994762934 74.8479374819 221.528593274 74.8479374819 230.921949663 c 0
 74.8479374819 232.98678731 75.029207666 235.000279278 75.303089234 236.917450254 c 0
 103.408155799 399.750040221 131.448399227 562.647453326 159.594418865 725.43909022 c 0
 162.200293561 737.165526352 168.88226391 746.166628719 177.039835958 752.560401405 c 0
 183.546531034 757.660243492 192.019987761 762 203 762 c 2
EndSplineSet
EndChar

StartChar: quotedbl
Encoding: 34 34 5
Width: 288
Flags: HMW
LayerCount: 2
UndoRedoHistory
Layer: 1
Undoes
UndoOperation
Index: 0
Type: 1
WasModified: 0
WasOrder2: 0
Layer: 2
Width: 288
VWidth: 1000
LBearingChange: 0
UnicodeEnc: 0
InstructionsLength: 0
SplineSet
197 599 m 2
 195 591 188 585 181 585 c 2
 148 585 l 2
 141 585 136 591 138 599 c 2
 167 723 l 2
 169 731 176 737 183 737 c 2
 216 737 l 2
 223 737 228 731 226 723 c 2
 197 599 l 2
290 599 m 2
 288 591 281 585 274 585 c 2
 241 585 l 2
 234 585 229 591 231 599 c 2
 260 723 l 2
 262 731 269 737 276 737 c 2
 309 737 l 2
 316 737 321 731 319 723 c 2
 290 599 l 2
EndSplineSet
EndUndoOperation
UndoOperation
Index: 1
Type: 3
WasModified: 0
WasOrder2: 0
Layer: 2
EndUndoOperation
EndUndoes
Redoes
EndRedoes
EndUndoRedoHistory
Fore
SplineSet
274 560 m 2
 241 560 l 2
 232.886632294 560 224.789641902 562.684345126 218.266712058 568.087594886 c 0
 215.880484454 570.064219507 213.812278568 572.327411376 212.077454829 574.795329305 c 1
 204.796883425 566.039140053 194.068868428 560 181 560 c 2
 148 560 l 2
 139.886632294 560 131.789641902 562.684345126 125.266712058 568.087594886 c 0
 117.005130361 574.931051797 112.555606245 585.209528365 112.555606245 595.526569031 c 0
 112.555606245 598.742405047 112.958863518 601.857879272 113.688773453 604.849218638 c 2
 142.741590705 729.075057921 l 2
 147.085183577 746.44942941 162.028784672 762 183 762 c 2
 216 762 l 2
 224.113367706 762 232.210358098 759.315654874 238.733287942 753.912405114 c 0
 241.119515546 751.935780493 243.187721432 749.672588624 244.922545171 747.204670695 c 1
 252.203116575 755.960859947 262.931131572 762 276 762 c 2
 309 762 l 2
 317.113367706 762 325.210358098 759.315654874 331.733287942 753.912405114 c 0
 339.994869639 747.068948203 344.444393755 736.790471635 344.444393755 726.473430969 c 0
 344.444393755 723.257594953 344.041136482 720.142120728 343.311226547 717.150781362 c 2
 314.258409295 592.924942079 l 2
 309.914816423 575.55057059 294.971215328 560 274 560 c 2
EndSplineSet
EndChar

StartChar: numbersign
Encoding: 35 35 6
Width: 713
Flags: HMW
LayerCount: 2
UndoRedoHistory
Layer: 1
Undoes
UndoOperation
Index: 0
Type: 1
WasModified: 0
WasOrder2: 0
Layer: 2
Width: 713
VWidth: 1000
LBearingChange: 0
UnicodeEnc: 0
InstructionsLength: 0
SplineSet
328 18 m 2
 406 214 l 1
 216 214 l 1
 142 26 l 2
 136 11 121 0 107 0 c 2
 91 0 l 2
 82 0 77 9 81 18 c 2
 158 214 l 1
 64 214 l 2
 56 214 51 221 53 229 c 2
 60 261 l 2
 62 270 71 277 79 277 c 2
 183 277 l 1
 263 479 l 1
 169 479 l 2
 161 479 156 486 158 495 c 2
 165 526 l 2
 167 535 176 542 184 542 c 2
 288 542 l 1
 356 711 l 2
 361 726 376 737 391 737 c 2
 406 737 l 2
 414 737 420 728 416 718 c 2
 346 542 l 1
 535 542 l 1
 602 711 l 2
 608 726 623 737 637 737 c 2
 653 737 l 2
 662 737 666 728 663 718 c 2
 593 542 l 1
 687 542 l 2
 695 542 700 535 698 526 c 2
 691 495 l 2
 689 486 680 479 672 479 c 2
 567 479 l 1
 488 277 l 1
 582 277 l 2
 589 277 594 270 592 261 c 2
 585 229 l 2
 583 221 574 214 567 214 c 2
 463 214 l 1
 389 26 l 2
 383 11 368 0 354 0 c 2
 339 0 l 2
 330 0 325 9 328 18 c 2
241 277 m 1
 430 277 l 1
 510 479 l 1
 321 479 l 1
 241 277 l 1
EndSplineSet
EndUndoOperation
UndoOperation
Index: 1
Type: 3
WasModified: 0
WasOrder2: 0
Layer: 2
EndUndoOperation
EndUndoes
Redoes
EndRedoes
EndUndoRedoHistory
Fore
SplineSet
354 -25 m 2
 339 -25 l 2
 316.08748221 -25 302.127833419 -5.18888016441 302.127833419 12.74398594 c 0
 302.127833419 17.4963529965 303.044934363 22.2069757892 304.500055585 26.572339457 c 2
 369.139634781 189 l 1
 233.031037418 189 l 1
 165.222173922 16.7297772273 l 2
 155.831656363 -6.74651667059 133.383698077 -25 107 -25 c 2
 91 -25 l 2
 69.5937508638 -25 54.6059815816 -6.89553896631 54.6059815816 11.6966033437 c 0
 54.6059815816 17.2048041868 55.7558106993 22.5443173846 57.8778242368 27.5260572468 c 2
 121.314016033 189 l 1
 64 189 l 2
 43.25070133 189 27.5589882832 206.319456995 27.5589882832 225.505479617 c 0
 27.5589882832 228.624678727 27.9326386277 231.676523963 28.6369883581 234.634324969 c 2
 35.5944188651 266.43909022 l 2
 38.2723908521 278.489964161 45.497145261 287.604112418 53.9091107212 293.628898491 c 0
 60.665526368 298.467952941 68.9476325924 302 79 302 c 2
 166.007284744 302 l 1
 226.205304546 454 l 1
 169 454 l 2
 158.107654299 454 147.230821128 458.965446128 140.331893683 467.850990172 c 0
 134.930063526 474.808332478 132.558988283 483.076744316 132.558988283 491.121299119 c 0
 132.558988283 494.316240746 132.942723734 497.505795756 133.612936713 500.521754158 c 2
 140.594418865 531.43909022 l 2
 143.272390852 543.489964161 150.497145261 552.604112418 158.909110721 558.628898491 c 0
 165.665526368 563.467952941 173.947632592 567 184 567 c 2
 271.106911584 567 l 1
 332.550330954 719.704968729 l 1
 341.156846803 744.403280497 364.637365951 762 391 762 c 2
 406 762 l 2
 428.175818905 762 442.273198909 742.872949716 442.273198909 724.348245551 c 0
 442.273198909 718.991393522 441.23394711 713.759338723 439.240211824 708.775000506 c 2
 382.852427531 567 l 1
 518.013777916 567 l 1
 578.777826078 720.270222773 l 2
 588.168343637 743.746516671 610.616301923 762 637 762 c 2
 653 762 l 2
 664.556182476 762 675.942542925 756.073249995 682.364911706 746.67763575 c 0
 687.282562366 739.483351184 688.984928272 731.686194957 688.984928272 724.404846258 c 0
 688.984928272 719.296814265 688.010992378 714.350363036 686.6397482 709.779549109 c 2
 629.852427531 567 l 1
 687 567 l 2
 697.892345701 567 708.769178872 562.034553872 715.668106317 553.149009828 c 0
 721.069936474 546.191667522 723.441011717 537.923255684 723.441011717 529.878700881 c 0
 723.441011717 526.683759254 723.057276266 523.494204244 722.387063287 520.478245842 c 2
 715.405581135 489.56090978 l 2
 712.727609148 477.510035839 705.502854739 468.395887582 697.090889279 462.371101509 c 0
 690.334473632 457.532047059 682.052367408 454 672 454 c 2
 584.071220815 454 l 1
 524.625676261 302 l 1
 582 302 l 2
 604.177853871 302 617.444393755 282.457930275 617.444393755 264.922989191 c 0
 617.444393755 261.738031095 617.101548006 258.693388059 616.423279639 255.641180406 c 0
 614.041462192 244.752872075 611.955944417 233.726953544 609.255605484 222.925597809 c 0
 606.282307806 211.0324071 599.031109723 202.873447543 591.307576444 197.315772802 c 0
 585.097145262 192.846891105 577.406406391 189 567 189 c 2
 480.031037418 189 l 1
 412.222173922 16.7297772273 l 2
 402.831656363 -6.74651667059 380.383698077 -25 354 -25 c 2
337.992715256 454 m 1
 277.794695454 302 l 1
 413.007284744 302 l 1
 473.205304546 454 l 1
 337.992715256 454 l 1
EndSplineSet
EndChar

StartChar: dollar
Encoding: 36 36 7
Width: 489
Flags: HMW
LayerCount: 2
UndoRedoHistory
Layer: 1
Undoes
UndoOperation
Index: 0
Type: 1
WasModified: 0
WasOrder2: 0
Layer: 2
Width: 489
VWidth: 1000
LBearingChange: 0
UnicodeEnc: 0
InstructionsLength: 0
SplineSet
145 16 m 2xaa
 165 101 l 1
 50 101 l 2
 43 101 38 108 40 116 c 2x6e
 43 132 l 2
 47 150 64 164 80 164 c 2
 242 164 l 2
 264 164 289 173 309 189 c 0
 331 206 346 229 352 253 c 0
 359 280 356 304 344 323 c 0
 332 342 311 353 287 353 c 2
 232 353 l 2
 192 353 157 370 135 401 c 0
 114 432 108 471 119 513 c 0
 128 549 148 584 176 611 c 0
 204 639 238 657 272 665 c 2
 296 670 l 1
 308 721 l 2
 310 730 318 737 326 737 c 2
 355 737 l 2
 363 737 368 730 366 721 c 2xaf
 354 668 l 1
 433 668 l 2
 441 668 446 661 444 652 c 2xb3
 441 636 l 2
 437 619 421 605 404 605 c 2
 288 605 l 2
 266 605 243 596 222 579 c 0
 200 562 185 540 178 515 c 0
 171 489 174 464 186 445 c 0
 198 426 220 416 243 416 c 2
 302 416 l 2
 341 416 373 400 394 370 c 0
 414 341 422 302 413 261 c 0
 405 223 383 186 352 156 c 0
 322 127 285 108 249 103 c 2
 223 99 l 1x6f
 204 16 l 2
 202 7 193 0 185 0 c 2
 156 0 l 2
 148 0 143 7 145 16 c 2xaa
EndSplineSet
EndUndoOperation
UndoOperation
Index: 1
Type: 3
WasModified: 0
WasOrder2: 0
Layer: 2
EndUndoOperation
EndUndoes
Redoes
EndRedoes
EndUndoRedoHistory
Fore
SplineSet
199.280958455 487.811968347 m 0
 199.280958455 459.736085173 214.856616204 441 243 441 c 2
 302 441 l 2
 348.155457355 441 388.772614788 421.057556275 414.594582757 384.169030605 c 0
 432.118627737 358.759165383 441.672147347 327.6140439 441.672147347 294.310976568 c 0
 441.672147347 281.641803251 440.287267057 268.723504584 437.442266862 255.727789343 c 0
 428.21292729 212.010117789 403.437317612 170.995075019 369.369833154 138.026541968 c 0
 336.00315891 105.772090199 294.701723742 84.1521539921 252.652625555 78.2648076243 c 2
 243.585140336 76.8698098983 l 1
 228.405581135 10.5609097804 l 2
 225.727609148 -1.48996416103 218.502854739 -10.6041124184 210.090889279 -16.6288984913 c 0
 203.334473632 -21.467952941 195.052367408 -25 185 -25 c 2
 156 -25 l 2
 145.107654299 -25 134.230821128 -20.0345538723 127.331893683 -11.1490098282 c 0
 121.930063526 -4.19166752168 119.558988283 4.07674431623 119.558988283 12.1212991189 c 0
 119.558988283 15.3162407463 119.884931325 18.4321280284 120.592555029 21.4395287694 c 2
 133.430312965 76 l 1
 50 76 l 2
 28.3918536542 76 14.555606245 94.571968655 14.555606245 112.465051625 c 0
 14.555606245 115.417950881 14.8884307936 118.335081092 15.5329278234 121.185941309 c 0
 16.5466599488 126.592512645 17.4045349384 132.084612549 18.5944188651 137.43909022 c 0
 22.2753097725 154.003099303 32.1264028025 167.552309357 44.4372804726 176.677855043 c 0
 54.2897281902 183.981068036 66.3505160449 189 80 189 c 2
 242 189 l 2
 257.782761928 189 277.631963127 196.350918336 293.733355322 208.792903215 c 0
 311.627353813 222.620083867 323.026575492 240.880836327 327.797606804 259.283385675 c 0
 329.819356832 267.081564352 330.719041545 274.235100925 330.719041545 280.630923479 c 0
 330.719041545 308.44333415 314.29238433 328 287 328 c 2
 232 328 l 2
 184.628039542 328 141.511868393 348.631599383 114.440606296 386.777468703 c 0
 97.4577763141 411.84736058 88.5920257778 441.281886589 88.5920257778 472.587757439 c 0
 88.5920257778 487.889477399 90.6729370549 503.491353429 94.777940555 519.208407965 c 0
 104.936688536 559.733545554 127.120932363 598.528665503 158.487613381 628.83586214 c 0
 189.970854562 660.257621884 228.00079525 680.334580035 266.570812762 689.409878273 c 0
 269.483204856 690.016626626 272.39559695 690.623374978 275.307989043 691.230123331 c 1
 283.634508886 726.617832662 l 2
 287.895719949 745.442968774 303.951742017 762 326 762 c 2
 355 762 l 2
 365.892345701 762 376.769178872 757.034553872 383.668106317 748.149009828 c 0
 389.069936474 741.191667522 391.441011717 732.923255684 391.441011717 724.878700881 c 0
 391.441011717 721.683759254 391.054106787 718.480186872 390.383893809 715.464228469 c 2
 385.2976534 693 l 1
 433 693 l 2
 443.892345701 693 454.769178872 688.034553872 461.668106317 679.149009828 c 0
 467.069936474 672.191667522 469.441011717 663.923255684 469.441011717 655.878700881 c 0
 469.441011717 652.854573133 469.11380206 649.909332581 468.510453049 647.045423343 c 0
 467.465233256 641.470917782 466.629176246 635.752829149 465.336840726 630.260403189 c 0
 458.901222294 602.909024853 434.374190379 580 404 580 c 2
 288 580 l 2
 272.393738857 580 255.225019099 573.084022475 237.266644678 559.207096785 c 0
 219.272910309 545.3028475 207.64489929 528.038487959 202.111245884 508.373599012 c 0
 200.173253173 501.135814918 199.399642012 488.674187302 199.280958455 487.811968347 c 0
EndSplineSet
EndChar

StartChar: percent
Encoding: 37 37 8
Width: 622
Flags: HMW
LayerCount: 2
UndoRedoHistory
Layer: 1
Undoes
UndoOperation
Index: 0
Type: 1
WasModified: 0
WasOrder2: 0
Layer: 2
Width: 622
VWidth: 1000
LBearingChange: 0
UnicodeEnc: 0
InstructionsLength: 0
SplineSet
365 617 m 0
 350 551 288 498 227 498 c 0
 166 498 127 551 142 617 c 0
 157 683 221 737 282 737 c 0
 343 737 380 683 365 617 c 0
181 617 m 0
 171 574 195 539 236 539 c 0
 276 539 317 574 327 617 c 0
 337 661 312 696 272 696 c 0
 231 696 191 661 181 617 c 0
430 239 m 0
 491 239 529 186 514 120 c 0
 499 54 436 0 375 0 c 0
 314 0 276 54 291 120 c 0
 306 186 369 239 430 239 c 0
384 41 m 0
 425 41 466 76 476 120 c 0
 486 163 462 198 421 198 c 0
 381 198 339 163 329 120 c 0
 319 76 344 41 384 41 c 0
549 737 m 2
 559 737 564 726 558 716 c 2
 155 10 l 2
 152 4 146 0 139 0 c 2
 108 0 l 2
 98 0 93 11 99 21 c 2
 502 727 l 2
 505 733 511 737 517 737 c 2
 549 737 l 2
EndSplineSet
EndUndoOperation
UndoOperation
Index: 1
Type: 3
WasModified: 0
WasOrder2: 0
Layer: 2
EndUndoOperation
EndUndoes
Redoes
EndRedoes
EndUndoRedoHistory
Fore
SplineSet
227 473 m 0
 190.956327832 473 159.343628237 488.256141295 138.832221758 514.028503574 c 0
 122.517758937 534.527451154 113.78349151 560.734906802 113.78349151 589.208040917 c 0
 113.78349151 600.099283175 115.052287556 611.255006785 117.620584522 622.555513439 c 0
 127.456971738 665.83561719 154.504348664 703.43933488 188.557944738 728.761037764 c 0
 215.811172856 749.0260971 248.268228142 762 282 762 c 0
 318.00524584 762 349.22590259 746.468896588 369.202678599 720.56809046 c 0
 385.064270751 700.002808904 393.334514122 673.945183545 393.334514122 645.806105035 c 0
 393.334514122 634.5841197 392.025372826 623.086698895 389.379415478 611.444486561 c 0
 379.592983154 568.384184338 353.267052245 531.004627814 319.667424453 505.866249047 c 0
 292.783124617 485.752106225 260.629643261 473 227 473 c 0
203.736830318 597.933050638 m 0
 203.736830318 587.879409797 206.689860119 580.150037559 210.832623971 574.889631936 c 0
 215.854181933 568.513349656 223.6004745 564 236 564 c 0
 268.386098872 564 296.382721764 595.734084071 302.64849831 622.676923219 c 0
 303.75104519 627.528129488 304.205058584 631.923310764 304.205058584 636.009323908 c 0
 304.205058584 646.411229883 301.138193138 654.428464886 296.857460263 659.897090124 c 0
 291.643871521 666.557436333 283.799205317 671 272 671 c 0
 244.816111531 671 213.087347467 645.359387314 205.379415478 611.444486561 c 0
 204.256596101 606.61636324 203.736830318 601.994265118 203.736830318 597.933050638 c 0
430 264 m 0
 465.947455759 264 497.358597556 248.786835724 517.640972632 223.054121362 c 0
 533.759905154 202.603662042 542.274532487 176.532116308 542.274532487 148.261623046 c 0
 542.274532487 137.222157027 540.98506927 125.909363246 538.379415478 114.444486561 c 0
 528.572863624 71.2956584057 501.922478987 33.6795246924 468.114697287 8.30593637321 c 0
 441.06300795 -11.9970351335 408.743111667 -25 375 -25 c 0
 338.895412837 -25 307.473639077 -9.42304636671 287.268540514 16.5216751587 c 0
 271.211820435 37.1395964115 262.725467513 63.3369029487 262.725467513 91.6793888593 c 0
 262.725467513 102.747858852 264.013141507 114.082764172 266.620584522 125.555513439 c 0
 276.437065109 168.748028019 303.160973393 206.115493344 337.006074313 231.201150409 c 0
 364.091220665 251.276395406 396.381263251 264 430 264 c 0
384 66 m 0
 417.401290375 66 445.24787157 97.5155764488 451.620584522 125.555513439 c 0
 452.743403899 130.38363676 453.263169682 135.005734882 453.263169682 139.066949362 c 0
 453.263169682 149.120590203 450.310139881 156.849962441 446.167376029 162.110368064 c 0
 441.145818067 168.486650344 433.3995255 173 421 173 c 0
 388.523886706 173 359.586121264 141.131940951 353.35150169 114.323076781 c 0
 352.24895481 109.471870512 351.794941416 105.076689236 351.794941416 100.990676092 c 0
 351.794941416 90.5887701169 354.861806862 82.5715351144 359.142539737 77.1029098758 c 0
 364.356128479 70.442563667 372.200794683 66 384 66 c 0
108 -25 m 2
 88.1052207168 -25 71.4077067295 -8.60075896706 71.4077067295 12.1471139655 c 0
 71.4077067295 19.7229166042 73.5293255479 27.0327901997 77.380646197 33.5564723663 c 2
 479.998546081 738.887086059 l 2
 486.89300771 752.075308379 500.320396091 762 517 762 c 2
 549 762 l 2
 568.894779283 762 585.592293271 745.600758967 585.592293271 724.852886034 c 0
 585.592293271 717.277083396 583.470674452 709.9672098 579.619353803 703.443527634 c 2
 176.995011944 -1.8983715038 l 2
 169.855531819 -15.5078732037 155.539992706 -25 139 -25 c 2
 108 -25 l 2
EndSplineSet
EndChar

StartChar: ampersand
Encoding: 38 38 9
Width: 641
Flags: HMW
LayerCount: 2
UndoRedoHistory
Layer: 1
Undoes
UndoOperation
Index: 0
Type: 1
WasModified: 0
WasOrder2: 0
Layer: 2
Width: 641
VWidth: 1000
LBearingChange: 0
UnicodeEnc: 0
InstructionsLength: 0
SplineSet
520 428 m 1
 589 428 l 2
 597 428 602 421 600 413 c 2
 593 381 l 2
 591 372 582 365 574 365 c 2
 506 365 l 1
 463 182 l 2
 440 82 346 0 252 0 c 2
 170 0 l 2
 76 0 19 82 42 183 c 2
 57 246 l 2
 68 292 100 337 146 373 c 2
 177 397 l 1
 157 421 l 2
 127 456 116 502 127 548 c 2
 128 554 l 2
 151 655 246 737 340 737 c 2
 459 737 l 2
 467 737 473 730 471 721 c 2
 467 705 l 2
 463 688 446 674 430 674 c 2
 326 674 l 2
 265 674 201 620 186 554 c 2
 185 548 l 2
 170 482 208 428 269 428 c 2
 462 428 l 1
 475 485 l 2
 479 502 496 517 512 517 c 2
 527 517 l 2
 534 517 539 509 537 501 c 2
 520 428 l 1
405 182 m 2
 447 365 l 1
 254 365 l 2
 193 365 130 312 115 246 c 2
 101 183 l 2
 86 117 124 63 185 63 c 2
 267 63 l 2
 328 63 390 117 405 182 c 2
EndSplineSet
EndUndoOperation
UndoOperation
Index: 1
Type: 3
WasModified: 0
WasOrder2: 0
Layer: 2
EndUndoOperation
EndUndoes
Redoes
EndRedoes
EndUndoRedoHistory
Fore
SplineSet
589 453 m 2
 609.74929867 453 625.441011717 435.680543005 625.441011717 416.494520383 c 0
 625.441011717 413.375321273 625.067361372 410.323476037 624.363011642 407.365675031 c 2
 617.405581135 375.56090978 l 2
 614.727609148 363.510035839 607.502854739 354.395887582 599.090889279 348.371101509 c 0
 592.334473632 343.532047059 584.052367408 340 574 340 c 2
 525.811143514 340 l 1
 487.365079436 176.381784073 l 2
 473.133516761 114.505424619 435.0251571 59.8339415597 386.121727016 22.9940621514 c 0
 346.994434858 -6.48126753838 300.332279204 -25 252 -25 c 2
 170 -25 l 2
 118.508825925 -25 74.6110572654 -3.31865946193 46.3715802878 32.8901907689 c 0
 23.8979574818 61.7060234054 11.9048642297 98.6494155331 11.9048642297 139.107351821 c 0
 11.9048642297 155.164303082 13.6193635257 171.756045406 17.6217718429 188.566146635 c 2
 32.6839574582 251.82727465 l 2
 45.3538801406 304.810587685 81.3019603541 354.107630536 130.715116185 392.778795968 c 2
 141.209666884 400.903609413 l 1
 137.894515058 404.881791604 l 2
 111.742705446 435.457470835 97.8268839334 473.431198933 97.8268839334 513.072125474 c 0
 97.8268839334 526.330610398 99.3740934115 539.68736342 102.477748308 552.955442712 c 0
 102.843455258 555.149684412 103.139585187 557.443309201 103.622940262 559.56586844 c 0
 117.852320745 622.051408824 156.309709841 676.997954609 205.489063191 713.939058322 c 0
 244.837164704 743.495410732 291.67405085 762 340 762 c 2
 459 762 l 2
 479.463903971 762 496.387629592 745.146255696 496.387629592 724.434946768 c 0
 496.387629592 721.209295634 495.998316209 717.896440712 495.255605484 714.925597809 c 2
 491.292088546 699.071530058 l 2
 487.445435687 682.949318234 477.520026962 669.929295036 465.37878815 661.099303173 c 0
 455.605925618 653.991766786 443.64461327 649 430 649 c 2
 326 649 l 2
 305.509549636 649 282.559197514 640.640569567 262.35014854 625.613447832 c 0
 237.263774054 606.959625787 217.505344077 578.918255137 210.533891687 549.114397256 c 0
 208.974319599 539.756964728 206.725467513 528.790967517 206.725467513 519.679388859 c 0
 206.725467513 501.398485323 212.17813247 486.196397434 220.738014375 475.204926561 c 0
 231.303668294 461.63790793 247.336372182 453 269 453 c 2
 442.055487929 453 l 1
 450.663159274 490.739596811 l 2
 454.43628803 506.775394025 464.108664038 519.95413739 476.168111399 529.14630356 c 0
 485.816665387 536.500795761 497.885523849 542 512 542 c 2
 527 542 l 2
 550.817937783 542 562.444393755 520.887082254 562.444393755 504.596465781 c 0
 562.444393755 501.448534821 562.075775606 498.29186412 561.315094596 495.166735442 c 2
 551.495443877 453 l 1
 589 453 l 2
254 340 m 2
 233.396514527 340 210.674211434 331.785332989 190.736038169 317.007354392 c 0
 165.80198957 298.526481965 146.229601558 270.585305314 139.379415478 240.444486561 c 2
 125.405581135 177.56090978 l 2
 123.582561928 169.539625272 122.725467513 161.787513477 122.725467513 154.679388859 c 0
 122.725467513 136.398485323 128.17813247 121.196397434 136.738014375 110.204926561 c 0
 147.303668294 96.6379079296 163.336372182 88 185 88 c 2
 267 88 l 2
 287.469093205 88 309.929213478 96.3083477261 329.683829331 111.199930936 c 0
 354.38335344 129.819124611 373.782754676 157.92552652 380.638990107 187.635880053 c 2
 415.607789316 340 l 1
 254 340 l 2
EndSplineSet
EndChar

StartChar: quotesingle
Encoding: 39 39 10
Width: 195
Flags: HMW
LayerCount: 2
UndoRedoHistory
Layer: 1
Undoes
UndoOperation
Index: 0
Type: 1
WasModified: 0
WasOrder2: 0
Layer: 2
Width: 195
VWidth: 1000
LBearingChange: 0
UnicodeEnc: 0
InstructionsLength: 0
SplineSet
197 599 m 2
 195 591 188 585 181 585 c 2
 148 585 l 2
 141 585 136 591 138 599 c 2
 167 723 l 2
 169 731 176 737 183 737 c 2
 216 737 l 2
 223 737 228 731 226 723 c 2
 197 599 l 2
EndSplineSet
EndUndoOperation
UndoOperation
Index: 1
Type: 3
WasModified: 0
WasOrder2: 0
Layer: 2
EndUndoOperation
EndUndoes
Redoes
EndRedoes
EndUndoRedoHistory
Fore
SplineSet
181 560 m 2
 148 560 l 2
 139.886632294 560 131.789641902 562.684345126 125.266712058 568.087594886 c 0
 117.005130361 574.931051797 112.555606245 585.209528365 112.555606245 595.526569031 c 0
 112.555606245 598.742405047 112.958863518 601.857879272 113.688773453 604.849218638 c 2
 142.741590705 729.075057921 l 2
 147.085183577 746.44942941 162.028784672 762 183 762 c 2
 216 762 l 2
 224.113367706 762 232.210358098 759.315654874 238.733287942 753.912405114 c 0
 246.994869639 747.068948203 251.444393755 736.790471635 251.444393755 726.473430969 c 0
 251.444393755 723.257594953 251.041136482 720.142120728 250.311226547 717.150781362 c 2
 221.258409295 592.924942079 l 2
 216.914816423 575.55057059 201.971215328 560 181 560 c 2
EndSplineSet
EndChar

StartChar: parenleft
Encoding: 40 40 11
Width: 349
Flags: HMW
LayerCount: 2
UndoRedoHistory
Layer: 1
Undoes
UndoOperation
Index: 0
Type: 1
WasModified: 0
WasOrder2: 0
Layer: 2
Width: 349
VWidth: 1000
LBearingChange: 0
UnicodeEnc: 0
InstructionsLength: 0
SplineSet
319 726 m 0
 279 680 244 626 214 566 c 0
 183 504 160 437 144 368 c 0
 128 300 121 233 123 171 c 0
 125 111 135 57 154 11 c 0
 165 -16 178 -40 194 -60 c 0
 200 -69 191 -85 179 -85 c 2
 139 -85 l 2
 132 -85 126 -82 122 -76 c 0
 113 -60 105 -43 97 -24 c 0
 55 81 51 221 85 368 c 0
 119 516 188 656 278 761 c 0
 294 780 310 797 327 813 c 0
 334 819 342 822 349 822 c 2
 389 822 l 2
 401 822 402 806 392 797 c 0
 367 777 342 753 319 726 c 0
EndSplineSet
EndUndoOperation
UndoOperation
Index: 1
Type: 3
WasModified: 0
WasOrder2: 0
Layer: 2
EndUndoOperation
EndUndoes
Redoes
EndRedoes
EndUndoRedoHistory
Fore
SplineSet
147.666666667 191.846364883 m 0
 147.666666667 125.509942981 157.615672627 67.7419126368 177.162960723 20.4168993496 c 0
 187.725679216 -5.50977331503 199.897605717 -27.358519536 214.212087494 -45.2516217573 c 0
 218.710780593 -51.9996614054 220.909798363 -59.6789118255 220.909798363 -66.6859554378 c 0
 220.909798363 -79.3797462402 215.580134214 -89.9881691327 207.434463035 -98.0010332207 c 0
 200.852279391 -104.475900889 191.135627144 -110 179 -110 c 2
 139 -110 l 2
 123.884296009 -110 108.902210072 -102.625321079 100.658529311 -89.0543034503 c 0
 90.2898742934 -71.985083509 81.8246053076 -53.387170846 73.7778260782 -33.2702227727 c 0
 49.1218312255 28.3697643591 37.1842105263 100.126957669 37.1842105263 177.420433008 c 0
 37.1842105263 240.007330734 45.0313070108 306.155495475 60.6334934411 373.612007395 c 0
 95.4941712646 525.358487332 165.858563076 668.574937093 258.870359358 777.088699422 c 0
 275.567030147 796.915995983 292.39825767 814.758270741 310.299562478 831.606557619 c 0
 321.367933472 841.093732757 334.63172052 847 349 847 c 2
 389 847 l 2
 399.735431253 847 410.910772007 841.736298546 417.343109112 832.588381106 c 0
 422.230488885 825.637665382 423.818181818 818.18060904 423.818181818 811.451540195 c 0
 423.818181818 798.762601812 417.985047304 785.777247755 407.599682816 777.468956164 c 0
 383.732989821 758.375601769 360.162821356 735.24464078 337.870284811 709.608223753 c 0
 299.501028683 665.483579206 265.585653931 613.264740079 236.375258329 554.843948875 c 0
 206.381946522 494.857325261 183.954205453 429.610288575 168.336840726 362.260403189 c 0
 154.525778597 303.56338914 147.666666667 245.751611199 147.666666667 191.846364883 c 0
EndSplineSet
EndChar

StartChar: parenright
Encoding: 41 41 12
Width: 349
Flags: HMW
LayerCount: 2
UndoRedoHistory
Layer: 1
Undoes
UndoOperation
Index: 0
Type: 1
WasModified: 0
WasOrder2: 0
Layer: 2
Width: 349
VWidth: 1000
LBearingChange: 0
UnicodeEnc: 0
InstructionsLength: 0
SplineSet
229 726 m 0
 218 753 205 777 189 797 c 0
 183 806 192 822 204 822 c 2
 244 822 l 2
 251 822 257 819 261 813 c 0
 270 797 278 780 286 761 c 0
 328 656 332 516 298 368 c 0
 264 221 195 81 105 -24 c 0
 89 -43 73 -60 56 -76 c 0
 49 -82 41 -85 34 -85 c 2
 -6 -85 l 2
 -18 -85 -19 -69 -9 -60 c 0
 16 -40 41 -16 64 11 c 0
 104 57 139 111 169 171 c 0
 200 233 223 300 239 368 c 0
 255 437 262 504 260 566 c 0
 258 626 248 680 229 726 c 0
EndSplineSet
EndUndoOperation
UndoOperation
Index: 1
Type: 3
WasModified: 0
WasOrder2: 0
Layer: 2
EndUndoOperation
EndUndoes
Redoes
EndRedoes
EndUndoRedoHistory
Fore
SplineSet
162.090201637 803.685955438 m 0
 162.090201637 816.37974624 167.419865786 826.988169133 175.565536965 835.001033221 c 0
 182.147720609 841.475900889 191.864372856 847 204 847 c 2
 244 847 l 2
 259.115703991 847 274.097789928 839.625321079 282.341470689 826.05430345 c 0
 292.710125707 808.985083509 301.175394692 790.387170846 309.222173922 770.270222773 c 0
 333.87852766 708.629338427 345.815789474 636.867123317 345.815789474 559.41079239 c 0
 345.815789474 496.692012668 337.953237116 430.236235886 322.358234966 362.35210888 c 0
 287.492608927 211.60954924 217.139392562 68.4226778175 124.129640642 -40.088699422 c 0
 107.432969853 -59.9159959833 90.6017423304 -77.7582707409 72.700437522 -94.6065576194 c 0
 61.6320665283 -104.093732757 48.3682794801 -110 34 -110 c 2
 -6 -110 l 2
 -16.7354312529 -110 -27.9107720069 -104.736298546 -34.343109112 -95.5883811062 c 0
 -39.2304888848 -88.6376653824 -40.8181818182 -81.1806090401 -40.8181818182 -74.4515401953 c 0
 -40.8181818182 -61.7626018121 -34.9850473041 -48.777247755 -24.5996828156 -40.4689561643 c 0
 -0.73298982137 -21.3756017689 22.8371786437 1.75535921977 45.1297151892 27.3917762472 c 0
 83.4989713167 71.5164207937 117.414346069 123.735259921 146.624741671 182.156051125 c 0
 176.618778396 242.144124575 199.02585045 307.280467905 214.644908268 373.66146363 c 0
 228.477319257 433.31373602 235.333333333 491.236980459 235.333333333 545.152263374 c 0
 235.333333333 611.489417197 225.384513008 669.257637933 205.837039277 716.58310065 c 0
 195.274320784 742.509773315 183.102394283 764.358519536 168.787912506 782.251621757 c 0
 164.289219407 788.999661405 162.090201637 796.678911826 162.090201637 803.685955438 c 0
EndSplineSet
EndChar

StartChar: asterisk
Encoding: 42 42 13
Width: 431
Flags: HMW
LayerCount: 2
UndoRedoHistory
Layer: 1
Undoes
UndoOperation
Index: 0
Type: 1
WasModified: 0
WasOrder2: 0
Layer: 2
Width: 431
VWidth: 1000
LBearingChange: 0
UnicodeEnc: 0
InstructionsLength: 0
SplineSet
436 614 m 2
 436 604 429 594 420 591 c 2
 337 564 l 2
 329 562 325 553 327 547 c 2
 358 476 l 2
 362 468 358 457 349 451 c 2
 328 437 l 2
 319 431 309 433 305 441 c 2
 274 512 l 2
 271 518 263 518 258 512 c 2
 193 441 l 2
 186 433 175 431 169 437 c 2
 154 451 l 2
 148 457 149 468 156 476 c 2
 220 547 l 2
 225 553 226 562 219 564 c 2
 148 591 l 2
 140 594 138 604 143 614 c 2
 154 636 l 2
 159 646 169 651 178 648 c 2
 249 621 l 2
 255 619 264 624 266 632 c 2
 286 719 l 2
 288 729 298 737 307 737 c 2
 328 737 l 2
 337 737 344 729 342 719 c 2
 322 632 l 2
 320 624 325 619 332 621 c 2
 416 648 l 2
 426 651 434 646 434 636 c 2
 436 614 l 2
EndSplineSet
EndUndoOperation
UndoOperation
Index: 1
Type: 3
WasModified: 0
WasOrder2: 0
Layer: 2
EndUndoOperation
EndUndoes
Redoes
EndRedoes
EndUndoRedoHistory
Fore
SplineSet
461 614 m 2
 461 601.944027261 456.646233875 591.407966893 449.952173934 582.990683601 c 0
 444.577246317 576.232111251 437.074683714 570.334856523 427.730871459 567.220252438 c 2
 355.686946119 543.784276725 l 1
 380.729250581 486.429321343 l 2
 383.396456211 480.806258567 384.550518366 474.89370354 384.550518366 469.211936059 c 0
 384.550518366 452.958182303 375.840817897 438.849538942 362.842247627 430.183825429 c 2
 341.842247627 416.183825429 l 2
 334.64401898 411.385006331 326.276600695 408.511333676 317.312720426 408.511333676 c 0
 303.007571097 408.511333676 289.22849299 416.636446237 282.335316483 430.422799252 c 2
 261.303535789 478.592361486 l 1
 211.601967389 424.302956002 l 2
 203.103618441 414.712443828 191.330042314 408.511333676 177.881574216 408.511333676 c 0
 169.09485553 408.511333676 159.310816443 411.576215572 151.723608367 418.934041837 c 0
 146.596986092 423.718889293 141.283829519 428.367764231 136.325796875 433.325796875 c 0
 128.231726014 441.419867736 125.06028691 451.861625811 125.06028691 461.210573398 c 0
 125.06028691 472.985076185 129.437989604 483.864757071 137.178745258 492.452157874 c 2
 188.137933611 548.985007454 l 1
 139.232877259 567.582900617 l 2
 122.795527468 573.746906789 115.274036897 589.925757026 115.274036897 603.342798011 c 0
 115.274036897 611.190287893 117.274433705 618.455435193 120.624741671 625.156051125 c 2
 131.624741671 647.156051125 l 2
 139.150863683 662.208295149 154.177778944 673.864648176 172.67639469 673.864648176 c 0
 177.318961696 673.864648176 182.016097333 673.018691789 186.391526692 671.560215337 c 2
 244.369207528 649.512364878 l 1
 261.56983609 724.335099121 l 2
 264.209828251 736.9404703 271.695862589 746.573733235 280.471586425 752.985220969 c 0
 287.600208059 758.193346364 296.395937405 762 307 762 c 2
 328 762 l 2
 349.684960213 762 367.343617784 744.212975797 367.343617784 722.400624713 c 0
 367.343617784 719.468299025 367.004841397 716.52856365 366.445124927 713.7299813 c 2
 352.694964507 653.916783475 l 1
 408.813042187 671.954737015 l 2
 412.848191712 673.165281872 417.092383451 673.864648176 421.566582616 673.864648176 c 0
 431.778179016 673.864648176 442.940842138 669.765256967 450.525792529 660.531979266 c 0
 456.152427645 653.68258911 458.708499132 645.380407148 458.976329379 637.409831236 c 0
 459.650886253 629.989705625 460.325443126 622.569580015 461 615.149454405 c 2
 461 614 l 2
EndSplineSet
EndChar

StartChar: plus
Encoding: 43 43 14
Width: 663
Flags: HMW
LayerCount: 2
UndoRedoHistory
Layer: 1
Undoes
UndoOperation
Index: 0
Type: 1
WasModified: 0
WasOrder2: 0
Layer: 2
Width: 663
VWidth: 1000
LBearingChange: 0
UnicodeEnc: 0
InstructionsLength: 0
SplineSet
587 315 m 2
 594 315 599 309 597 301 c 2
 589 266 l 2
 587 258 579 252 572 252 c 2
 351 252 l 1
 296 14 l 2
 294 6 287 0 280 0 c 2
 247 0 l 2
 240 0 236 6 238 14 c 2
 293 252 l 1
 71 252 l 2
 64 252 59 258 61 266 c 2
 69 301 l 2
 71 309 79 315 86 315 c 2
 307 315 l 1
 362 553 l 2
 364 561 371 567 378 567 c 2
 411 567 l 2
 418 567 423 561 421 553 c 2
 366 315 l 1
 587 315 l 2
EndSplineSet
EndUndoOperation
UndoOperation
Index: 1
Type: 3
WasModified: 0
WasOrder2: 0
Layer: 2
EndUndoOperation
EndUndoes
Redoes
EndRedoes
EndUndoRedoHistory
Fore
SplineSet
587 340 m 2
 595.113367706 340 603.210358098 337.315654874 609.733287942 331.912405114 c 0
 617.994869639 325.068948203 622.444393755 314.790471635 622.444393755 304.473430969 c 0
 622.444393755 301.284269522 622.047798576 298.193811818 621.329322349 295.225244244 c 0
 618.64179519 283.467312925 616.179515884 271.621239409 613.255605484 259.925597809 c 0
 610.442977815 248.675087134 603.548091448 240.242881911 595.600557407 234.693180721 c 0
 589.220698357 230.238174781 581.470527772 227 572 227 c 2
 370.886109424 227 l 1
 320.259465788 7.92470572189 l 2
 315.915872916 -9.44966576691 300.971215328 -25 280 -25 c 2
 247 -25 l 2
 237.055192455 -25 226.505096858 -20.5665288624 219.783577168 -11.8989700369 c 0
 214.559461722 -5.16234944676 212.485162833 2.69776521646 212.485162833 10.0211660212 c 0
 212.485162833 13.4354407748 212.919591717 16.6927357359 213.68062287 19.8160415634 c 2
 261.559268727 227 l 1
 71 227 l 2
 62.8866322937 227 54.789641902 229.684345126 48.2667120579 235.087594886 c 0
 40.0051303607 241.931051797 35.555606245 252.209528365 35.555606245 262.526569031 c 0
 35.555606245 265.715730478 35.952201424 268.806188182 36.670677651 271.774755756 c 0
 39.3582048097 283.532687075 41.8204841164 295.378760591 44.7443945165 307.074402191 c 0
 47.5570221851 318.324912866 54.4519085523 326.757118089 62.399442593 332.306819279 c 0
 68.7793016427 336.761825219 76.5294722281 340 86 340 c 2
 287.113890576 340 l 1
 337.740534212 559.075294278 l 2
 342.084127084 576.449665767 357.028784672 592 378 592 c 2
 411 592 l 2
 419.113367706 592 427.210358098 589.315654874 433.733287942 583.912405114 c 0
 441.994869639 577.068948203 446.444393755 566.790471635 446.444393755 556.473430969 c 0
 446.444393755 553.271572247 446.044634294 550.169204789 445.320725459 547.189793025 c 2
 397.440731273 340 l 1
 587 340 l 2
EndSplineSet
EndChar

StartChar: comma
Encoding: 44 44 15
Width: 218
Flags: HMW
LayerCount: 2
UndoRedoHistory
Layer: 1
Undoes
UndoOperation
Index: 0
Type: 1
WasModified: 0
WasOrder2: 0
Layer: 2
Width: 218
VWidth: 1000
LBearingChange: 0
UnicodeEnc: 0
InstructionsLength: 0
SplineSet
89 32 m 0
 84 10 75 -19 38 -62 c 1
 27 -53 l 1
 27 -53 43 -27 49 0 c 1
 46 0 44 0 41 0 c 0
 19 0 4 19 10 44 c 0
 16 68 39 88 61 88 c 0
 83 88 97 67 89 32 c 0
EndSplineSet
EndUndoOperation
UndoOperation
Index: 1
Type: 3
WasModified: 0
WasOrder2: 0
Layer: 2
EndUndoOperation
EndUndoes
Redoes
EndRedoes
EndUndoRedoHistory
Fore
SplineSet
-16.3297589294 33.171603915 m 0
 -16.3297589294 38.7801331518 -15.645410867 44.5151806571 -14.2556054835 50.0744021909 c 0
 -9.37141402024 69.6111680442 2.54243419731 86.123468416 17.5976277399 97.5061945682 c 0
 29.6341624994 106.606614208 44.4134595594 113 61 113 c 0
 78.3118945002 113 94.9696040586 104.800519621 105.072849008 90.1743993746 c 0
 112.939548812 78.7860486176 116.274246594 65.1294661982 116.274246594 50.7174436906 c 0
 116.274246594 42.873807425 115.293901628 34.8203634677 113.379415478 26.4444865612 c 0
 107.838579716 2.0648092105 96.2732799928 -32.5996289534 56.9559941847 -78.2926908383 c 2
 41.043030734 -96.7861348486 l 1
 -5.74274758396 -58.5068616794 l 1
 5.69274350941 -39.9241886465 l 1
 5.69274350941 -39.9241886465 10.8996634588 -31.3518781971 16.0852854994 -19.5521800028 c 1
 8.60912140828 -16.0681701667 1.93987727665 -10.9758688328 -3.37919622533 -4.45763923798 c 0
 -11.9191437646 6.00759286824 -16.3297589294 19.2549121358 -16.3297589294 33.171603915 c 0
EndSplineSet
EndChar

StartChar: hyphen
Encoding: 45 45 16
Width: 445
Flags: HMW
LayerCount: 2
UndoRedoHistory
Layer: 1
Undoes
UndoOperation
Index: 0
Type: 1
WasModified: 0
WasOrder2: 0
Layer: 2
Width: 445
VWidth: 1000
LBearingChange: 0
UnicodeEnc: 0
InstructionsLength: 0
SplineSet
374 281 m 2
 368 258 l 2
 365 247 355 238 345 238 c 2
 74 238 l 2
 64 238 57 247 60 258 c 2
 65 281 l 2
 68 292 78 301 88 301 c 2
 360 301 l 2
 370 301 377 292 374 281 c 2
EndSplineSet
EndUndoOperation
UndoOperation
Index: 1
Type: 3
WasModified: 0
WasOrder2: 0
Layer: 2
EndUndoOperation
EndUndoes
Redoes
EndRedoes
EndUndoRedoHistory
Fore
SplineSet
88 326 m 2
 360 326 l 2
 382.154017277 326 399.700708529 307.740693408 399.700708529 286.061961303 c 0
 399.700708529 282.144785245 399.16656595 278.297374391 398.164915799 274.572839223 c 0
 396.151659408 266.855356392 394.220382582 259.108454009 392.122225369 251.415210896 c 0
 388.936074017 239.732655938 382.082531605 229.911478856 372.925223782 222.879506087 c 0
 365.620146407 217.269876469 356.223296131 213 345 213 c 2
 74 213 l 2
 51.8459827225 213 34.2992914707 231.259306592 34.2992914707 252.938038697 c 0
 34.2992914707 256.649594516 34.7788294506 260.298517123 35.6812226267 263.839628317 c 0
 37.3940547672 271.718656163 38.7657020761 279.840523071 40.8777746307 287.584789104 c 0
 44.0639259827 299.267344062 50.9174683945 309.088521144 60.0747762175 316.120493913 c 0
 67.3798535931 321.730123531 76.7767038687 326 88 326 c 2
EndSplineSet
EndChar

StartChar: period
Encoding: 46 46 17
Width: 218
Flags: HMW
LayerCount: 2
UndoRedoHistory
Layer: 1
Undoes
UndoOperation
Index: 0
Type: 1
WasModified: 0
WasOrder2: 0
Layer: 2
Width: 218
VWidth: 1000
LBearingChange: 0
UnicodeEnc: 0
InstructionsLength: 0
SplineSet
41 0 m 0
 19 0 4 19 10 44 c 0
 16 68 39 88 61 88 c 0
 83 88 98 68 92 44 c 0
 86 19 63 0 41 0 c 0
EndSplineSet
EndUndoOperation
UndoOperation
Index: 1
Type: 3
WasModified: 0
WasOrder2: 0
Layer: 2
EndUndoOperation
EndUndoes
Redoes
EndRedoes
EndUndoRedoHistory
Fore
SplineSet
41 -25 m 0
 23.6790363401 -25 7.38513748348 -17.6487332363 -3.37919622533 -4.45763923798 c 0
 -11.9191437646 6.00759286824 -16.3297589294 19.2549121358 -16.3297589294 33.171603915 c 0
 -16.3297589294 38.7801331518 -15.645410867 44.5151806571 -14.2556054835 50.0744021909 c 0
 -9.37141402024 69.6111680442 2.54243419731 86.123468416 17.5976277399 97.5061945682 c 0
 29.6341624994 106.606614208 44.4134595594 113 61 113 c 0
 93.9742487262 113 118.329758929 86.1066556505 118.329758929 54.5027151878 c 0
 118.329758929 49.0151779872 117.640818098 43.5050455072 116.284317481 38.0408485144 c 0
 111.445579868 18.0034977556 99.4167783867 1.28486122202 84.2048056957 -9.9832667209 c 0
 72.0186280336 -19.0100649891 57.2462883174 -25 41 -25 c 0
EndSplineSet
EndChar

StartChar: slash
Encoding: 47 47 18
Width: 438
Flags: HMW
LayerCount: 2
UndoRedoHistory
Layer: 1
Undoes
UndoOperation
Index: 0
Type: 1
WasModified: 0
WasOrder2: 0
Layer: 2
Width: 438
VWidth: 1000
LBearingChange: 0
UnicodeEnc: 0
InstructionsLength: 0
SplineSet
14 0 m 6
 5 0 0 10 6 19 c 6
 410 728 l 6
 413 733 418 737 424 737 c 6
 458 737 l 6
 467 737 472 727 466 718 c 6
 63 9 l 6
 60 4 54 0 48 0 c 6
 14 0 l 6
EndSplineSet
EndUndoOperation
UndoOperation
Index: 1
Type: 3
WasModified: 0
WasOrder2: 0
Layer: 2
EndUndoOperation
EndUndoes
Redoes
EndRedoes
EndUndoRedoHistory
Fore
SplineSet
14 -25 m 2
 -6.78083093304 -25 -21.6190758762 -7.50328191282 -21.6190758762 10.8834570785 c 0
 -21.6190758762 18.4069636577 -19.3683673875 25.6519337467 -15.398092274 31.9451243759 c 0
 119.251689294 268.240461563 253.889291491 504.547978122 388.54678009 740.835608279 c 0
 394.455065828 750.682751176 406.228331688 762 424 762 c 2
 458 762 l 2
 478.780830933 762 493.619075876 744.503281913 493.619075876 726.116542922 c 0
 493.619075876 718.598513887 491.371643484 711.358615908 487.406761303 705.068622548 c 0
 353.08727821 468.768848234 218.78115987 232.455709168 84.4532199098 -3.83560827884 c 0
 77.3745253742 -15.6334325049 64.7248545684 -25 48 -25 c 2
 14 -25 l 2
EndSplineSet
EndChar

StartChar: zero
Encoding: 48 48 19
Width: 569
Flags: HMW
LayerCount: 2
UndoRedoHistory
Layer: 1
Undoes
UndoOperation
Index: 0
Type: 1
WasModified: 0
WasOrder2: 0
Layer: 2
Width: 569
VWidth: 1000
LBearingChange: 0
UnicodeEnc: 0
InstructionsLength: 0
SplineSet
72 0 m 6
 63 0 58 10 64 19 c 6
 468 728 l 6
 471 733 476 737 482 737 c 6
 516 737 l 6
 525 737 530 727 524 718 c 6
 120 9 l 6
 117 4 112 0 106 0 c 6
 72 0 l 6
205 0 m 2
 92 0 23 99 51 220 c 2
 119 516 l 2
 147 638 262 737 375 737 c 2
 399 737 l 2
 512 737 581 638 553 516 c 2
 484 220 l 2
 456 99 342 0 229 0 c 2
 205 0 l 2
360 674 m 2
 280 674 198 603 178 516 c 2
 109 220 l 2
 89 134 139 63 219 63 c 2
 243 63 l 2
 323 63 406 134 426 220 c 2
 494 516 l 2
 514 603 464 674 384 674 c 2
 360 674 l 2
EndSplineSet
EndUndoOperation
UndoOperation
Index: 1
Type: 3
WasModified: 1
WasOrder2: 0
Layer: 2
EndUndoOperation
EndUndoes
Redoes
EndRedoes
EndUndoRedoHistory
Fore
SplineSet
360 649 m 2
 331.10016972 649 300.002179135 637.340393164 272.819005789 616.797680735 c 0
 238.839437099 591.118835253 212.016375648 552.364921938 202.365686546 510.384424343 c 2
 133.348566176 214.310468979 l 2
 130.940903795 203.957520741 129.748907428 194.018718234 129.604800992 184.62927774 c 1
 217.72025483 339.268840732 305.83345044 493.910661953 393.953374844 648.545754365 c 1
 390.725336808 648.846256591 387.407137063 649 384 649 c 2
 360 649 l 2
72 -25 m 2
 51.219169067 -25 36.3809241238 -7.50328191282 36.3809241238 10.8834570785 c 0
 36.3809241238 18.4069636577 38.6316326125 25.6519337467 42.601907726 31.9451243759 c 0
 46.3255292161 38.4796644644 50.0491413921 45.0142138671 53.7727449319 51.5487719058 c 1
 31.6378598237 83.7749984728 19.7685529298 123.658322699 19.7685529298 167.119326285 c 0
 19.7685529298 186.093798666 22.0142314399 205.650196604 26.6334934411 225.612007395 c 2
 94.6323247219 521.606917575 l 2
 111.650304344 595.756685927 157.514717666 661.112633762 215.970752402 705.008490153 c 0
 262.739164062 740.127866468 318.204731748 762 375 762 c 2
 399 762 l 2
 419.697127549 762 439.318414127 759.01593956 457.499914466 753.390910798 c 1
 463.748007266 758.349407647 471.906554633 762 482 762 c 2
 516 762 l 2
 536.780830933 762 551.619075876 744.503281913 551.619075876 726.116542922 c 0
 551.619075876 718.593036342 549.368367388 711.348066253 545.398092274 705.054875624 c 0
 543.963693131 702.537665234 542.52929537 700.020453463 541.094898927 697.503240326 c 0
 541.989309978 696.412010767 542.871249914 695.308914377 543.74055342 694.194106953 c 0
 570.047313011 660.457938576 584.23144707 617.050428747 584.23144707 569.267673938 c 0
 584.23144707 550.197449786 581.960920558 530.40715593 577.348566176 510.310468979 c 2
 508.357638011 214.349528554 l 2
 491.337848346 140.799723215 445.815549395 75.7140799755 387.635227406 31.9210021698 c 0
 341.087491278 -3.1160784132 285.800577154 -25 229 -25 c 2
 205 -25 l 2
 179.822864045 -25 156.240967062 -20.5856201978 134.906792925 -12.3822034514 c 1
 128.286253454 -19.2506929885 118.666759273 -25 106 -25 c 2
 72 -25 l 2
195.339142097 90.7223886758 m 1
 202.669643782 88.9435320176 210.563151677 88 219 88 c 2
 243 88 l 2
 271.909637622 88 303.271327169 99.6877826947 330.703186313 120.193583785 c 0
 365.00146879 145.832158062 392.046859736 184.389877349 401.64849831 225.676923219 c 2
 469.633493441 521.612007395 l 2
 472.217420258 532.852089047 473.410117168 543.61180411 473.410117168 553.69462109 c 0
 473.410117168 561.267065935 472.741742941 568.49557413 471.479452928 575.333084919 c 1
 379.433147787 413.795721036 287.389792234 252.255407565 195.339142097 90.7223886758 c 1
EndSplineSet
EndChar

StartChar: one
Encoding: 49 49 20
Width: 339
Flags: HMW
LayerCount: 2
UndoRedoHistory
Layer: 1
Undoes
UndoOperation
Index: 0
Type: 1
WasModified: 0
WasOrder2: 0
Layer: 2
Width: 339
VWidth: 1000
LBearingChange: 0
UnicodeEnc: 0
InstructionsLength: 0
SplineSet
148 16 m 2xb0
 299 669 l 1xb0
 190 581 l 2
 184 575 175 572 168 572 c 1
 168 572 l 1
 160 572 153 576 149 582 c 2
 142 594 l 2
 138 600 141 610 148 616 c 2xd0
 286 729 l 2
 293 734 301 737 308 737 c 2
 358 737 l 2
 366 737 371 730 369 721 c 2
 206 16 l 2
 204 7 196 0 188 0 c 2
 159 0 l 2
 151 0 146 7 148 16 c 2xb0
EndSplineSet
EndUndoOperation
UndoOperation
Index: 1
Type: 3
WasModified: 0
WasOrder2: 0
Layer: 2
EndUndoOperation
EndUndoes
Redoes
EndRedoes
EndUndoRedoHistory
Fore
SplineSet
188 -25 m 2
 159 -25 l 2
 148.107654299 -25 137.230821128 -20.0345538723 130.331893683 -11.1490098282 c 0
 124.930063526 -4.19166752168 122.558988283 4.07674431623 122.558988283 12.1212991189 c 0
 122.558988283 15.3162407463 122.897472782 18.4291969468 123.593529357 21.4392959099 c 2
 258.310748899 604.024357902 l 1
 206.582697731 562.262261546 l 1
 195.054311424 551.318665373 181.042012113 547 168 547 c 0
 151.090189504 547 136.560874233 555.592179167 127.767466228 568.782291174 c 0
 125.39623501 572.847258976 123.025003793 576.912226777 120.653772575 580.977194579 c 0
 116.628559423 587.393514888 115.208396973 594.26990163 115.208396973 600.396540719 c 0
 115.208396973 614.650793559 121.896573586 626.546852855 131.958776604 635.171598298 c 0
 178.482591681 673.220607954 224.903841984 711.372182383 271.492111129 749.35673797 c 0
 281.828034042 756.73954005 293.992944879 762 308 762 c 2
 358 762 l 2
 368.892345701 762 379.769178872 757.034553872 386.668106317 748.149009828 c 0
 392.069936474 741.191667522 394.441011717 732.923255684 394.441011717 724.878700881 c 0
 394.441011717 721.683759254 394.102421088 718.570827624 393.406463821 715.560705698 c 2
 230.378078771 10.4379360043 l 2
 226.135980634 -8.41025684552 210.070027741 -25 188 -25 c 2
EndSplineSet
EndChar

StartChar: two
Encoding: 50 50 21
Width: 569
Flags: HMW
LayerCount: 2
UndoRedoHistory
Layer: 1
Undoes
UndoOperation
Index: 0
Type: 1
WasModified: 0
WasOrder2: 0
Layer: 2
Width: 569
VWidth: 1000
LBearingChange: 0
UnicodeEnc: 0
InstructionsLength: 0
SplineSet
29 0 m 2
 13 0 3 14 7 31 c 2
 48 208 l 2
 71 309 166 391 260 391 c 2
 353 391 l 2
 415 391 478 444 493 510 c 2
 503 554 l 2
 518 620 481 674 419 674 c 2
 326 674 l 2
 265 674 201 620 186 554 c 0
 182 537 167 523 150 523 c 2
 136 523 l 2
 128 523 122 530 124 539 c 2
 128 554 l 2
 151 655 246 737 340 737 c 2
 433 737 l 2
 527 737 584 655 561 554 c 2
 551 510 l 2
 528 409 433 328 339 328 c 2
 246 328 l 2
 185 328 122 274 107 208 c 2
 73 63 l 1
 419 63 l 2
 435 63 445 49 441 31 c 2
 437 16 l 2
 435 7 426 0 418 0 c 2
 29 0 l 2
EndSplineSet
EndUndoOperation
UndoOperation
Index: 1
Type: 3
WasModified: 0
WasOrder2: 0
Layer: 2
EndUndoOperation
EndUndoes
Redoes
EndRedoes
EndUndoRedoHistory
Fore
SplineSet
29 -25 m 2
 14.336142612 -25 0.487183594845 -18.5326437457 -8.42425444571 -7.28816222338 c 0
 -15.4541642307 1.5822008226 -18.8820234337 12.4852609175 -18.8820234337 23.6267787354 c 0
 -18.8820234337 28.0403556348 -18.37216562 32.3388149923 -17.3563977921 36.6558282609 c 2
 23.6229402616 213.56586844 l 2
 37.8523207451 276.051408824 76.3097098413 330.997954609 125.489063191 367.939058322 c 0
 164.837164704 397.495410732 211.67405085 416 260 416 c 2
 353 416 l 2
 374.145585777 416 397.105147657 424.2642715 417.148654278 439.034150161 c 0
 442.218814512 457.508124384 461.770876332 485.416797403 468.620584522 515.555513439 c 2
 478.620584522 559.555513439 l 2
 480.481128839 567.741908433 481.33112588 575.529330071 481.33112588 582.762668517 c 0
 481.33112588 601.023368537 475.960592154 616.115018449 467.515105515 626.976371404 c 0
 457.112201354 640.355069243 441.192441806 649 419 649 c 2
 326 649 l 2
 305.509549636 649 282.559197514 640.640569567 262.35014854 625.613447832 c 0
 237.07589825 606.819924379 217.167120176 578.313632771 210.336840726 548.260403189 c 0
 204.112687398 521.807751547 180.941082111 498 150 498 c 2
 136 498 l 2
 115.536096029 498 98.6123704084 514.853744304 98.6123704084 535.565053232 c 0
 98.6123704084 544.840605309 101.67792724 552.336897134 103.72717788 560.021587037 c 0
 118.039423654 622.31853772 156.429303008 677.087787095 205.489063191 713.939058322 c 0
 244.837164704 743.495410732 291.67405085 762 340 762 c 2
 433 762 l 2
 484.491174075 762 528.388942735 740.318659462 556.628419712 704.109809231 c 0
 579.102042518 675.293976595 591.09513577 638.350584467 591.09513577 597.892648179 c 0
 591.09513577 565.252194231 581.810326977 532.740500814 575.377059738 504.43413156 c 0
 561.141233521 441.920285997 522.636131689 387.242638074 473.431790183 350.584724243 c 0
 434.061734019 321.253488782 387.244812763 303 339 303 c 2
 246 303 l 2
 225.520889445 303 202.828440049 294.669631533 182.85680977 279.68042197 c 0
 157.88544195 260.938783952 138.201318245 232.463481895 131.341203432 202.278976717 c 2
 104.544753719 88 l 1
 419 88 l 2
 433.673594853 88 447.661465685 81.4707270585 456.578846527 69.9854953523 c 0
 463.595439402 60.9484029162 466.882023434 49.9372900059 466.882023434 38.7574017623 c 0
 466.882023434 27.9299706092 463.628545479 18.8123755611 461.266169379 9.95346518491 c 0
 458.48348464 -1.79662559141 451.360931287 -10.7057602964 443.090889279 -16.6288984913 c 0
 436.334473632 -21.467952941 428.052367408 -25 418 -25 c 2
 29 -25 l 2
EndSplineSet
EndChar

StartChar: three
Encoding: 51 51 22
Width: 547
Flags: HMW
LayerCount: 2
UndoRedoHistory
Layer: 1
Undoes
UndoOperation
Index: 0
Type: 1
WasModified: 0
WasOrder2: 0
Layer: 2
Width: 547
VWidth: 1000
LBearingChange: 0
UnicodeEnc: 0
InstructionsLength: 0
SplineSet
417 397 m 1xf4
 463 378 481 306 467 246 c 2
 453 183 l 2
 430 82 334 0 240 0 c 2
 147 0 l 2
 53 0 -4 82 19 183 c 2
 23 198 l 2
 25 207 34 214 42 214 c 2
 55 214 l 2
 72 214 82 200 78 182 c 0xf4
 63 117 101 63 162 63 c 2
 255 63 l 2
 317 63 379 117 394 183 c 2
 409 246 l 2
 424 312 387 365 325 365 c 2
 275 365 l 2
 267 365 262 372 264 381 c 2
 268 397 l 2
 272 414 288 428 305 428 c 2
 339 428 l 2
 401 428 459 463 474 529 c 2
 480 554 l 2
 495 620 458 674 396 674 c 2
 314 674 l 2
 251 674 186 617 174 548 c 1
 174 544 l 2
 172 536 163 529 155 529 c 2
 125 529 l 2
 118 529 113 536 115 545 c 2
 117 554 l 2xec
 140 655 235 737 329 737 c 2
 411 737 l 2
 505 737 562 655 539 554 c 2
 533 529 l 2
 522 483 471 412 417 397 c 1xf4
EndSplineSet
EndUndoOperation
UndoOperation
Index: 1
Type: 3
WasModified: 0
WasOrder2: 0
Layer: 2
EndUndoOperation
EndUndoes
Redoes
EndRedoes
EndUndoRedoHistory
Fore
SplineSet
463.741476955 391.915019054 m 1
 486.096767582 364.66567973 496.636503037 325.406217015 496.636503037 286.990516119 c 0
 496.636503037 271.369950098 494.921062768 255.669320868 491.378099826 240.437246964 c 2
 477.377059738 177.43413156 l 2
 463.12804838 114.862386031 424.304066146 59.9234906979 374.868923099 23.0167416346 c 0
 335.313429409 -6.5141667375 288.318790028 -25 240 -25 c 2
 147 -25 l 2
 95.5088259248 -25 51.6110572654 -3.31865946193 23.3715802878 32.8901907689 c 0
 0.897957481774 61.7060234054 -11.0951357703 98.6494155331 -11.0951357703 139.107351821 c 0
 -11.0951357703 155.188232862 -9.59054171147 172.830138567 -5.15870164654 189.449538811 c 2
 -1.26616937872 204.046534815 l 2
 1.51651535966 215.796625591 8.63906871326 224.705760296 16.9091107212 230.628898491 c 0
 23.665526368 235.467952941 31.9476325924 239 42 239 c 2
 55 239 l 2
 69.6919443175 239 83.9518680745 232.837816251 93.2169310562 221.258851195 c 0
 100.504120824 212.151723069 103.878729578 200.965941526 103.878729578 189.714646733 c 0
 103.878729578 185.229246769 103.365646284 180.717544305 102.361009893 176.364119947 c 0
 100.550709984 168.519487008 99.7254675132 161.037418024 99.7254675132 154.060226042 c 0
 99.7254675132 136.11720725 105.140904386 121.078849474 113.697575864 110.150546141 c 0
 124.264875539 96.6543336734 140.333671399 88 162 88 c 2
 255 88 l 2
 276.011978122 88 298.682694398 96.3527815696 318.520890875 111.294149221 c 0
 343.325337291 129.975905584 362.418834682 158.313810365 369.619312297 188.55581635 c 2
 384.647413883 251.673843012 l 2
 386.49109477 259.824668918 387.33112588 267.549738219 387.33112588 274.701858674 c 0
 387.33112588 292.84310954 381.988341243 307.66741882 373.605643064 318.318946114 c 0
 363.279939836 331.439364792 347.347969379 340 325 340 c 2
 275 340 l 2
 264.107654299 340 253.230821128 344.965446128 246.331893683 353.850990172 c 0
 240.930063526 360.808332478 238.558988283 369.076744316 238.558988283 377.121299119 c 0
 238.558988283 380.51906284 238.967797106 383.968012548 239.744394516 387.074402191 c 2
 243.707756203 402.927848938 l 2
 250.21139255 430.196011538 274.695521465 453 305 453 c 2
 339 453 l 2
 392.101666358 453 437.64448446 481.860673164 449.653769915 534.701529166 c 0
 453.11969031 549.142864145 458.33112588 566.012937252 458.33112588 582.762668517 c 0
 458.33112588 601.023368537 452.960592154 616.115018449 444.515105515 626.976371404 c 0
 434.112201354 640.355069243 418.192441806 649 396 649 c 2
 314 649 l 2
 292.772229753 649 269.289109881 640.171740114 248.937038078 624.400865147 c 0
 224.027264126 605.098214573 204.918691433 576.319651692 199 545.709535134 c 0
 199 544.107415381 199 542.505295628 199 540.903175875 c 0
 196.225532008 529.805303905 191.459737091 521.98599555 184.519982888 515.794393287 c 0
 177.128711532 509.199950442 167.432106862 504 155 504 c 2
 125 504 l 2
 102.822146129 504 89.555606245 523.542069725 89.555606245 541.077010809 c 0
 89.555606245 547.806900424 91.3468486541 553.824442636 92.6229402616 559.56586844 c 0
 106.852320745 622.051408824 145.309709841 676.997954609 194.489063191 713.939058322 c 0
 233.837164704 743.495410732 280.67405085 762 329 762 c 2
 411 762 l 2
 462.491174075 762 506.388942735 740.318659462 534.628419712 704.109809231 c 0
 557.102042518 675.293976595 569.09513577 638.350584467 569.09513577 597.892648179 c 0
 569.09513577 581.823079016 567.340310531 564.940472692 563.311289383 548.152884575 c 2
 557.316042542 523.17272535 l 2
 546.182882828 476.615875639 505.13217419 419.92906883 463.741476955 391.915019054 c 1
EndSplineSet
EndChar

StartChar: four
Encoding: 52 52 23
Width: 559
Flags: HMW
LayerCount: 2
UndoRedoHistory
Layer: 1
Undoes
UndoOperation
Index: 0
Type: 1
WasModified: 0
WasOrder2: 0
Layer: 2
Width: 559
VWidth: 1000
LBearingChange: 0
UnicodeEnc: 0
InstructionsLength: 0
SplineSet
472 277 m 2
 480 277 485 270 483 261 c 2
 476 230 l 2
 474 221 465 214 457 214 c 2
 389 214 l 1
 344 16 l 2
 342 7 333 0 326 0 c 2
 296 0 l 2
 288 0 283 7 285 16 c 2
 331 214 l 1
 73 214 l 2
 41 214 27 248 46 281 c 2
 170 717 l 2
 177 729 190 737 202 737 c 2
 224 737 l 2
 234 737 238 726 232 716 c 2
 106 277 l 1
 345 277 l 1
 404 532 l 6
 408 549 424 563 441 563 c 6
 456 563 l 6
 463 563 468 556 466 548 c 6
 404 277 l 1
 472 277 l 2
EndSplineSet
EndUndoOperation
UndoOperation
Index: 1
Type: 3
WasModified: 1
WasOrder2: 0
Layer: 2
EndUndoOperation
EndUndoes
Redoes
EndRedoes
EndUndoRedoHistory
Fore
SplineSet
472 302 m 2
 482.892345701 302 493.769178872 297.034553872 500.668106317 288.149009828 c 0
 506.069936474 281.191667522 508.441011717 272.923255684 508.441011717 264.878700881 c 0
 508.441011717 261.683759254 508.057276266 258.494204244 507.387063287 255.478245842 c 2
 500.405581135 224.56090978 l 2
 497.727609148 212.510035839 490.502854739 203.395887582 482.090889279 197.371101509 c 0
 475.334473632 192.532047059 467.052367408 189 457 189 c 2
 408.960185081 189 l 1
 368.405581135 10.5609097804 l 2
 365.731750259 -1.47132916259 358.655345879 -10.359287182 350.678997937 -16.3239635975 c 0
 344.310842013 -21.0860413959 336.421797861 -25 326 -25 c 2
 296 -25 l 2
 285.107654299 -25 274.230821128 -20.0345538723 267.331893683 -11.1490098282 c 0
 261.930063526 -4.19166752168 259.558988283 4.07674431623 259.558988283 12.1212991189 c 0
 259.558988283 15.3162407463 259.894154356 18.4299671828 260.593303735 21.4393492904 c 2
 299.521535718 189 l 1
 73 189 l 2
 53.6776330806 189 36.1068106249 197.452937959 25.0924153204 211.87339662 c 0
 16.4339267453 223.209413996 12.3970259463 236.995220361 12.3970259463 251.094001739 c 0
 12.3970259463 264.366936726 15.9215422696 277.796652079 22.7262744361 290.573544378 c 1
 146.80673566 726.856456424 l 1
 148.389614488 729.569962987 l 2
 159.447365451 748.526107494 179.361872261 762 202 762 c 2
 224 762 l 2
 235.008024304 762 245.987304395 756.762680972 252.622787327 747.833178881 c 0
 257.761253226 740.918242552 259.819079927 733.044862305 259.819079927 725.52952481 c 0
 259.819079927 718.817554983 258.206832253 712.420786349 255.300480898 706.544259312 c 1
 139.189827884 302 l 1
 325.119325082 302 l 1
 379.663159274 537.739596811 l 2
 386.098777706 565.090975147 410.625809621 588 441 588 c 2
 456 588 l 2
 477.608146346 588 491.444393755 569.428031345 491.444393755 551.534948375 c 0
 491.444393755 548.37789371 491.063957152 545.261725013 490.328933512 542.223716951 c 2
 435.370001959 302 l 1
 472 302 l 2
EndSplineSet
EndChar

StartChar: five
Encoding: 53 53 24
Width: 569
Flags: HMW
LayerCount: 2
UndoRedoHistory
Layer: 1
Undoes
UndoOperation
Index: 0
Type: 1
WasModified: 0
WasOrder2: 0
Layer: 2
Width: 569
VWidth: 1000
LBearingChange: 0
UnicodeEnc: 0
InstructionsLength: 0
SplineSet
170 0 m 2
 76 0 19 82 42 183 c 2
 46 198 l 2
 48 207 56 214 64 214 c 2
 78 214 l 2
 95 214 105 200 101 182 c 0
 86 117 124 63 185 63 c 2
 278 63 l 2
 340 63 402 117 417 183 c 2
 437 271 l 2
 452 337 415 391 353 391 c 2
 149 391 l 2
 116 391 97 419 105 453 c 2
 163 705 l 2
 167 723 183 737 199 737 c 2
 554 737 l 2
 561 737 566 730 564 721 c 2
 561 705 l 2
 557 688 541 674 525 674 c 2
 214 674 l 1
 163 453 l 1
 368 453 l 2
 462 453 519 372 496 271 c 2
 476 183 l 2
 453 82 357 0 263 0 c 2
 170 0 l 2
EndSplineSet
EndUndoOperation
UndoOperation
Index: 1
Type: 3
WasModified: 0
WasOrder2: 0
Layer: 2
EndUndoOperation
EndUndoes
Redoes
EndRedoes
EndUndoRedoHistory
Fore
SplineSet
170 -25 m 2
 118.508825925 -25 74.6110572654 -3.31865946193 46.3715802878 32.8901907689 c 0
 23.8979574818 61.7060234054 11.9048642297 98.6494155331 11.9048642297 139.107351821 c 0
 11.9048642297 155.188232862 13.4094582885 172.830138567 17.8412983535 189.449538811 c 2
 21.7325047586 204.04156283 l 2
 26.1372134607 222.69071554 42.1173203932 239 64 239 c 2
 78 239 l 2
 92.6919443175 239 106.951868075 232.837816251 116.216931056 221.258851195 c 0
 123.504120824 212.151723069 126.878729578 200.965941526 126.878729578 189.714646733 c 0
 126.878729578 185.229246769 126.365646284 180.717544305 125.361009893 176.364119947 c 0
 123.550709984 168.519487008 122.725467513 161.037418024 122.725467513 154.060226042 c 0
 122.725467513 136.11720725 128.140904386 121.078849474 136.697575864 110.150546141 c 0
 147.264875539 96.6543336734 163.333671399 88 185 88 c 2
 278 88 l 2
 299.011978122 88 321.682694398 96.3527815696 341.520890875 111.294149221 c 0
 366.325337291 129.975905584 385.73096289 158.241178256 392.620584522 188.555513439 c 2
 412.620584522 276.555513439 l 2
 414.481128839 284.741908433 415.33112588 292.529330071 415.33112588 299.762668517 c 0
 415.33112588 318.023368537 409.960592154 333.115018449 401.515105515 343.976371404 c 0
 391.112201354 357.355069243 375.192441806 366 353 366 c 2
 149 366 l 2
 126.644769068 366 106.439206509 375.3850565 93.4702181991 391.79286617 c 0
 83.2222634292 404.758140512 78.1775147929 420.923224977 78.1775147929 437.813837051 c 0
 78.1775147929 444.745923803 78.9893948426 451.624812408 80.6357593748 458.62186167 c 2
 138.594418865 710.43909022 l 2
 144.794185042 738.338038013 168.881986562 762 199 762 c 2
 554 762 l 2
 576.177853871 762 589.444393755 742.457930275 589.444393755 724.922989191 c 0
 589.444393755 721.906432724 589.12096841 718.943738969 588.510498438 716.045665419 c 0
 587.465263571 710.47107946 586.629194978 704.75290876 585.336840726 699.260403189 c 0
 581.641798022 683.556471696 572.331641341 670.416964329 560.305319412 661.353649252 c 0
 550.68134795 654.100801194 538.686768315 649 525 649 c 2
 233.892366829 649 l 1
 194.430828367 478 l 1
 368 478 l 2
 419.388859443 478 463.278923931 456.63282928 491.569049797 420.644193526 c 0
 514.083763825 392.00261568 526.09513577 355.208934663 526.09513577 314.832067084 c 0
 526.09513577 298.807816346 524.215050149 282.287925772 520.379415478 265.444486561 c 2
 500.377059738 177.43413156 l 2
 486.12804838 114.862386031 447.304066146 59.9234906979 397.868923099 23.0167416346 c 0
 358.313429409 -6.5141667375 311.318790028 -25 263 -25 c 2
 170 -25 l 2
EndSplineSet
EndChar

StartChar: six
Encoding: 54 54 25
Width: 569
Flags: HMW
LayerCount: 2
UndoRedoHistory
Layer: 1
Undoes
UndoOperation
Index: 0
Type: 1
WasModified: 0
WasOrder2: 0
Layer: 2
Width: 569
VWidth: 1000
LBearingChange: 0
UnicodeEnc: 0
InstructionsLength: 0
SplineSet
170 0 m 2xf4
 76 0 19 82 42 183 c 2
 125 542 l 2
 137 596 167 645 207 681 c 0
 247 717 294 737 340 737 c 2
 410 737 l 2
 504 737 561 655 538 554 c 2
 537 551 l 2
 535 542 527 535 519 535 c 2
 493 535 l 2
 483 535 477 544 479 554 c 0xf8
 494 620 457 674 396 674 c 2
 326 674 l 2
 294 674 262 660 236 635 c 0
 211 611 192 578 184 542 c 2
 151 399 l 1
 151 399 201 453 275 453 c 2
 368 453 l 2
 462 453 519 372 496 271 c 2
 476 183 l 2
 453 82 357 0 263 0 c 2
 170 0 l 2xf4
260 391 m 2
 199 391 136 337 121 271 c 2
 101 183 l 2
 86 117 124 63 185 63 c 2
 278 63 l 2
 339 63 402 117 417 183 c 2
 437 271 l 2
 452 337 414 391 353 391 c 2
 260 391 l 2
EndSplineSet
EndUndoOperation
UndoOperation
Index: 1
Type: 3
WasModified: 0
WasOrder2: 0
Layer: 2
EndUndoOperation
EndUndoes
Redoes
EndRedoes
EndUndoRedoHistory
Fore
SplineSet
493 510 m 2
 471.377392226 510 453.616796585 527.754513938 453.616796585 550.192158501 c 0
 453.616796585 553.338259475 453.949056337 556.600789424 454.620584522 559.555513439 c 0
 456.484042265 567.754727507 457.334514122 575.556471118 457.334514122 582.806105035 c 0
 457.334514122 601.073870815 451.973682672 616.199779252 443.589019446 627.070879602 c 0
 433.257976232 640.465550857 417.584594139 649 396 649 c 2
 326 649 l 2
 266.423732043 649 220.252695673 589.869144211 208.406380369 536.560725342 c 2
 190.121354497 457.32561323 l 1
 212.684205285 468.575209115 241.469062363 478 275 478 c 2
 368 478 l 2
 419.388859443 478 463.278923931 456.63282928 491.569049797 420.644193526 c 0
 514.083763825 392.00261568 526.09513577 355.208934663 526.09513577 314.832067084 c 0
 526.09513577 298.807816346 524.215050149 282.287925772 520.379415478 265.444486561 c 2
 500.377059738 177.43413156 l 2
 486.12804838 114.862386031 447.304066146 59.9234906979 397.868923099 23.0167416346 c 0
 358.313429409 -6.5141667375 311.318790028 -25 263 -25 c 2
 170 -25 l 2
 118.508825925 -25 74.6110572654 -3.31865946193 46.3715802878 32.8901907689 c 0
 23.8979574818 61.7060234054 11.9048642297 98.6494155331 11.9048642297 139.107351821 c 0
 11.9048642297 155.164303082 13.8044372608 171.797050619 17.6412622181 188.645716736 c 2
 100.617970299 547.544972171 l 2
 113.836197942 606.915407073 146.566584872 660.237744666 190.28634937 699.585532714 c 0
 234.055063449 738.977375385 286.624826055 762 340 762 c 2
 410 762 l 2
 461.491174075 762 505.388942735 740.318659462 533.628419712 704.109809231 c 0
 556.102042518 675.293976595 568.09513577 638.350584467 568.09513577 597.892648179 c 0
 568.09513577 581.473380506 565.981761843 564.263475583 562.107438612 547.250143133 c 0
 561.755631722 546.194722463 561.403824832 545.139301793 561.052017942 544.083881123 c 0
 556.360730169 525.802365518 540.539920668 510 519 510 c 2
 493 510 l 2
260 366 m 2
 239.520889445 366 216.828440049 357.669631533 196.85680977 342.68042197 c 0
 171.88544195 323.938783952 152.239530291 295.628991739 145.379415478 265.444486561 c 2
 125.379415478 177.444486561 l 2
 123.556396271 169.423202052 122.725467513 161.787513477 122.725467513 154.679388859 c 0
 122.725467513 136.398485323 128.17813247 121.196397434 136.738014375 110.204926561 c 0
 147.303668294 96.6379079296 163.336372182 88 185 88 c 2
 278 88 l 2
 298.479110555 88 321.171559951 96.3303684669 341.14319023 111.31957803 c 0
 366.11455805 130.061216048 385.760469709 158.371008261 392.620584522 188.555513439 c 2
 412.620584522 276.555513439 l 2
 414.443603729 284.576797948 415.274532487 292.212486523 415.274532487 299.320611141 c 0
 415.274532487 317.601514677 409.82186753 332.803602566 401.261985625 343.795073439 c 0
 390.696331706 357.36209207 374.663627818 366 353 366 c 2
 260 366 l 2
EndSplineSet
EndChar

StartChar: seven
Encoding: 55 55 26
Width: 456
Flags: HMW
LayerCount: 2
UndoRedoHistory
Layer: 1
Undoes
UndoOperation
Index: 0
Type: 1
WasModified: 0
WasOrder2: 0
Layer: 2
Width: 456
VWidth: 1000
LBearingChange: 0
UnicodeEnc: 0
InstructionsLength: 0
SplineSet
410 342 m 2
 128 344 l 6
 120 344 115 351 117 360 c 6
 121 375 l 6
 125 393 141 407 157 407 c 6
 430 407 l 2
 446 407 445 379 434 368 c 2
 426 350 l 2
 425 349 414 342 410 342 c 2
57 22 m 2
 467 674 l 1
 102 674 l 2
 94 674 89 681 91 690 c 2
 95 705 l 2
 99 723 115 737 131 737 c 2
 506 737 l 2
 522 737 532 723 528 705 c 2
 516 655 l 2
 515 651 514 647 512 643 c 2
 118 19 l 2
 111 8 99 0 87 0 c 2
 65 0 l 2
 55 0 50 11 57 22 c 2
EndSplineSet
EndUndoOperation
UndoOperation
Index: 1
Type: 3
WasModified: 1
WasOrder2: 0
Layer: 2
EndUndoOperation
EndUndoes
Redoes
EndRedoes
EndUndoRedoHistory
Fore
SplineSet
131 762 m 2
 506 762 l 2
 520.673594853 762 534.661465685 755.470727059 543.578846527 743.985495352 c 0
 550.595439402 734.948402916 553.882023434 723.937290006 553.882023434 712.757401762 c 0
 553.882023434 708.325167601 553.451088368 703.902047014 552.409017498 699.560085053 c 2
 540.25667874 648.925340228 l 2
 539.249726087 644.897529619 537.22849987 637.550434968 533.819268506 630.731968642 c 2
 408.337806356 432 l 1
 430 432 l 2
 452.748519237 432 467.156401679 412.954983771 467.156401679 390.207034501 c 0
 467.156401679 378.154354974 464.142268013 365.241745196 455.28589826 354.329652098 c 0
 452.51465557 348.094356045 449.74341288 341.859059993 446.97217019 335.62376394 c 2
 443.674203125 332.325796875 l 2
 439.47423753 328.12583128 439.380634724 328.736470399 437.237364756 327.350252353 c 0
 432.784966537 324.470542911 427.597245657 321.437644835 421.725126411 319.264567635 c 0
 419.181785024 318.323361072 416.131208951 317.000640443 409.819346153 317.000640443 c 2
 336.056420033 317.523949482 l 1
 139.107075932 5.6043224302 l 2
 128.478287512 -11.0980593723 110.003896335 -25 87 -25 c 2
 65 -25 l 2
 54.0917140993 -25 43.293179754 -20.0112823074 36.4672433612 -11.2471585343 c 0
 31.1233314053 -4.38587194747 28.7369198875 3.7641880739 28.7369198875 11.7446053606 c 0
 28.7369198875 20.3013515049 31.3323162747 28.2283339346 35.8209452812 35.2818938019 c 2
 213.849641293 318.390942094 l 1
 128 319 l 2
 117.107654299 319 106.230821128 323.965446128 99.3318936834 332.850990172 c 0
 93.930063526 339.808332478 91.5589882832 348.076744316 91.5589882832 356.121299119 c 0
 91.5589882832 365.58030412 94.6385445569 373.189212074 96.7228109174 381.005210926 c 0
 103.120657451 408.657382451 127.085914968 432 157 432 c 2
 285.290920038 432 l 1
 421.747975252 649 l 1
 102 649 l 2
 91.1076542992 649 80.2308211283 653.965446128 73.3318936834 662.850990172 c 0
 67.930063526 669.808332478 65.5589882832 678.076744316 65.5589882832 686.121299119 c 0
 65.5589882832 695.58030412 68.6385445569 703.189212074 70.7228109174 711.005210926 c 0
 77.1206574512 738.657382451 101.085914968 762 131 762 c 2
EndSplineSet
EndChar

StartChar: eight
Encoding: 56 56 27
Width: 569
Flags: HMW
LayerCount: 2
UndoRedoHistory
Layer: 1
Undoes
UndoOperation
Index: 0
Type: 1
WasModified: 0
WasOrder2: 0
Layer: 2
Width: 569
VWidth: 1000
LBearingChange: 0
UnicodeEnc: 0
InstructionsLength: 0
SplineSet
415 405 m 1xf2
 461 405 514 352 490 246 c 2
 471 165 l 2
 450 74 365 0 280 0 c 2
 153 0 l 2
 68 0 17 74 38 165 c 2
 57 246 l 2xf2
 81 352 159 405 205 405 c 1
 160 417 131 465 150 548 c 2
 151 554 l 2
 174 655 270 737 364 737 c 2
 410 737 l 2
 504 737 561 655 538 554 c 2
 537 548 l 2xec
 518 465 465 417 415 405 c 1xf2
208 548 m 2xec
 193 482 231 428 292 428 c 2
 339 428 l 2
 400 428 463 482 478 548 c 2
 479 554 l 2
 494 620 457 674 396 674 c 2
 349 674 l 2
 288 674 225 620 210 554 c 2
 208 548 l 2xec
414 172 m 2xf2
 432 246 l 2
 447 312 408 365 347 365 c 2
 254 365 l 2
 193 365 130 312 115 246 c 2
 98 172 l 2
 84 112 119 63 175 63 c 2
 288 63 l 2
 344 63 400 112 414 172 c 2xf2
EndSplineSet
EndUndoOperation
UndoOperation
Index: 1
Type: 3
WasModified: 0
WasOrder2: 0
Layer: 2
EndUndoOperation
EndUndoes
Redoes
EndRedoes
EndUndoRedoHistory
Fore
SplineSet
146.828366299 413.588720482 m 1
 129.453560556 434.193397462 119.082900632 464.345938052 119.082900632 499.726971228 c 0
 119.082900632 516.198126351 121.167098531 533.879224684 125.46058391 552.852456322 c 0
 125.831962513 555.080727946 126.13193623 557.409720302 126.622940262 559.56586844 c 0
 140.87195162 622.137613969 179.695933854 677.076509302 229.131076901 713.983258365 c 0
 268.686570591 743.514166737 315.681209972 762 364 762 c 2
 410 762 l 2
 461.491174075 762 505.388942735 740.318659462 533.628419712 704.109809231 c 0
 556.102042518 675.293976595 568.09513577 638.350584467 568.09513577 597.892648179 c 0
 568.09513577 582.068013238 566.267927792 565.761677519 562.542368546 549.165258409 c 0
 562.168518379 546.922157411 561.867204184 544.57521739 561.37079658 542.406699962 c 0
 547.111220792 480.114868888 514.757246002 433.970862144 476.245828144 406.461885975 c 1
 502.72275997 383.690342361 520.977525736 345.394821355 520.977525736 295.985947829 c 0
 520.977525736 278.809054443 518.834472334 260.124317532 514.340746209 240.27702715 c 2
 495.361009893 159.364119947 l 2
 482.245343168 102.529564137 447.421998986 52.5365514564 402.738009806 18.8691745208 c 0
 366.988041572 -8.06681928916 324.319851912 -25 280 -25 c 2
 153 -25 l 2
 105.894551207 -25 65.6253340692 -5.20702320937 39.7508115055 27.9612157516 c 0
 19.1722332214 54.3406475004 8.2810141526 88.0803059873 8.2810141526 124.901711968 c 0
 8.2810141526 139.764508401 10.0674696382 155.158574857 13.6592537905 170.72297285 c 2
 32.6161061915 251.535771531 l 2
 47.1626458889 315.782988528 80.1780060196 363.217799972 116.418767225 392.933043797 c 0
 126.345243226 401.072156909 136.54836752 408.001353 146.828366299 413.588720482 c 1
457.334514122 582.806105035 m 0
 457.334514122 601.073870815 451.973682672 616.199779252 443.589019446 627.070879602 c 0
 433.257976232 640.465550857 417.584594139 649 396 649 c 2
 349 649 l 2
 328.520889445 649 305.828440049 640.669631533 285.85680977 625.68042197 c 0
 260.391305087 606.56792184 241.142970371 578.204128091 234.1091206 547.255189098 c 0
 233.448758052 545.274101456 232.788395505 543.293013814 232.128032958 541.311926172 c 0
 230.479851496 533.70398869 229.725467513 526.45220627 229.725467513 519.679388859 c 0
 229.725467513 501.398485323 235.17813247 486.196397434 243.738014375 475.204926561 c 0
 254.303668294 461.63790793 270.336372182 453 292 453 c 2
 339 453 l 2
 359.479110555 453 382.171559951 461.330368467 402.14319023 476.31957803 c 0
 426.929509601 494.922332545 446.469008153 522.951958504 453.465972085 552.884785376 c 0
 455.053048253 562.407242383 457.334514122 573.562289966 457.334514122 582.806105035 c 0
410.21650849 273.791959083 m 0
 410.21650849 291.963684144 404.701129275 306.971796915 396.026509305 317.871363882 c 0
 385.301562296 331.347144786 368.89753942 340 347 340 c 2
 254 340 l 2
 233.396514527 340 210.674211434 331.785332989 190.736038169 317.007354392 c 0
 165.80198957 298.526481965 146.229601558 270.585305314 139.379415478 240.444486561 c 2
 122.366506559 166.387992605 l 2
 120.689085028 159.199043188 119.912917982 152.304914282 119.912917982 146.001635325 c 0
 119.912917982 129.985137633 124.745543662 116.806293584 132.250042534 107.309050364 c 0
 141.50353597 95.5983846262 155.633924079 88 175 88 c 2
 288 88 l 2
 306.312497762 88 326.303478626 95.3395879546 343.927486066 108.657937262 c 0
 365.958765692 125.306833874 383.07432862 150.655148912 389.651577694 177.69495066 c 2
 407.659993226 251.729547851 l 2
 409.418104444 259.522209426 410.21650849 266.917046632 410.21650849 273.791959083 c 0
EndSplineSet
EndChar

StartChar: nine
Encoding: 57 57 28
Width: 569
Flags: HMW
LayerCount: 2
UndoRedoHistory
Layer: 1
Undoes
UndoOperation
Index: 0
Type: 1
WasModified: 0
WasOrder2: 0
Layer: 2
Width: 569
VWidth: 1000
LBearingChange: 0
UnicodeEnc: 0
InstructionsLength: 0
SplineSet
433 737 m 2xf4
 527 737 584 655 561 554 c 2
 478 195 l 2
 466 141 437 92 397 56 c 0
 357 20 309 0 263 0 c 2
 193 0 l 2
 99 0 42 82 65 183 c 2
 66 186 l 2
 68 194 77 202 85 202 c 2
 111 202 l 2
 121 202 126 193 124 183 c 0xec
 109 117 147 63 208 63 c 2
 278 63 l 2
 310 63 342 77 368 102 c 0
 393 126 412 159 420 195 c 2
 457 357 l 1
 457 357 407 302 333 302 c 2
 240 302 l 2
 146 302 89 384 112 485 c 2
 128 554 l 2
 151 655 246 737 340 737 c 2
 433 737 l 2xf4
347 365 m 2
 408 365 472 419 487 485 c 2
 503 554 l 2
 518 620 480 674 419 674 c 2
 326 674 l 2
 265 674 201 620 186 554 c 2
 171 485 l 2
 156 419 193 365 254 365 c 2
 347 365 l 2
EndSplineSet
EndUndoOperation
UndoOperation
Index: 1
Type: 3
WasModified: 0
WasOrder2: 0
Layer: 2
EndUndoOperation
EndUndoes
Redoes
EndRedoes
EndUndoRedoHistory
Fore
SplineSet
433 762 m 2
 484.491174075 762 528.388942735 740.318659462 556.628419712 704.109809231 c 0
 579.102042518 675.293976595 591.09513577 638.350584467 591.09513577 597.892648179 c 0
 591.09513577 581.835696918 589.195562739 565.202949381 585.358737782 548.354283264 c 2
 502.382056863 189.455145313 l 2
 489.229588986 130.374906497 457.616489654 76.9270224073 413.71365063 37.4144672861 c 0
 369.796568749 -2.11090640667 316.305866323 -25 263 -25 c 2
 193 -25 l 2
 141.508825925 -25 97.6110572654 -3.31865946193 69.3715802878 32.8901907689 c 0
 46.8979574818 61.7060234054 34.9048642297 98.6494155331 34.9048642297 139.107351821 c 0
 34.9048642297 155.526619494 37.0182381573 172.736524417 40.8925613885 189.749856867 c 0
 41.2727724102 190.890489932 41.6529834319 192.031122997 42.0331944536 193.171756062 c 0
 45.063190738 204.129954762 51.688190721 212.089320416 59.3775807387 217.908318268 c 0
 65.7403435171 222.723381992 74.0347142831 227 85 227 c 2
 111 227 l 2
 123.257110398 227 135.093778922 220.972419187 142.01439549 211.264473338 c 0
 147.36047481 203.765221209 149.434588481 195.354968794 149.434588481 187.288237344 c 0
 149.434588481 183.956222003 149.084153273 180.545332862 148.379415478 177.444486561 c 0
 146.556396271 169.423202052 145.725467513 161.787513477 145.725467513 154.679388859 c 0
 145.725467513 136.398485323 151.17813247 121.196397434 159.738014375 110.204926561 c 0
 170.303668294 96.6379079296 186.336372182 88 208 88 c 2
 278 88 l 2
 337.643769231 88 383.768698164 147.221372875 395.626466658 200.581331098 c 2
 417.878219279 298.007923652 l 1
 395.320679427 286.576796436 366.540156671 277 333 277 c 2
 240 277 l 2
 188.508825925 277 144.611057265 298.681340538 116.371580288 334.890190769 c 0
 93.8979574818 363.706023405 81.9048642297 400.649415533 81.9048642297 441.107351821 c 0
 81.9048642297 457.164303082 83.8080833108 473.812797514 87.6449082681 490.66146363 c 2
 103.622940262 559.56586844 l 2
 117.852320745 622.051408824 156.309709841 676.997954609 205.489063191 713.939058322 c 0
 244.837164704 743.495410732 291.67405085 762 340 762 c 2
 433 762 l 2
347 390 m 2
 367.490450364 390 390.440802486 398.359430433 410.64985146 413.386552168 c 0
 435.92410175 432.180075621 455.790305072 460.502283857 462.620584522 490.555513439 c 2
 478.644908268 559.66146363 l 2
 480.467927475 567.682748139 481.274532487 575.212486523 481.274532487 582.320611141 c 0
 481.274532487 600.601514677 475.82186753 615.803602566 467.261985625 626.795073439 c 0
 456.696331706 640.36209207 440.663627818 649 419 649 c 2
 326 649 l 2
 305.509549636 649 282.559197514 640.640569567 262.35014854 625.613447832 c 0
 237.106201284 606.842457225 217.257340613 578.565617326 210.404039556 548.552577724 c 2
 195.380490665 479.444252825 l 2
 193.517032922 471.245038757 192.665485878 463.443528882 192.665485878 456.193894965 c 0
 192.665485878 437.926129185 198.026317328 422.800220748 206.410980554 411.929120398 c 0
 216.742023768 398.534449143 232.415405861 390 254 390 c 2
 347 390 l 2
EndSplineSet
EndChar

StartChar: colon
Encoding: 58 58 29
Width: 218
Flags: HMW
LayerCount: 2
UndoRedoHistory
Layer: 1
Undoes
UndoOperation
Index: 0
Type: 1
WasModified: 0
WasOrder2: 0
Layer: 2
Width: 218
VWidth: 1000
LBearingChange: 0
UnicodeEnc: 0
InstructionsLength: 0
SplineSet
80 170 m 0
 58 170 43 189 49 214 c 0
 55 238 78 258 100 258 c 0
 122 258 137 238 131 214 c 0
 125 189 102 170 80 170 c 0
41 1 m 0
 19 1 4 20 10 45 c 0
 16 69 39 89 61 89 c 0
 83 89 98 69 92 45 c 0
 86 20 63 1 41 1 c 0
EndSplineSet
EndUndoOperation
UndoOperation
Index: 1
Type: 3
WasModified: 0
WasOrder2: 0
Layer: 2
EndUndoOperation
EndUndoes
Redoes
EndRedoes
EndUndoRedoHistory
Fore
SplineSet
80 145 m 0
 62.6790363401 145 46.3851374835 152.351266764 35.6208037747 165.542360762 c 0
 27.0808562354 176.007592868 22.6702410706 189.254912136 22.6702410706 203.171603915 c 0
 22.6702410706 208.780133152 23.354589133 214.515180657 24.7443945165 220.074402191 c 0
 29.6285859798 239.611168044 41.5424341973 256.123468416 56.5976277399 267.506194568 c 0
 68.6341624994 276.606614208 83.4134595594 283 100 283 c 0
 132.974248726 283 157.329758929 256.106655651 157.329758929 224.502715188 c 0
 157.329758929 219.015177987 156.640818098 213.505045507 155.284317481 208.040848514 c 0
 150.445579868 188.003497756 138.416778387 171.284861222 123.204805696 160.016733279 c 0
 111.018628034 150.989935011 96.2462883174 145 80 145 c 0
41 -24 m 0
 23.6790363401 -24 7.38513748348 -16.6487332363 -3.37919622533 -3.45763923798 c 0
 -11.9191437646 7.00759286824 -16.3297589294 20.2549121358 -16.3297589294 34.171603915 c 0
 -16.3297589294 39.7801331518 -15.645410867 45.5151806571 -14.2556054835 51.0744021909 c 0
 -9.37141402024 70.6111680442 2.54243419731 87.123468416 17.5976277399 98.5061945682 c 0
 29.6341624994 107.606614208 44.4134595594 114 61 114 c 0
 93.9742487262 114 118.329758929 87.1066556505 118.329758929 55.5027151878 c 0
 118.329758929 50.0151779872 117.640818098 44.5050455072 116.284317481 39.0408485144 c 0
 111.445579868 19.0034977556 99.4167783867 2.28486122202 84.2048056957 -8.9832667209 c 0
 72.0186280336 -18.0100649891 57.2462883174 -24 41 -24 c 0
EndSplineSet
EndChar

StartChar: semicolon
Encoding: 59 59 30
Width: 218
Flags: HMW
LayerCount: 2
UndoRedoHistory
Layer: 1
Undoes
UndoOperation
Index: 0
Type: 1
WasModified: 0
WasOrder2: 0
Layer: 2
Width: 218
VWidth: 1000
LBearingChange: 0
UnicodeEnc: 0
InstructionsLength: 0
SplineSet
89 32 m 0
 84 10 75 -19 38 -62 c 1
 27 -53 l 1
 27 -53 43 -27 49 0 c 1
 46 0 44 0 41 0 c 0
 19 0 4 19 10 44 c 0
 16 68 39 88 61 88 c 0
 83 88 97 67 89 32 c 0
80 170 m 0
 58 170 43 189 49 214 c 0
 55 238 78 258 100 258 c 0
 122 258 137 238 131 214 c 0
 125 189 102 170 80 170 c 0
EndSplineSet
EndUndoOperation
UndoOperation
Index: 1
Type: 3
WasModified: 0
WasOrder2: 0
Layer: 2
EndUndoOperation
EndUndoes
Redoes
EndRedoes
EndUndoRedoHistory
Fore
SplineSet
-16.3297589294 33.171603915 m 0
 -16.3297589294 38.7801331518 -15.645410867 44.5151806571 -14.2556054835 50.0744021909 c 0
 -9.37141402024 69.6111680442 2.54243419731 86.123468416 17.5976277399 97.5061945682 c 0
 29.6341624994 106.606614208 44.4134595594 113 61 113 c 0
 78.3118945002 113 94.9696040586 104.800519621 105.072849008 90.1743993746 c 0
 112.939548812 78.7860486176 116.274246594 65.1294661982 116.274246594 50.7174436906 c 0
 116.274246594 42.873807425 115.293901628 34.8203634677 113.379415478 26.4444865612 c 0
 107.838579716 2.0648092105 96.2732799928 -32.5996289534 56.9559941847 -78.2926908383 c 2
 41.043030734 -96.7861348486 l 1
 -5.74274758396 -58.5068616794 l 1
 5.69274350941 -39.9241886465 l 1
 5.69274350941 -39.9241886465 10.8996634588 -31.3518781971 16.0852854994 -19.5521800028 c 1
 8.60912140828 -16.0681701667 1.93987727665 -10.9758688328 -3.37919622533 -4.45763923798 c 0
 -11.9191437646 6.00759286824 -16.3297589294 19.2549121358 -16.3297589294 33.171603915 c 0
80 145 m 0
 62.6790363401 145 46.3851374835 152.351266764 35.6208037747 165.542360762 c 0
 27.0808562354 176.007592868 22.6702410706 189.254912136 22.6702410706 203.171603915 c 0
 22.6702410706 208.780133152 23.354589133 214.515180657 24.7443945165 220.074402191 c 0
 29.6285859798 239.611168044 41.5424341973 256.123468416 56.5976277399 267.506194568 c 0
 68.6341624994 276.606614208 83.4134595594 283 100 283 c 0
 132.974248726 283 157.329758929 256.106655651 157.329758929 224.502715188 c 0
 157.329758929 219.015177987 156.640818098 213.505045507 155.284317481 208.040848514 c 0
 150.445579868 188.003497756 138.416778387 171.284861222 123.204805696 160.016733279 c 0
 111.018628034 150.989935011 96.2462883174 145 80 145 c 0
EndSplineSet
EndChar

StartChar: less
Encoding: 60 60 31
Width: 610
Flags: HMW
LayerCount: 2
UndoRedoHistory
Layer: 1
Undoes
UndoOperation
Index: 0
Type: 1
WasModified: 0
WasOrder2: 0
Layer: 2
Width: 610
VWidth: 1000
LBearingChange: 0
UnicodeEnc: 0
InstructionsLength: 0
SplineSet
439 20 m 2
 94 335 l 2
 77 352 85 385 110 402 c 2
 600 717 l 2
 607 722 615 720 618 714 c 2
 630 686 l 2
 632 679 629 670 622 666 c 2
 160 368 l 1
 484 71 l 2
 490 67 488 58 483 51 c 2
 458 23 l 2
 452 17 443 15 439 20 c 2
EndSplineSet
EndUndoOperation
UndoOperation
Index: 1
Type: 3
WasModified: 0
WasOrder2: 0
Layer: 2
EndUndoOperation
EndUndoes
Redoes
EndRedoes
EndUndoRedoHistory
Fore
SplineSet
512.700189154 63.542895557 m 0
 512.700189154 51.2589157274 507.805995666 42.7210719042 502.562779655 35.3805694884 c 0
 493.590265174 25.3719675879 484.694276959 15.2868394222 475.674203125 5.325796875 c 0
 468.029359771 -2.31904647897 458.088190268 -7.83385876105 445.480586864 -7.83385876105 c 0
 437.923083106 -7.83385876105 428.352477329 -5.12063504954 421.239993814 2.36896152684 c 0
 306.274536385 107.36051486 191.260671319 212.303660557 76.325796875 317.325796875 c 0
 64.8200111722 328.831582578 59.9867060786 343.901675906 59.9867060786 358.148648251 c 0
 59.9867060786 383.245118994 73.6810786692 407.533312174 96.2347793505 422.869828637 c 2
 586.105797212 737.786911549 l 2
 592.595279631 742.250336933 600.251792609 744.833858761 608.283848553 744.833858761 c 0
 621.526064861 744.833858761 635.30361815 737.098933087 640.990353911 723.829882979 c 0
 645.196926967 714.014545848 649.403500023 704.199208717 653.610073079 694.383871586 c 0
 654.760276598 690.35815927 655.608250072 685.777462006 655.608250072 681.521928396 c 0
 655.608250072 667.917171267 649.350466269 653.194763881 635.076373525 644.686404606 c 2
 200.760977876 364.543573646 l 1
 499.98470946 90.2551530275 l 2
 509.061063526 83.0429150338 512.700189154 72.02402022 512.700189154 63.542895557 c 0
EndSplineSet
EndChar

StartChar: equal
Encoding: 61 61 32
Width: 495
Flags: HMW
LayerCount: 2
UndoRedoHistory
Layer: 1
Undoes
UndoOperation
Index: 0
Type: 1
WasModified: 0
WasOrder2: 0
Layer: 2
Width: 495
VWidth: 1000
LBearingChange: 0
UnicodeEnc: 0
InstructionsLength: 0
SplineSet
399 230 m 2
 406 230 411 224 409 216 c 2
 401 182 l 2
 399 174 392 167 385 167 c 2
 52 167 l 2
 45 167 40 174 42 182 c 2
 50 216 l 2
 52 224 59 230 66 230 c 2
 399 230 l 2
438 399 m 2
 445 399 450 393 448 385 c 2
 440 351 l 2
 438 343 431 336 424 336 c 2
 91 336 l 2
 84 336 79 343 81 351 c 2
 89 385 l 2
 91 393 98 399 105 399 c 2
 438 399 l 2
EndSplineSet
EndUndoOperation
UndoOperation
Index: 1
Type: 3
WasModified: 0
WasOrder2: 0
Layer: 2
EndUndoOperation
EndUndoes
Redoes
EndRedoes
EndUndoRedoHistory
Fore
SplineSet
399 255 m 2
 407.113367706 255 415.210358098 252.315654874 421.733287942 246.912405114 c 0
 429.994869639 240.068948203 434.444393755 229.790471635 434.444393755 219.473430969 c 0
 434.444393755 216.250442793 434.039340763 213.128263324 433.306351646 210.130824597 c 0
 430.624520217 198.733041025 428.094836806 187.282523098 425.255605484 175.925597809 c 0
 422.799054102 166.099392282 417.493314496 157.783598882 409.934240179 151.450739907 c 0
 403.941899606 146.430462794 395.657191056 142 385 142 c 2
 52 142 l 2
 30.3918536542 142 16.555606245 160.571968655 16.555606245 178.465051625 c 0
 16.555606245 181.653943633 16.9437545688 184.801120885 17.6934116981 187.868169614 c 0
 20.3753219863 199.266288339 22.905079689 210.717142881 25.7443945165 222.074402191 c 0
 30.0879873887 239.44877368 45.0287846722 255 66 255 c 2
 399 255 l 2
438 424 m 2
 446.113367706 424 454.210358098 421.315654874 460.733287942 415.912405114 c 0
 468.994869639 409.068948203 473.444393755 398.790471635 473.444393755 388.473430969 c 0
 473.444393755 385.250442793 473.039340763 382.128263324 472.306351646 379.130824597 c 0
 469.624520217 367.733041025 467.094836806 356.282523098 464.255605484 344.925597809 c 0
 461.799054102 335.099392282 456.493314496 326.783598882 448.934240179 320.450739907 c 0
 442.941899606 315.430462794 434.657191056 311 424 311 c 2
 91 311 l 2
 69.3918536542 311 55.555606245 329.571968655 55.555606245 347.465051625 c 0
 55.555606245 350.653943633 55.9437545688 353.801120885 56.6934116981 356.868169614 c 0
 59.3753219863 368.266288339 61.905079689 379.717142881 64.7443945165 391.074402191 c 0
 69.0879873887 408.44877368 84.0287846722 424 105 424 c 2
 438 424 l 2
EndSplineSet
EndChar

StartChar: greater
Encoding: 62 62 33
Width: 610
Flags: HMW
LayerCount: 2
UndoRedoHistory
Layer: 1
Undoes
UndoOperation
Index: 0
Type: 1
WasModified: 0
WasOrder2: 0
Layer: 2
Width: 610
VWidth: 1000
LBearingChange: 0
UnicodeEnc: 0
InstructionsLength: 0
SplineSet
535 335 m 2
 45 20 l 2
 38 15 30 17 27 23 c 2
 15 51 l 2
 13 58 16 67 23 71 c 2
 484 368 l 1
 160 666 l 2
 154 670 156 679 161 686 c 2
 186 714 l 2
 192 720 202 722 206 717 c 2
 550 402 l 2
 567 385 560 352 535 335 c 2
EndSplineSet
EndUndoOperation
UndoOperation
Index: 1
Type: 3
WasModified: 0
WasOrder2: 0
Layer: 2
EndUndoOperation
EndUndoes
Redoes
EndRedoes
EndUndoRedoHistory
Fore
SplineSet
584.317247836 378.076221796 m 0
 584.317247836 353.463984467 571.190916071 329.379644249 548.765220649 314.130171363 c 2
 58.8942027876 -0.78691154857 l 2
 52.4047203691 -5.25033693314 44.7482073908 -7.83385876105 36.7161514472 -7.83385876105 c 0
 23.4739351393 -7.83385876105 9.69638184987 -0.0989330872806 4.00964608907 13.1701170212 c 0
 -0.196926967009 22.9854541521 -4.40350002309 32.800791283 -8.61007307917 42.6161284138 c 0
 -9.76027659812 46.6418407301 -10.6082500724 51.2225379937 -10.6082500724 55.4780716042 c 0
 -10.6082500724 69.0850720187 -4.34840240927 83.8100913002 9.93068808772 92.3178037134 c 2
 443.272698709 371.49909906 l 1
 143.992594461 646.762898646 l 2
 134.932869375 653.97546141 131.299810846 664.983052534 131.299810846 673.457104443 c 0
 131.299810846 685.741084273 136.194004334 694.278928096 141.437220345 701.619430512 c 0
 150.409734826 711.628032412 159.305723041 721.713160578 168.325796875 731.674203125 c 0
 176.581343672 739.929749922 186.965293971 744.833858761 199.182203981 744.833858761 c 0
 206.412472674 744.833858761 216.270264539 742.598169285 223.813135742 734.580000804 c 0
 338.427923491 629.605833533 453.088080941 524.677035962 567.674203125 419.674203125 c 0
 579.36526942 407.98313683 584.317247836 392.656620899 584.317247836 378.076221796 c 0
EndSplineSet
EndChar

StartChar: question
Encoding: 63 63 34
Width: 535
Flags: HMW
LayerCount: 2
UndoRedoHistory
Layer: 1
Undoes
UndoOperation
Index: 0
Type: 1
WasModified: 0
WasOrder2: 0
Layer: 2
Width: 535
VWidth: 1000
LBearingChange: 0
UnicodeEnc: 0
InstructionsLength: 0
SplineSet
181 0 m 0xfa
 148 0 129 28 137 63 c 0
 145 98 177 126 210 126 c 0
 243 126 262 98 254 63 c 0
 246 28 214 0 181 0 c 0xfa
204 224 m 2xf6
 234 355 l 2
 238 371 253 384 268 384 c 2
 291 384 l 2
 327 384 367 400 400 429 c 0
 431 456 454 493 462 532 c 0
 471 570 464 605 445 632 c 0
 426 659 396 674 360 674 c 2
 349 674 l 2
 275 674 199 609 181 529 c 2
 178 517 l 2
 174 500 159 486 142 485 c 0
 126 484 115 499 119 516 c 2
 122 529 l 2
 149 644 257 737 364 737 c 2
 371 737 l 2
 479 737 546 645 521 532 c 0
 500 437 422 353 332 329 c 2
 285 318 l 1
 263 224 l 2
 261 215 252 208 244 208 c 2
 214 208 l 2
 207 208 202 215 204 224 c 2xf6
EndSplineSet
EndUndoOperation
UndoOperation
Index: 1
Type: 3
WasModified: 0
WasOrder2: 0
Layer: 2
EndUndoOperation
EndUndoes
Redoes
EndRedoes
EndUndoRedoHistory
Fore
SplineSet
181 -25 m 0
 158.640890278 -25 138.364818402 -15.5854186005 125.392873654 0.995100963196 c 0
 115.152244506 14.0844992934 110.177514793 30.3762703572 110.177514793 47.4196631771 c 0
 110.177514793 54.4161798895 111.005527497 61.4897238317 112.627393218 68.5853863597 c 0
 122.942955983 113.71597346 163.258458606 151 210 151 c 0
 232.359109722 151 252.635181598 141.5854186 265.607126346 125.004899037 c 0
 275.847755494 111.915500707 280.822485207 95.6237296428 280.822485207 78.5803368229 c 0
 280.822485207 71.5838201105 279.994472503 64.5102761683 278.372606782 57.4146136403 c 0
 268.057044017 12.2840265398 227.741541394 -25 181 -25 c 0
268 409 m 2
 291 409 l 2
 319.683283152 409 354.60254279 422.380573096 383.593070388 447.857097349 c 0
 410.889628223 471.631518689 430.778769517 504.229308583 437.585037581 537.409865393 c 0
 439.796731945 546.748130486 440.89091679 555.881110121 440.89091679 564.385473216 c 0
 440.89091679 584.766373252 434.987966685 602.790660031 424.541048503 617.636280605 c 0
 410.478881238 637.619360403 388.841408794 649 360 649 c 2
 349 649 l 2
 322.694408873 649 294.233572247 638.471576801 269.385942262 619.852649737 c 0
 238.199940306 596.484228031 213.908769104 561.35246062 205.326800367 523.210377343 c 0
 204.315370201 519.164656678 203.303940035 515.118936013 202.292509868 511.073215348 c 0
 195.848177376 484.036809745 172.163168151 459.952688745 140.494292942 459.952688745 c 0
 112.088918461 459.952688745 93.1745591177 484.077800842 93.1745591177 509.023147754 c 0
 93.1745591177 518.316397207 95.8271257514 526.784153373 97.6604074039 534.727888636 c 0
 114.136963148 604.90581125 157.568215395 666.666111154 212.978409036 708.147284796 c 0
 257.309523014 741.334438926 309.918298633 762 364 762 c 2
 371 762 l 2
 429.476506575 762 479.293541223 737.842894018 511.557663969 697.507672193 c 0
 537.267725282 665.36605674 551.230851522 623.951544544 551.230851522 578.478162848 c 0
 551.230851522 561.610886354 549.319420612 544.251415565 545.411569272 526.587927507 c 0
 522.381954975 422.406339022 438.26141989 331.457799975 338.081701366 304.743208368 c 0
 327.324398162 302.225541661 316.567094958 299.707874954 305.809791754 297.190208246 c 1
 287.369052584 218.397959066 l 2
 284.662385004 206.427847887 277.464897745 197.368702167 269.090889279 191.371101509 c 0
 262.334473632 186.532047059 254.052367408 183 244 183 c 2
 214 183 l 2
 191.822146129 183 178.555606245 202.542069725 178.555606245 220.077010809 c 0
 178.555606245 223.261968905 178.951419084 226.543206412 179.629687451 229.595414064 c 2
 209.739629298 361.075493462 l 2
 213.484136223 376.05352116 222.449903923 388.569647318 234.027025501 397.216275176 c 0
 243.288330561 404.133284537 254.818087855 409 268 409 c 2
EndSplineSet
EndChar

StartChar: at
Encoding: 64 64 35
Width: 793
Flags: HMW
LayerCount: 2
UndoRedoHistory
Layer: 1
Undoes
UndoOperation
Index: 0
Type: 1
WasModified: 0
WasOrder2: 0
Layer: 2
Width: 793
VWidth: 1000
LBearingChange: 0
UnicodeEnc: 0
InstructionsLength: 0
SplineSet
340 0 m 2
 294 0 252 10 214 29 c 0
 178 48 147 74 124 108 c 0
 100 142 86 182 79 226 c 0
 72 271 74 319 86 369 c 0
 109 466 167 557 248 625 c 0
 287 658 330 684 375 702 c 0
 421 721 468 731 514 731 c 2
 621 731 l 2
 734 731 802 632 774 510 c 2
 704 205 l 2
 700 189 686 176 671 176 c 2
 381 176 l 2
 334 176 294 196 269 233 c 0
 245 270 237 318 250 369 c 0
 262 419 292 465 334 500 c 0
 376 535 426 554 472 554 c 2
 597 554 l 2
 611 554 618 543 615 529 c 2
 542 214 l 1
 672 214 l 1
 740 510 l 2
 763 611 706 693 612 693 c 2
 500 693 l 2
 459 693 416 684 375 667 c 0
 334 650 296 626 261 595 c 0
 226 564 195 529 171 489 c 0
 146 448 128 405 119 360 c 0
 100 273 114 192 159 131 c 0
 203 71 273 38 354 38 c 2
 590 38 l 2
 606 38 615 24 611 6 c 1
 611 6 l 1
 610 3 607 0 604 0 c 2
 340 0 l 2
459 516 m 2
 382 516 303 449 284 365 c 0
 265 282 313 214 390 214 c 2
 507 214 l 1
 577 516 l 1
 459 516 l 2
EndSplineSet
EndUndoOperation
UndoOperation
Index: 1
Type: 3
WasModified: 0
WasOrder2: 0
Layer: 2
EndUndoOperation
EndUndoes
Redoes
EndRedoes
EndUndoRedoHistory
Fore
SplineSet
340 -25 m 2
 290.169787579 -25 244.125969123 -14.0162684528 202.598988876 6.74722167062 c 0
 163.493493013 27.386233376 129.042768486 56.0116587605 103.41823402 93.810437508 c 0
 76.7735463457 131.637831339 61.7179122 175.492431939 54.2978392128 222.132897483 c 0
 51.4322671255 240.55443233 49.9736525422 259.422014911 49.9736525422 278.662315966 c 0
 49.9736525422 309.944324573 53.8127793005 342.030338439 61.6729873726 374.781205406 c 0
 86.019324968 477.459237874 146.971617384 572.82204221 231.865844219 644.091269677 c 0
 272.81504347 678.74059212 318.058170742 706.136748852 365.601008465 725.170645332 c 0
 414.22825753 745.238294264 464.350816426 755.999998612 514 756 c 2
 621 756 l 2
 681.347213839 756 732.379051306 730.60981067 765.17841951 688.328840004 c 0
 791.295560261 654.66178718 805.293150484 611.38086438 805.293150484 563.759961738 c 0
 805.293150484 544.537311257 803.020023819 524.664029639 798.367675278 504.393082425 c 2
 728.260144632 198.924556037 l 2
 722.046413327 174.069630818 700.447384115 151 671 151 c 2
 381 151 l 2
 326.555036224 151 278.100354556 174.880425605 248.138759431 219.22358639 c 0
 229.102542636 248.571087282 218.807159556 283.505793788 218.807159556 320.955068867 c 0
 218.807159556 338.625091437 221.08447222 356.737792028 225.729396482 375.016370392 c 0
 239.139120592 430.712839037 272.290354491 481.11262069 318.010718717 519.212924202 c 0
 364.030961212 557.563126282 419.146329894 579 472 579 c 2
 597 579 l 2
 609.871656502 579 623.006213534 573.701485002 631.446949892 562.981414932 c 0
 638.019091984 554.634533718 640.685482953 544.704256026 640.685482953 535.207397282 c 0
 640.685482953 531.298249728 640.311874008 527.467116481 639.4490293 523.743882469 c 2
 573.460764474 239 l 1
 652.087494776 239 l 1
 715.622940262 515.56586844 l 2
 718.675952806 528.972575702 720.09513577 541.822566516 720.09513577 553.892648179 c 0
 720.09513577 584.396090586 711.081070928 610.293286934 696.180679725 629.39867029 c 0
 677.702639192 653.091340051 649.309677973 668 612 668 c 2
 500 668 l 2
 462.705796788 668 422.761192354 659.73537861 384.558935873 643.895418605 c 0
 346.192956163 627.98757336 310.619433422 605.558526666 277.564370948 576.281185618 c 0
 244.070914545 546.615552803 214.776888905 513.371747021 192.360748073 476.011512301 c 0
 168.574450007 437.001983473 151.841897039 396.713841862 143.471774068 354.863227007 c 0
 138.303872206 331.199676377 135.747103603 308.090252099 135.747103603 286.057813749 c 0
 135.747103603 232.346113664 150.727281926 184.321509799 179.172754578 145.762091315 c 0
 217.999432476 92.8166214537 279.859524354 63 354 63 c 2
 590 63 l 2
 604.534031047 63 618.543626021 56.4453486996 627.24268723 44.8300669861 c 0
 634.034059963 35.7619956597 636.946178551 24.9928896624 636.946178551 14.278712241 c 0
 636.946178551 -0.982773457379 632.204754113 -11.0254949081 623.378580088 -18.0529699612 c 0
 619.132310573 -21.4338859732 612.866553768 -25 604 -25 c 2
 340 -25 l 2
459 491 m 2
 431.300485574 491 401.508545763 480.042222858 375.52776036 460.642207927 c 0
 343.04631001 436.388105828 317.486185724 399.705937527 308.385064338 359.469400872 c 0
 305.970626143 348.922118232 304.843515902 338.766215433 304.843515902 329.304829134 c 0
 304.843515902 305.050627215 312.11090656 284.530500571 323.889452672 269.460725051 c 0
 338.480489385 250.792576556 360.749051799 239 390 239 c 2
 487.127350367 239 l 1
 545.537946394 491 l 1
 459 491 l 2
EndSplineSet
EndChar

StartChar: A
Encoding: 65 65 36
Width: 569
Flags: HMW
LayerCount: 2
UndoRedoHistory
Layer: 1
Undoes
UndoOperation
Index: 0
Type: 1
WasModified: 0
WasOrder2: 0
Layer: 2
Width: 569
VWidth: 1000
LBearingChange: 0
UnicodeEnc: 0
InstructionsLength: 0
SplineSet
405 0 m 2
 388 0 378 14 382 31 c 2
 442 290 l 1
 126 290 l 1
 66 31 l 2
 62 14 46 0 29 0 c 2
 15 0 l 2
 7 0 2 7 4 16 c 2
 134 579 l 2
 154 666 235 737 316 737 c 2
 458 737 l 2
 539 737 587 666 567 579 c 2
 437 16 l 2
 435 7 426 0 418 0 c 2
 405 0 l 2
302 674 m 2
 254 674 204 632 192 579 c 2
 140 353 l 1
 456 353 l 1
 508 579 l 2
 520 632 491 674 443 674 c 2
 302 674 l 2
EndSplineSet
EndUndoOperation
UndoOperation
Index: 1
Type: 3
WasModified: 0
WasOrder2: 0
Layer: 2
EndUndoOperation
EndUndoes
Redoes
EndRedoes
EndUndoRedoHistory
Fore
SplineSet
405 -25 m 2
 390.313583688 -25 376.197153975 -18.8927464196 366.941865656 -7.56118971071 c 0
 359.643629902 1.37428258081 356.121270422 12.4506219642 356.121270422 23.6676662704 c 0
 356.121270422 28.080669689 356.633831908 32.36431224 357.643718143 36.6563287378 c 2
 410.541865926 265 l 1
 145.8751112 265 l 1
 90.336840726 25.2604031885 l 2
 83.9012222942 -2.09097514656 59.3741903786 -25 29 -25 c 2
 15 -25 l 2
 4.10765429923 -25 -6.76917887168 -20.0345538723 -13.6681063166 -11.1490098282 c 0
 -19.069936474 -4.19166752168 -21.4410117168 4.07674431623 -21.4410117168 12.1212991189 c 0
 -21.4410117168 15.3162407463 -21.101506622 18.4289608277 -20.406406055 21.4392806986 c 2
 109.634313454 584.615575657 l 2
 122.183187406 639.203177346 155.493691707 687.27270712 198.277221998 719.691668659 c 0
 232.504944358 745.62751844 273.41214166 762 316 762 c 2
 458 762 l 2
 503.221535591 762 541.843759958 742.848726763 566.567592604 710.837777244 c 0
 586.218567297 685.394862793 596.529920728 652.951759285 596.529920728 617.634276952 c 0
 596.529920728 603.246836588 594.820520303 588.413003227 591.360285866 573.360983425 c 2
 461.378786128 10.4411037904 l 2
 458.6796732 -1.55038570311 451.474955819 -10.6240940771 443.090889279 -16.6288984913 c 0
 436.334473632 -21.467952941 428.052367408 -25 418 -25 c 2
 405 -25 l 2
302 649 m 2
 287.217419157 649 270.284225957 642.984025332 255.244604467 631.775250826 c 0
 236.440778607 617.761078723 221.586445338 596.442164392 216.383893809 573.464228469 c 2
 171.409957742 378 l 1
 436.094446014 378 l 1
 483.63538816 584.620248558 l 2
 485.081158021 591.005732111 485.707506846 596.912803747 485.707506846 602.3830391 c 0
 485.707506846 615.941210614 481.791415062 626.634560751 476.066767502 634.04726989 c 0
 469.070063007 643.107135116 458.503649548 649 443 649 c 2
 302 649 l 2
EndSplineSet
EndChar

StartChar: B
Encoding: 66 66 37
Width: 580
Flags: HMW
LayerCount: 2
UndoRedoHistory
Layer: 1
Undoes
UndoOperation
Index: 0
Type: 1
WasModified: 0
WasOrder2: 0
Layer: 2
Width: 580
VWidth: 1000
LBearingChange: 0
UnicodeEnc: 0
InstructionsLength: 0
SplineSet
446 397 m 1xf4
 504 364 534 291 515 208 c 0xf4
 488 93 380 0 273 0 c 2
 29 0 l 2
 13 0 3 14 7 31 c 2
 163 706 l 2
 167 723 183 737 199 737 c 2
 414 737 l 2
 463 737 505 721 532 692 c 0
 562 658 572 609 559 554 c 0xf8
 544 491 501 434 446 397 c 1xf4
214 674 m 1
 155 416 l 1
 340 416 l 2
 412 416 483 478 501 554 c 0xf8
 519 631 471 674 399 674 c 2
 214 674 l 1
288 63 m 2
 362 63 438 128 456 208 c 0
 474 288 429 353 355 353 c 2
 140 353 l 1
 73 63 l 1
 288 63 l 2
EndSplineSet
EndUndoOperation
UndoOperation
Index: 1
Type: 3
WasModified: 0
WasOrder2: 0
Layer: 2
EndUndoOperation
EndUndoes
Redoes
EndRedoes
EndUndoRedoHistory
Fore
SplineSet
545.68896469 256.985226147 m 0
 545.68896469 239.251710295 543.590667223 220.842595258 539.339592596 202.272111364 c 0
 522.863036852 132.09418875 479.431784605 70.3338888459 424.021590964 28.8527152036 c 0
 379.690476986 -4.3344389256 327.081701367 -25 273 -25 c 2
 29 -25 l 2
 14.336142612 -25 0.487183594845 -18.5326437457 -8.42425444571 -7.28816222338 c 0
 -15.4541642307 1.5822008226 -18.8820234337 12.4852609175 -18.8820234337 23.6267787354 c 0
 -18.8820234337 28.0403556348 -18.3749653671 32.3267145056 -17.3591975392 36.6437277743 c 2
 138.663159274 711.739596811 l 2
 142.358201978 727.443528304 151.668358659 740.583035671 163.694680588 749.646350748 c 0
 173.31865205 756.899198806 185.313231685 762 199 762 c 2
 414 762 l 2
 468.508088416 762 518.000824502 744.565429591 550.527718033 708.781014538 c 0
 576.850010035 679.822582916 589.580527639 641.402704296 589.580527639 599.814881046 c 0
 589.580527639 583.052170051 587.472974086 565.759518512 583.321682355 548.19636119 c 0
 569.337524868 489.462899746 534.017024584 436.551278735 487.762109832 397.312530371 c 1
 524.726429171 363.455439319 545.68896469 313.049896392 545.68896469 256.985226147 c 0
340 441 m 2
 365.52187852 441 392.425895394 450.960621021 415.863247248 468.538634911 c 0
 445.165027383 490.514970012 468.140922535 523.7569352 476.671517772 559.775003977 c 0
 478.858802548 569.131722186 479.795918367 577.476798047 479.795918367 584.89212828 c 0
 479.795918367 609.276122928 470.490706074 624.51097797 454.760861749 634.901663707 c 0
 441.764679691 643.486570255 422.674826541 649 399 649 c 2
 233.932830936 649 l 1
 186.366939463 441 l 1
 340 441 l 2
288 88 m 2
 314.305591127 88 342.766427753 98.5284231987 367.614057738 117.147350263 c 0
 398.681575101 140.426988612 423.068008025 175.54432662 431.608748285 213.503172222 c 0
 433.904296033 223.705606655 434.962486021 233.44961202 434.962486021 242.55862756 c 0
 434.962486021 265.764483743 428.138776007 285.216991513 417.156159216 299.390267306 c 0
 403.576714223 316.914799269 382.834331946 328 355 328 c 2
 159.887231265 328 l 1
 104.438955403 88 l 1
 288 88 l 2
EndSplineSet
EndChar

StartChar: C
Encoding: 67 67 38
Width: 547
Flags: HMW
LayerCount: 2
UndoRedoHistory
Layer: 1
Undoes
UndoOperation
Index: 0
Type: 1
WasModified: 0
WasOrder2: 0
Layer: 2
Width: 547
VWidth: 1000
LBearingChange: 0
UnicodeEnc: 0
InstructionsLength: 0
SplineSet
146 0 m 2
 65 0 16 70 36 157 c 2
 134 579 l 2
 154 666 235 737 316 737 c 2
 458 737 l 2
 539 737 587 666 567 579 c 2
 564 564 l 2
 562 555 553 548 545 548 c 2
 516 548 l 2
 508 548 503 555 505 564 c 2
 508 579 l 2
 520 632 491 674 443 674 c 2
 302 674 l 2
 254 674 204 632 192 579 c 2
 95 157 l 2
 83 105 113 63 161 63 c 2
 302 63 l 2
 350 63 399 105 411 157 c 2
 420 195 l 2
 424 213 440 227 457 227 c 2
 471 227 l 2
 479 227 484 220 482 211 c 2
 470 157 l 2
 450 70 368 0 287 0 c 2
 146 0 l 2
EndSplineSet
EndUndoOperation
UndoOperation
Index: 1
Type: 3
WasModified: 0
WasOrder2: 0
Layer: 2
EndUndoOperation
EndUndoes
Redoes
EndRedoes
EndUndoRedoHistory
Fore
SplineSet
146 -25 m 2
 100.796247269 -25 61.9634066047 -6.12126278318 36.9537956489 25.7337560549 c 0
 17.0640277242 51.0675740437 6.53241743718 83.5025765154 6.53241743718 118.923572521 c 0
 6.53241743718 133.123515179 8.22804111624 147.798017138 11.6467362249 162.669340861 c 2
 109.634313454 584.615575657 l 2
 122.183187406 639.203177346 155.493691707 687.27270712 198.277221998 719.691668659 c 0
 232.504944358 745.62751844 273.41214166 762 316 762 c 2
 458 762 l 2
 503.221535591 762 541.843759958 742.848726763 566.567592604 710.837777244 c 0
 586.218567297 685.394862793 596.529920728 652.951759285 596.529920728 617.634276952 c 0
 596.529920728 603.360335591 594.852699814 588.670088961 591.44724952 573.740604266 c 0
 590.43615503 568.685131817 589.522621241 563.587590258 588.405581135 558.56090978 c 0
 585.727609148 546.510035839 578.502854739 537.395887582 570.090889279 531.371101509 c 0
 563.334473632 526.532047059 555.052367408 523 545 523 c 2
 516 523 l 2
 505.107654299 523 494.230821128 527.965446128 487.331893683 536.850990172 c 0
 481.930063526 543.808332478 479.558988283 552.076744316 479.558988283 560.121299119 c 0
 479.558988283 568.874915792 481.87230803 576.833996318 483.616106191 584.535771531 c 0
 485.061876052 590.921255083 485.707506846 596.912803747 485.707506846 602.3830391 c 0
 485.707506846 615.941210614 481.791415062 626.634560751 476.066767502 634.04726989 c 0
 469.070063007 643.107135116 458.503649548 649 443 649 c 2
 302 649 l 2
 287.217419157 649 270.284225957 642.984025332 255.244604467 631.775250826 c 0
 236.440778607 617.761078723 221.568381903 596.362985952 216.365830373 573.385050029 c 2
 119.361009893 151.364119947 l 2
 117.972643653 145.347866237 117.353929699 139.687565471 117.353929699 134.496155709 c 0
 117.353929699 121.295517301 121.298537885 110.699315732 127.190524784 103.213415341 c 0
 134.424191 94.0228815373 145.416961016 88 161 88 c 2
 302 88 l 2
 316.770152807 88 333.46204549 93.9886881438 348.285190786 105.097202757 c 0
 366.818071557 118.985805531 381.473715673 140.25119488 386.671517772 162.775003977 c 2
 395.636458891 200.626977592 l 2
 401.964338975 228.715825105 426.48879957 252 457 252 c 2
 471 252 l 2
 481.892345701 252 492.769178872 247.034553872 499.668106317 238.149009828 c 0
 505.069936474 231.191667522 507.441011717 222.923255684 507.441011717 214.878700881 c 0
 507.441011717 211.683759254 507.075794113 208.576868183 506.405581135 205.56090978 c 2
 494.365686546 151.384424343 l 2
 481.786273529 96.6639777189 448.045145192 48.8653014395 404.97935876 16.7707633556 c 0
 370.520598594 -8.9094362202 329.48530776 -25 287 -25 c 2
 146 -25 l 2
EndSplineSet
EndChar

StartChar: D
Encoding: 68 68 39
Width: 569
Flags: HMW
LayerCount: 2
UndoRedoHistory
Layer: 1
Undoes
UndoOperation
Index: 0
Type: 1
WasModified: 0
WasOrder2: 0
Layer: 2
Width: 569
VWidth: 1000
LBearingChange: 0
UnicodeEnc: 0
InstructionsLength: 0
SplineSet
29 0 m 2
 13 0 3 14 7 31 c 2
 163 705 l 2
 167 723 183 737 199 737 c 2
 458 737 l 2
 538 737 587 666 567 579 c 2
 470 157 l 2
 450 71 367 0 287 0 c 2
 29 0 l 2
73 63 m 1
 302 63 l 2
 350 63 399 105 411 157 c 2
 508 579 l 2
 520 632 491 674 443 674 c 2
 214 674 l 1
 73 63 l 1
EndSplineSet
EndUndoOperation
UndoOperation
Index: 1
Type: 3
WasModified: 0
WasOrder2: 0
Layer: 2
EndUndoOperation
EndUndoes
Redoes
EndRedoes
EndUndoRedoHistory
Fore
SplineSet
29 -25 m 2
 14.336142612 -25 0.487183594845 -18.5326437457 -8.42425444571 -7.28816222338 c 0
 -15.4541642307 1.5822008226 -18.8820234337 12.4852609175 -18.8820234337 23.6267787354 c 0
 -18.8820234337 28.0403556348 -18.3731453698 32.3345836566 -17.3573775418 36.6515969253 c 2
 138.62090317 710.557758461 l 2
 144.862516929 738.405102386 168.924698128 762 199 762 c 2
 458 762 l 2
 502.940216539 762 541.521276509 742.720787355 566.295781786 710.677844828 c 0
 585.999501826 685.193373524 596.471034726 652.659182787 596.471034726 617.181749242 c 0
 596.471034726 602.938627325 594.790033072 588.280331768 591.365830373 573.385050029 c 2
 494.35150169 151.323076781 l 2
 481.730918042 97.0545670957 447.665197876 49.3159900857 404.59722521 17.1219169012 c 0
 370.136080238 -8.63839997866 329.201473489 -25 287 -25 c 2
 29 -25 l 2
302 88 m 2
 316.770152807 88 333.46204549 93.9886881438 348.285190786 105.097202757 c 0
 366.818071557 118.985805531 381.441188008 140.112070957 386.638990107 162.635880053 c 2
 483.634169627 584.614949971 l 2
 485.079939488 591.000433523 485.707506846 596.912803747 485.707506846 602.3830391 c 0
 485.707506846 615.941210614 481.791415062 626.634560751 476.066767502 634.04726989 c 0
 469.070063007 643.107135116 458.503649548 649 443 649 c 2
 233.892366829 649 l 1
 104.430828367 88 l 1
 302 88 l 2
EndSplineSet
EndChar

StartChar: E
Encoding: 69 69 40
Width: 551
Flags: HMW
LayerCount: 2
UndoRedoHistory
Layer: 1
Undoes
UndoOperation
Index: 0
Type: 1
WasModified: 0
WasOrder2: 0
Layer: 2
Width: 551
VWidth: 1000
LBearingChange: 0
UnicodeEnc: 0
InstructionsLength: 0
SplineSet
29 0 m 2
 13 0 3 14 7 31 c 2
 163 705 l 2
 167 723 183 737 199 737 c 2
 589 737 l 2
 597 737 602 730 600 721 c 2
 596 705 l 2
 592 688 576 674 560 674 c 2
 214 674 l 1
 155 416 l 1
 430 416 l 2
 446 416 456 402 452 384 c 2
 449 368 l 2
 447 360 437 353 430 353 c 2
 140 353 l 1
 73 63 l 1
 419 63 l 2
 435 63 445 49 441 31 c 2
 437 16 l 2
 435 7 426 0 418 0 c 2
 29 0 l 2
EndSplineSet
EndUndoOperation
UndoOperation
Index: 1
Type: 3
WasModified: 0
WasOrder2: 0
Layer: 2
EndUndoOperation
EndUndoes
Redoes
EndRedoes
EndUndoRedoHistory
Fore
SplineSet
29 -25 m 2
 14.336142612 -25 0.487183594845 -18.5326437457 -8.42425444571 -7.28816222338 c 0
 -15.4541642307 1.5822008226 -18.8820234337 12.4852609175 -18.8820234337 23.6267787354 c 0
 -18.8820234337 28.0403556348 -18.3731453698 32.3345836566 -17.3573775418 36.6515969253 c 2
 138.62090317 710.557758461 l 2
 144.862516929 738.405102386 168.924698128 762 199 762 c 2
 589 762 l 2
 599.892345701 762 610.769178872 757.034553872 617.668106317 748.149009828 c 0
 623.069936474 741.191667522 625.441011717 732.923255684 625.441011717 724.878700881 c 0
 625.441011717 721.48093716 625.032202894 718.031987452 624.255605484 714.925597809 c 2
 620.292335067 699.072516143 l 2
 616.567446433 683.4516646 607.283647739 670.380795237 595.305319412 661.353649252 c 0
 585.68134795 654.100801194 573.686768315 649 560 649 c 2
 233.932830936 649 l 1
 186.366939463 441 l 1
 430 441 l 2
 444.673594853 441 458.661465685 434.470727059 467.578846527 422.985495352 c 0
 474.595439402 413.948402916 477.882023434 402.937290006 477.882023434 391.757401762 c 0
 477.882023434 381.400841881 475.532441937 371.032943624 473.255605484 361.925597809 c 0
 470.655160372 351.523817365 464.680431098 344.475339622 458.780808192 339.436515788 c 0
 451.526266306 333.240465779 442.594627908 328 430 328 c 2
 159.887231265 328 l 1
 104.438955403 88 l 1
 419 88 l 2
 433.673594853 88 447.661465685 81.4707270585 456.578846527 69.9854953523 c 0
 463.595439402 60.9484029162 466.882023434 49.9372900059 466.882023434 38.7574017623 c 0
 466.882023434 27.9299706092 463.628545479 18.8123755611 461.266169379 9.95346518491 c 0
 458.48348464 -1.79662559141 451.360931287 -10.7057602964 443.090889279 -16.6288984913 c 0
 436.334473632 -21.467952941 428.052367408 -25 418 -25 c 2
 29 -25 l 2
EndSplineSet
EndChar

StartChar: F
Encoding: 70 70 41
Width: 515
Flags: HMW
LayerCount: 2
UndoRedoHistory
Layer: 1
Undoes
UndoOperation
Index: 0
Type: 1
WasModified: 0
WasOrder2: 0
Layer: 2
Width: 515
VWidth: 1000
LBearingChange: 0
UnicodeEnc: 0
InstructionsLength: 0
SplineSet
4 16 m 2
 163 705 l 2
 167 723 183 737 199 737 c 2
 589 737 l 2
 597 737 602 730 600 721 c 2
 596 705 l 2
 592 688 576 674 560 674 c 2
 214 674 l 1
 155 416 l 1
 430 416 l 2
 446 416 456 402 452 384 c 2
 449 368 l 2
 447 360 437 353 430 353 c 2
 140 353 l 1
 62 16 l 2
 60 7 52 0 44 0 c 2
 15 0 l 2
 7 0 2 7 4 16 c 2
EndSplineSet
EndUndoOperation
UndoOperation
Index: 1
Type: 3
WasModified: 0
WasOrder2: 0
Layer: 2
EndUndoOperation
EndUndoes
Redoes
EndRedoes
EndUndoRedoHistory
Fore
SplineSet
44 -25 m 2
 15 -25 l 2
 4.10765429923 -25 -6.76917887168 -20.0345538723 -13.6681063166 -11.1490098282 c 0
 -19.069936474 -4.19166752168 -21.4410117168 4.07674431623 -21.4410117168 12.1212991189 c 0
 -21.4410117168 15.3162407463 -21.1010903751 18.4288646313 -20.4063803689 21.4392746583 c 2
 138.618935132 710.548975162 l 2
 144.85745746 738.400140846 168.921536173 762 199 762 c 2
 589 762 l 2
 599.892345701 762 610.769178872 757.034553872 617.668106317 748.149009828 c 0
 623.069936474 741.191667522 625.441011717 732.923255684 625.441011717 724.878700881 c 0
 625.441011717 721.48093716 625.032202894 718.031987452 624.255605484 714.925597809 c 2
 620.292335067 699.072516143 l 2
 616.567446433 683.4516646 607.283647739 670.380795237 595.305319412 661.353649252 c 0
 585.68134795 654.100801194 573.686768315 649 560 649 c 2
 233.932830936 649 l 1
 186.366939463 441 l 1
 430 441 l 2
 444.673594853 441 458.661465685 434.470727059 467.578846527 422.985495352 c 0
 474.595439402 413.948402916 477.882023434 402.937290006 477.882023434 391.757401762 c 0
 477.882023434 381.400841881 475.532441937 371.032943624 473.255605484 361.925597809 c 0
 470.655160372 351.523817365 464.680431098 344.475339622 458.780808192 339.436515788 c 0
 451.526266306 333.240465779 442.594627908 328 430 328 c 2
 159.879112142 328 l 1
 86.3773154515 10.4345450691 l 2
 82.134053673 -8.41224654865 66.0687042091 -25 44 -25 c 2
EndSplineSet
EndChar

StartChar: G
Encoding: 71 71 42
Width: 569
Flags: HMW
LayerCount: 2
UndoRedoHistory
Layer: 1
Undoes
UndoOperation
Index: 0
Type: 1
WasModified: 0
WasOrder2: 0
Layer: 2
Width: 569
VWidth: 1000
LBearingChange: 0
UnicodeEnc: 0
InstructionsLength: 0
SplineSet
146 0 m 2
 65 0 16 70 36 157 c 2
 134 579 l 2
 154 666 235 737 316 737 c 2
 458 737 l 2
 539 737 587 666 567 579 c 2
 565 570 l 2
 563 561 554 554 546 554 c 2
 518 554 l 2
 510 554 504 561 506 570 c 2
 508 579 l 2
 520 632 491 674 443 674 c 2
 302 674 l 2
 254 674 204 632 192 579 c 2
 95 157 l 2
 83 105 113 63 161 63 c 2
 302 63 l 2
 350 63 399 105 411 157 c 2
 456 353 l 1
 345 353 l 2
 329 353 319 367 323 384 c 2
 327 400 l 2
 329 409 337 416 345 416 c 2
 501 416 l 2
 517 416 526 402 522 384 c 2
 470 157 l 2
 450 70 368 0 287 0 c 2
 146 0 l 2
EndSplineSet
EndUndoOperation
UndoOperation
Index: 1
Type: 3
WasModified: 0
WasOrder2: 0
Layer: 2
EndUndoOperation
EndUndoes
Redoes
EndRedoes
EndUndoRedoHistory
Fore
SplineSet
146 -25 m 2
 100.796247269 -25 61.9634066047 -6.12126278318 36.9537956489 25.7337560549 c 0
 17.0640277242 51.0675740437 6.53241743718 83.5025765154 6.53241743718 118.923572521 c 0
 6.53241743718 133.123515179 8.22804111624 147.798017138 11.6467362249 162.669340861 c 2
 109.634313454 584.615575657 l 2
 122.183187406 639.203177346 155.493691707 687.27270712 198.277221998 719.691668659 c 0
 232.504944358 745.62751844 273.41214166 762 316 762 c 2
 458 762 l 2
 503.221535591 762 541.843759958 742.848726763 566.567592604 710.837777244 c 0
 586.218567297 685.394862793 596.529920728 652.951759285 596.529920728 617.634276952 c 0
 596.529920728 603.246836588 594.865815572 588.612929582 591.405581135 573.56090978 c 2
 589.405581135 564.56090978 l 2
 586.727609148 552.510035839 579.502854739 543.395887582 571.090889279 537.371101509 c 0
 564.334473632 532.532047059 556.052367408 529 546 529 c 2
 518 529 l 2
 497.536096029 529 480.612370408 545.853744304 480.612370408 566.565053232 c 0
 480.612370408 573.133029355 482.370948157 578.933121867 483.616106191 584.535771531 c 0
 485.061876052 590.921255083 485.707506846 596.912803747 485.707506846 602.3830391 c 0
 485.707506846 615.941210614 481.791415062 626.634560751 476.066767502 634.04726989 c 0
 469.070063007 643.107135116 458.503649548 649 443 649 c 2
 302 649 l 2
 287.217419157 649 270.284225957 642.984025332 255.244604467 631.775250826 c 0
 236.440778607 617.761078723 221.568381903 596.362985952 216.365830373 573.385050029 c 2
 119.361009893 151.364119947 l 2
 117.972643653 145.347866237 117.353929699 139.687565471 117.353929699 134.496155709 c 0
 117.353929699 121.295517301 121.298537885 110.699315732 127.190524784 103.213415341 c 0
 134.424191 94.0228815373 145.416961016 88 161 88 c 2
 302 88 l 2
 316.770152807 88 333.46204549 93.9886881438 348.285190786 105.097202757 c 0
 366.818071557 118.985805531 381.434963762 140.085030236 386.632765861 162.608839332 c 2
 424.605226219 328 l 1
 345 328 l 2
 330.336142612 328 316.487183595 334.467356254 307.575745554 345.711837777 c 0
 300.545835769 354.582200823 297.117976566 365.485260918 297.117976566 376.626778735 c 0
 297.117976566 387.400699422 300.420710887 396.779667673 302.680141956 405.81739195 c 0
 307.0093134 424.559822644 323.02968432 441 345 441 c 2
 501 441 l 2
 515.534031047 441 529.543626021 434.4453487 538.24268723 422.830066986 c 0
 545.034059963 413.76199566 547.946178551 402.992889662 547.946178551 392.278712241 c 0
 547.946178551 387.664356446 547.376476979 382.932373309 546.369958484 378.40304008 c 2
 494.365686546 151.384424343 l 2
 481.786273529 96.6639777189 448.045145192 48.8653014395 404.97935876 16.7707633556 c 0
 370.520598594 -8.9094362202 329.48530776 -25 287 -25 c 2
 146 -25 l 2
EndSplineSet
EndChar

StartChar: H
Encoding: 72 72 43
Width: 569
Flags: HMW
LayerCount: 2
UndoRedoHistory
Layer: 1
Undoes
UndoOperation
Index: 0
Type: 1
WasModified: 0
WasOrder2: 0
Layer: 2
Width: 569
VWidth: 1000
LBearingChange: 0
UnicodeEnc: 0
InstructionsLength: 0
SplineSet
405 0 m 2
 388 0 378 14 382 31 c 2
 456 353 l 1
 140 353 l 1
 66 31 l 2
 62 14 46 0 29 0 c 2
 15 0 l 2
 7 0 2 7 4 16 c 2
 166 721 l 2
 168 730 177 737 185 737 c 2
 199 737 l 2
 216 737 225 723 221 705 c 2
 155 416 l 1
 471 416 l 1
 538 705 l 2
 542 723 558 737 575 737 c 2
 589 737 l 2
 597 737 602 730 600 721 c 2
 437 16 l 2
 435 7 426 0 418 0 c 2
 405 0 l 2
EndSplineSet
EndUndoOperation
UndoOperation
Index: 1
Type: 3
WasModified: 0
WasOrder2: 0
Layer: 2
EndUndoOperation
EndUndoes
Redoes
EndRedoes
EndUndoRedoHistory
Fore
SplineSet
405 -25 m 2
 390.313583688 -25 376.197153975 -18.8927464196 366.941865656 -7.56118971071 c 0
 359.643629902 1.37428258081 356.121270422 12.4506219642 356.121270422 23.6676662704 c 0
 356.121270422 28.080669689 356.624050261 32.3219191357 357.633936496 36.6139356335 c 2
 424.59843576 328 l 1
 159.9108603 328 l 1
 90.336840726 25.2604031885 l 2
 83.9012222942 -2.09097514656 59.3741903786 -25 29 -25 c 2
 15 -25 l 2
 4.10765429923 -25 -6.76917887168 -20.0345538723 -13.6681063166 -11.1490098282 c 0
 -19.069936474 -4.19166752168 -21.4410117168 4.07674431623 -21.4410117168 12.1212991189 c 0
 -21.4410117168 15.3162407463 -21.0364160124 18.5973700527 -20.366203034 21.6133284553 c 2
 141.594418865 726.43909022 l 2
 144.272390852 738.489964161 151.497145261 747.604112418 159.909110721 753.628898491 c 0
 166.665526368 758.467952941 174.947632592 762 185 762 c 2
 199 762 l 2
 213.539717104 762 227.814657563 755.832988605 236.87233787 744.117881846 c 0
 243.943532991 734.972073763 246.94214294 724.016320095 246.94214294 713.227052148 c 0
 246.94214294 708.615458683 246.373547203 703.918717657 245.373645514 699.419160056 c 2
 186.357505155 441 l 1
 451.12823674 441 l 1
 513.622028123 710.562771784 l 2
 519.92697512 738.680334055 544.465554979 762 575 762 c 2
 589 762 l 2
 599.892345701 762 610.769178872 757.034553872 617.668106317 748.149009828 c 0
 623.069936474 741.191667522 625.441011717 732.923255684 625.441011717 724.878700881 c 0
 625.441011717 721.683759254 625.102421088 718.570827624 624.406463821 715.560705698 c 2
 461.377857017 10.4369768856 l 2
 458.678020123 -1.55246754897 451.473993992 -10.6247829531 443.090889279 -16.6288984913 c 0
 436.334473632 -21.467952941 428.052367408 -25 418 -25 c 2
 405 -25 l 2
EndSplineSet
EndChar

StartChar: I
Encoding: 73 73 44
Width: 195
Flags: HMW
LayerCount: 2
UndoRedoHistory
Layer: 1
Undoes
UndoOperation
Index: 0
Type: 1
WasModified: 0
WasOrder2: 0
Layer: 2
Width: 195
VWidth: 1000
LBearingChange: 0
UnicodeEnc: 0
InstructionsLength: 0
SplineSet
4 16 m 2
 166 721 l 2
 168 730 177 737 185 737 c 2
 199 737 l 2
 216 737 225 723 221 705 c 2
 62 16 l 2
 60 7 52 0 44 0 c 2
 15 0 l 2
 7 0 2 7 4 16 c 2
EndSplineSet
EndUndoOperation
UndoOperation
Index: 1
Type: 3
WasModified: 0
WasOrder2: 0
Layer: 2
EndUndoOperation
EndUndoes
Redoes
EndRedoes
EndUndoRedoHistory
Fore
SplineSet
185 762 m 2
 199 762 l 2
 213.539717104 762 227.814657563 755.832988605 236.87233787 744.117881846 c 0
 243.943532991 734.972073763 246.94214294 724.016320095 246.94214294 713.227052148 c 0
 246.94214294 708.615458683 246.442829574 704.05200523 245.406380369 699.560725342 c 2
 86.3794199063 10.4438966705 l 2
 82.1393677207 -8.40675907842 66.0723542315 -25 44 -25 c 2
 15 -25 l 2
 4.10765429923 -25 -6.76917887168 -20.0345538723 -13.6681063166 -11.1490098282 c 0
 -19.069936474 -4.19166752168 -21.4410117168 4.07674431623 -21.4410117168 12.1212991189 c 0
 -21.4410117168 15.3162407463 -21.0364160124 18.5973700527 -20.366203034 21.6133284553 c 2
 141.594418865 726.43909022 l 2
 144.272390852 738.489964161 151.497145261 747.604112418 159.909110721 753.628898491 c 0
 166.665526368 758.467952941 174.947632592 762 185 762 c 2
EndSplineSet
EndChar

StartChar: J
Encoding: 74 74 45
Width: 524
Flags: HMW
LayerCount: 2
UndoRedoHistory
Layer: 1
Undoes
UndoOperation
Index: 0
Type: 1
WasModified: 0
WasOrder2: 0
Layer: 2
Width: 524
VWidth: 1000
LBearingChange: 0
UnicodeEnc: 0
InstructionsLength: 0
SplineSet
101 0 m 2
 20 0 -29 70 -9 157 c 2
 9 236 l 2
 11 245 20 252 28 252 c 2
 42 252 l 2
 59 252 68 238 64 220 c 2
 49 157 l 2
 37 105 67 63 115 63 c 2
 256 63 l 2
 304 63 354 105 366 157 c 2
 485 674 l 1
 350 674 l 2
 334 674 324 688 328 705 c 2
 332 721 l 2
 334 730 343 737 350 737 c 2
 529 737 l 2
 545 737 555 723 551 705 c 2
 424 157 l 2
 404 70 323 0 242 0 c 2
 101 0 l 2
EndSplineSet
EndUndoOperation
UndoOperation
Index: 1
Type: 3
WasModified: 0
WasOrder2: 0
Layer: 2
EndUndoOperation
EndUndoes
Redoes
EndRedoes
EndUndoRedoHistory
Fore
SplineSet
101 -25 m 2
 55.7962472688 -25 16.9634066047 -6.12126278318 -8.04620435113 25.7337560549 c 0
 -27.9359722758 51.0675740437 -38.4675825628 83.5025765154 -38.4675825628 118.923572521 c 0
 -38.4675825628 133.123515179 -36.7950981177 147.697427823 -33.376403009 162.568751546 c 2
 -15.4055811349 241.43909022 l 2
 -12.7276091479 253.489964161 -5.50285473899 262.604112418 2.90911072117 268.628898491 c 0
 9.66552636801 273.467952941 17.9476325924 277 28 277 c 2
 42 277 l 2
 56.5397171043 277 70.8146575634 270.832988605 79.8723378699 259.117881846 c 0
 86.9435329912 249.972073763 89.9421429395 239.016320095 89.9421429395 228.227052148 c 0
 89.9421429395 223.615458683 89.475981946 219.044220171 88.4083275042 214.560255856 c 2
 73.3610098932 151.364119947 l 2
 71.9726436525 145.347866237 71.3539296989 139.687565471 71.3539296989 134.496155709 c 0
 71.3539296989 121.295517301 75.2985378854 110.699315732 81.1905247835 103.213415341 c 0
 88.4241909997 94.0228815373 99.4169610164 88 115 88 c 2
 256 88 l 2
 270.784240072 88 287.750784258 94.0251965274 302.816675615 105.182483994 c 0
 321.660165288 119.137332479 336.476558765 140.265326613 341.635840524 162.622214236 c 2
 453.587400496 649 l 1
 350 649 l 2
 335.336142612 649 321.487183595 655.467356254 312.575745554 666.711837777 c 0
 305.545835769 675.582200823 302.117976566 686.485260918 302.117976566 697.626778735 c 0
 302.117976566 708.40130753 305.420976664 717.780730783 307.680540396 726.818985708 c 0
 310.417711295 738.658601276 317.428832314 747.422235249 325.321002063 753.323963598 c 0
 331.689157987 758.086041396 339.578202139 762 350 762 c 2
 529 762 l 2
 543.673594853 762 557.661465685 755.470727059 566.578846527 743.985495352 c 0
 573.595439402 734.948402916 576.882023434 723.937290006 576.882023434 712.757401762 c 0
 576.882023434 708.325167601 576.414688193 703.910651078 575.406574063 699.560679667 c 2
 448.365686546 151.384424343 l 2
 435.80932267 96.764241482 402.444185832 48.9569104986 359.631202669 16.8222595727 c 0
 325.377640027 -8.88784509958 284.493459898 -25 242 -25 c 2
 101 -25 l 2
EndSplineSet
EndChar

StartChar: K
Encoding: 75 75 46
Width: 564
Flags: HMW
LayerCount: 2
UndoRedoHistory
Layer: 1
Undoes
UndoOperation
Index: 0
Type: 1
WasModified: 0
WasOrder2: 0
Layer: 2
Width: 564
VWidth: 1000
LBearingChange: 0
UnicodeEnc: 0
InstructionsLength: 0
SplineSet
430 0 m 2
 421 0 413 5 409 13 c 2
 277 322 l 2
 271 337 257 346 240 346 c 2
 138 346 l 1
 66 31 l 2
 62 14 46 0 29 0 c 2
 15 0 l 2
 7 0 2 7 4 16 c 2
 166 721 l 2
 168 730 177 737 185 737 c 2
 199 737 l 2
 216 737 225 723 221 705 c 2
 153 409 l 1
 246 409 l 2
 264 409 281 418 294 433 c 2
 552 724 l 2
 559 732 570 737 579 737 c 2
 607 737 l 2
 619 737 624 723 614 712 c 2
 323 384 l 1
 476 25 l 2
 480 14 470 0 458 0 c 2
 430 0 l 2
EndSplineSet
EndUndoOperation
UndoOperation
Index: 1
Type: 3
WasModified: 0
WasOrder2: 0
Layer: 2
EndUndoOperation
EndUndoes
Redoes
EndRedoes
EndUndoRedoHistory
Fore
SplineSet
430 -25 m 2
 411.088223025 -25 393.747403604 -14.5417644009 386.291051045 2.51133012752 c 0
 341.252625347 105.516723814 297.938777876 209.313505003 253.777826078 312.729777227 c 0
 251.757501977 317.780587481 247.906937057 321 240 321 c 2
 157.9349489 321 l 1
 90.336840726 25.2604031885 l 2
 83.9012222942 -2.09097514656 59.3741903786 -25 29 -25 c 2
 15 -25 l 2
 4.10765429923 -25 -6.76917887168 -20.0345538723 -13.6681063166 -11.1490098282 c 0
 -19.069936474 -4.19166752168 -21.4410117168 4.07674431623 -21.4410117168 12.1212991189 c 0
 -21.4410117168 15.3162407463 -21.0364160124 18.5973700527 -20.366203034 21.6133284553 c 2
 141.594418865 726.43909022 l 2
 144.272390852 738.489964161 151.497145261 747.604112418 159.909110721 753.628898491 c 0
 166.665526368 758.467952941 174.947632592 762 185 762 c 2
 199 762 l 2
 213.539717104 762 227.814657563 755.832988605 236.87233787 744.117881846 c 0
 243.943532991 734.972073763 246.94214294 724.016320095 246.94214294 713.227052148 c 0
 246.94214294 708.615458683 246.366408248 703.887550206 245.366506559 699.387992605 c 2
 184.398994744 434 l 1
 246 434 l 2
 255.361727752 434 265.750128638 438.814259868 275.101245614 449.361420601 c 2
 533.180782764 740.450321249 l 2
 545.017185478 753.977638637 561.484139444 762 579 762 c 2
 607 762 l 2
 618.239871164 762 629.266860526 756.951608123 636.289095461 748.091175505 c 0
 641.791027558 741.149012638 644.344725435 732.831428838 644.344725435 724.574485132 c 0
 644.344725435 713.689869245 639.948202636 703.443721941 632.621338289 695.32574605 c 2
 352.202937954 379.252772476 l 1
 401.294009252 264.004338143 450.45803134 148.828854599 499.503055617 33.534373244 c 0
 501.164502062 28.9653955201 501.895801513 24.3047680508 501.895801513 19.8055979821 c 0
 501.895801513 6.1810135036 495.805115189 -5.19239172807 487.029034345 -13.3090059575 c 0
 479.940272918 -19.8650920846 470.023094206 -25 458 -25 c 2
 430 -25 l 2
EndSplineSet
EndChar

StartChar: L
Encoding: 76 76 47
Width: 450
Flags: HMW
LayerCount: 2
UndoRedoHistory
Layer: 1
Undoes
UndoOperation
Index: 0
Type: 1
WasModified: 0
WasOrder2: 0
Layer: 2
Width: 450
VWidth: 1000
LBearingChange: 0
UnicodeEnc: 0
InstructionsLength: 0
SplineSet
29 0 m 2
 13 0 3 14 7 31 c 2
 166 721 l 2
 168 730 177 737 185 737 c 2
 199 737 l 2
 216 737 225 723 221 705 c 2
 73 63 l 1
 372 63 l 2
 389 63 398 49 394 31 c 2
 391 16 l 2
 389 7 380 0 372 0 c 2
 29 0 l 2
EndSplineSet
EndUndoOperation
UndoOperation
Index: 1
Type: 3
WasModified: 0
WasOrder2: 0
Layer: 2
EndUndoOperation
EndUndoes
Redoes
EndRedoes
EndUndoRedoHistory
Fore
SplineSet
29 -25 m 2
 14.336142612 -25 0.487183594845 -18.5326437457 -8.42425444571 -7.28816222338 c 0
 -15.4541642307 1.5822008226 -18.8820234337 12.4852609175 -18.8820234337 23.6267787354 c 0
 -18.8820234337 28.0403556348 -18.3785484923 32.3111878778 -17.3627806644 36.6282011465 c 2
 141.594418865 726.43909022 l 2
 144.272390852 738.489964161 151.497145261 747.604112418 159.909110721 753.628898491 c 0
 166.665526368 758.467952941 174.947632592 762 185 762 c 2
 199 762 l 2
 213.539717104 762 227.814657563 755.832988605 236.87233787 744.117881846 c 0
 243.943532991 734.972073763 246.94214294 724.016320095 246.94214294 713.227052148 c 0
 246.94214294 708.615458683 246.362180579 703.869179388 245.36227889 699.369621788 c 2
 104.423487574 88 l 1
 372 88 l 2
 386.539717104 88 400.814657563 81.8329886051 409.87233787 70.1178818461 c 0
 416.943532991 60.9720737631 419.94214294 50.0163200949 419.94214294 39.2270521481 c 0
 419.94214294 29.0614659489 417.384678047 19.4668458834 415.405581135 10.5609097804 c 0
 412.727609148 -1.48996416103 405.502854739 -10.6041124184 397.090889279 -16.6288984913 c 0
 390.334473632 -21.467952941 382.052367408 -25 372 -25 c 2
 29 -25 l 2
EndSplineSet
EndChar

StartChar: M
Encoding: 77 77 48
Width: 687
Flags: HMW
LayerCount: 2
UndoRedoHistory
Layer: 1
Undoes
UndoOperation
Index: 0
Type: 1
WasModified: 0
WasOrder2: 0
Layer: 2
Width: 687
VWidth: 1000
LBearingChange: 0
UnicodeEnc: 0
InstructionsLength: 0
SplineSet
671 737 m 2
 706 737 l 2
 714 737 719 730 717 721 c 2
 554 16 l 2
 552 7 544 0 536 0 c 2
 522 0 l 2
 505 0 495 14 499 31 c 2
 633 612 l 1
 382 275 l 2
 375 264 363 258 352 258 c 2
 318 258 l 2
 307 258 298 264 296 275 c 2
 200 612 l 1
 66 31 l 2
 62 14 46 0 29 0 c 2
 15 0 l 2
 7 0 2 7 4 16 c 2
 166 721 l 2
 168 730 177 737 185 737 c 2
 219 737 l 2
 230 737 240 730 242 720 c 2
 351 329 l 1
 641 720 l 2
 648 730 660 737 671 737 c 2
EndSplineSet
EndUndoOperation
UndoOperation
Index: 1
Type: 3
WasModified: 0
WasOrder2: 0
Layer: 2
EndUndoOperation
EndUndoes
Redoes
EndRedoes
EndUndoRedoHistory
Fore
SplineSet
671 762 m 2
 706 762 l 2
 716.892345701 762 727.769178872 757.034553872 734.668106317 748.149009828 c 0
 740.069936474 741.191667522 742.441011717 732.923255684 742.441011717 724.878700881 c 0
 742.441011717 721.683759254 742.102421088 718.570827624 741.406463821 715.560705698 c 2
 578.378078771 10.4379360043 l 2
 574.135980634 -8.41025684552 558.070027741 -25 536 -25 c 2
 522 -25 l 2
 507.313583688 -25 493.197153975 -18.8927464196 483.941865656 -7.56118971071 c 0
 476.643629902 1.37428258081 473.121270422 12.4506219642 473.121270422 23.6676662704 c 0
 473.121270422 28.080669689 473.62840262 32.340823924 474.638288855 36.6328404218 c 2
 581.847694859 501.47362317 l 1
 402.545328508 260.736979903 l 1
 390.740103551 242.825842332 371.425075694 233 352 233 c 2
 318 233 l 2
 293.983445874 233 277.34662937 249.211511517 271.687090161 269.07885228 c 2
 202.547856794 511.786369411 l 1
 90.336840726 25.2604031885 l 2
 83.9012222942 -2.09097514656 59.3741903786 -25 29 -25 c 2
 15 -25 l 2
 4.10765429923 -25 -6.76917887168 -20.0345538723 -13.6681063166 -11.1490098282 c 0
 -19.069936474 -4.19166752168 -21.4410117168 4.07674431623 -21.4410117168 12.1212991189 c 0
 -21.4410117168 15.3162407463 -21.0364160124 18.5973700527 -20.366203034 21.6133284553 c 2
 141.594418865 726.43909022 l 2
 144.272390852 738.489964161 151.497145261 747.604112418 159.909110721 753.628898491 c 0
 166.665526368 758.467952941 174.947632592 762 185 762 c 2
 219 762 l 2
 239.37468306 762 261.0504454 749.335210856 266.287349212 725.993921133 c 1
 361.364905425 384.935898388 l 1
 620.725538237 734.625579179 l 2
 631.930484205 750.447014273 650.026518965 762 671 762 c 2
EndSplineSet
EndChar

StartChar: N
Encoding: 78 78 49
Width: 569
Flags: HMW
LayerCount: 2
UndoRedoHistory
Layer: 1
Undoes
UndoOperation
Index: 0
Type: 1
WasModified: 0
WasOrder2: 0
Layer: 2
Width: 569
VWidth: 1000
LBearingChange: 0
UnicodeEnc: 0
InstructionsLength: 0
SplineSet
384 0 m 2
 373 0 364 6 362 17 c 2
 200 612 l 1
 66 31 l 2
 62 14 46 0 29 0 c 2
 15 0 l 2
 7 0 2 7 4 16 c 2
 166 721 l 2
 168 730 177 737 185 737 c 2
 219 737 l 2
 230 737 240 730 242 720 c 2
 404 125 l 1
 538 705 l 2
 542 723 558 737 575 737 c 2
 589 737 l 2
 597 737 602 730 600 721 c 2
 437 16 l 2
 435 7 426 0 418 0 c 2
 384 0 l 2
EndSplineSet
EndUndoOperation
UndoOperation
Index: 1
Type: 3
WasModified: 0
WasOrder2: 0
Layer: 2
EndUndoOperation
EndUndoes
Redoes
EndRedoes
EndUndoRedoHistory
Fore
SplineSet
384 -25 m 2
 359.926956742 -25 343.097612245 -8.75642350133 337.650740874 11.2490608554 c 2
 202.007678708 509.444258318 l 1
 90.336840726 25.2604031885 l 2
 83.9012222942 -2.09097514656 59.3741903786 -25 29 -25 c 2
 15 -25 l 2
 4.10765429923 -25 -6.76917887168 -20.0345538723 -13.6681063166 -11.1490098282 c 0
 -19.069936474 -4.19166752168 -21.4410117168 4.07674431623 -21.4410117168 12.1212991189 c 0
 -21.4410117168 15.3162407463 -21.0364160124 18.5973700527 -20.366203034 21.6133284553 c 2
 141.594418865 726.43909022 l 2
 144.272390852 738.489964161 151.497145261 747.604112418 159.909110721 753.628898491 c 0
 166.665526368 758.467952941 174.947632592 762 185 762 c 2
 219 762 l 2
 239.39993333 762 261.104172786 749.303800551 266.306743663 725.907091617 c 1
 402.013147374 227.479250826 l 1
 513.619727432 710.552507793 l 2
 519.921003649 738.674658777 544.461839641 762 575 762 c 2
 589 762 l 2
 599.892345701 762 610.769178872 757.034553872 617.668106317 748.149009828 c 0
 623.069936474 741.191667522 625.441011717 732.923255684 625.441011717 724.878700881 c 0
 625.441011717 721.683759254 625.102421088 718.570827624 624.406463821 715.560705698 c 2
 461.377857017 10.4369768856 l 2
 458.678020123 -1.55246754897 451.473993992 -10.6247829531 443.090889279 -16.6288984913 c 0
 436.334473632 -21.467952941 428.052367408 -25 418 -25 c 2
 384 -25 l 2
EndSplineSet
EndChar

StartChar: O
Encoding: 79 79 50
Width: 569
Flags: HMW
LayerCount: 2
UndoRedoHistory
Layer: 1
Undoes
UndoOperation
Index: 0
Type: 1
WasModified: 0
WasOrder2: 0
Layer: 2
Width: 569
VWidth: 1000
LBearingChange: 0
UnicodeEnc: 0
InstructionsLength: 0
SplineSet
146 0 m 2
 66 0 16 71 36 157 c 2
 134 579 l 2
 154 666 236 737 316 737 c 2
 458 737 l 2
 538 737 587 666 567 579 c 2
 470 157 l 2
 450 71 367 0 287 0 c 2
 146 0 l 2
302 674 m 2
 254 674 204 632 192 579 c 2
 95 157 l 2
 83 105 113 63 161 63 c 2
 302 63 l 2
 350 63 399 105 411 157 c 2
 508 579 l 2
 520 632 491 674 443 674 c 2
 302 674 l 2
EndSplineSet
EndUndoOperation
UndoOperation
Index: 1
Type: 3
WasModified: 0
WasOrder2: 0
Layer: 2
EndUndoOperation
EndUndoes
Redoes
EndRedoes
EndUndoRedoHistory
Fore
SplineSet
146 -25 m 2
 100.964953939 -25 62.1913342262 -5.68041519181 37.1892366376 26.289967085 c 0
 17.2905542846 51.7345714578 6.58988283157 84.2574009518 6.58988283157 119.689559408 c 0
 6.58988283157 133.69037216 8.25211396712 148.072465153 11.6467362249 162.669340861 c 2
 109.634313454 584.615575657 l 2
 122.205846574 639.301744729 155.876612284 687.33795487 198.714601893 719.711235589 c 0
 232.985475186 745.61022412 273.788719169 762 316 762 c 2
 458 762 l 2
 502.940216539 762 541.521276509 742.720787355 566.295781786 710.677844828 c 0
 585.999501826 685.193373524 596.471034726 652.659182787 596.471034726 617.181749242 c 0
 596.471034726 602.938627325 594.790033072 588.280331768 591.365830373 573.385050029 c 2
 494.35150169 151.323076781 l 2
 481.730918042 97.0545670957 447.665197876 49.3159900857 404.59722521 17.1219169012 c 0
 370.136080238 -8.63839997866 329.201473489 -25 287 -25 c 2
 146 -25 l 2
302 649 m 2
 287.217419157 649 270.284225957 642.984025332 255.244604467 631.775250826 c 0
 236.440778607 617.761078723 221.586445338 596.442164392 216.383893809 573.464228469 c 2
 119.365830373 151.385050029 l 2
 117.977464133 145.36879632 117.353929699 139.687565471 117.353929699 134.496155709 c 0
 117.353929699 121.295517301 121.298537885 110.699315732 127.190524784 103.213415341 c 0
 134.424191 94.0228815373 145.416961016 88 161 88 c 2
 302 88 l 2
 316.770152807 88 333.46204549 93.9886881438 348.285190786 105.097202757 c 0
 366.818071557 118.985805531 381.441188008 140.112070957 386.638990107 162.635880053 c 2
 483.634169627 584.614949971 l 2
 485.079939488 591.000433523 485.707506846 596.912803747 485.707506846 602.3830391 c 0
 485.707506846 615.941210614 481.791415062 626.634560751 476.066767502 634.04726989 c 0
 469.070063007 643.107135116 458.503649548 649 443 649 c 2
 302 649 l 2
EndSplineSet
EndChar

StartChar: P
Encoding: 80 80 51
Width: 547
Flags: HMW
LayerCount: 2
UndoRedoHistory
Layer: 1
Undoes
UndoOperation
Index: 0
Type: 1
WasModified: 0
WasOrder2: 0
Layer: 2
Width: 547
VWidth: 1000
LBearingChange: 0
UnicodeEnc: 0
InstructionsLength: 0
SplineSet
4 16 m 2
 163 705 l 2
 167 723 183 737 199 737 c 2
 458 737 l 2
 539 737 587 666 567 579 c 2
 537 447 l 2
 517 360 435 290 354 290 c 2
 126 290 l 1
 66 31 l 2
 62 14 46 0 29 0 c 2
 15 0 l 2
 7 0 2 7 4 16 c 2
140 353 m 1
 369 353 l 2
 417 353 466 395 478 447 c 2
 508 579 l 2
 520 632 491 674 443 674 c 2
 214 674 l 1
 140 353 l 1
EndSplineSet
EndUndoOperation
UndoOperation
Index: 1
Type: 3
WasModified: 0
WasOrder2: 0
Layer: 2
EndUndoOperation
EndUndoes
Redoes
EndRedoes
EndUndoRedoHistory
Fore
SplineSet
29 -25 m 2
 15 -25 l 2
 4.10765429923 -25 -6.76917887168 -20.0345538723 -13.6681063166 -11.1490098282 c 0
 -19.069936474 -4.19166752168 -21.4410117168 4.07674431623 -21.4410117168 12.1212991189 c 0
 -21.4410117168 15.3162407463 -21.1010903751 18.4288646313 -20.4063803689 21.4392746583 c 2
 138.618935132 710.548975162 l 2
 144.85745746 738.400140846 168.921536173 762 199 762 c 2
 458 762 l 2
 503.221535591 762 541.843759958 742.848726763 566.567592604 710.837777244 c 0
 586.218567297 685.394862793 596.529920728 652.951759285 596.529920728 617.634276952 c 0
 596.529920728 603.246836588 594.839649915 588.496506363 591.379415478 573.444486561 c 2
 561.365686546 441.384424343 l 2
 548.786273529 386.663977719 515.045145192 338.865301439 471.97935876 306.770763356 c 0
 437.520598594 281.09056378 396.48530776 265 354 265 c 2
 145.8751112 265 l 1
 90.336840726 25.2604031885 l 2
 83.9012222942 -2.09097514656 59.3741903786 -25 29 -25 c 2
369 378 m 2
 383.770152807 378 400.46204549 383.988688144 415.285190786 395.097202757 c 0
 433.818071557 408.985805531 448.441188008 430.112070957 453.638990107 452.635880053 c 2
 483.620584522 584.555513439 l 2
 485.066354383 590.940996991 485.707506846 596.912803747 485.707506846 602.3830391 c 0
 485.707506846 615.941210614 481.791415062 626.634560751 476.066767502 634.04726989 c 0
 469.070063007 643.107135116 458.503649548 649 443 649 c 2
 233.897007823 649 l 1
 171.423487574 378 l 1
 369 378 l 2
EndSplineSet
EndChar

StartChar: Q
Encoding: 81 81 52
Width: 569
Flags: HMW
LayerCount: 2
UndoRedoHistory
Layer: 1
Undoes
UndoOperation
Index: 0
Type: 1
WasModified: 0
WasOrder2: 0
Layer: 2
Width: 569
VWidth: 1000
LBearingChange: 0
UnicodeEnc: 0
InstructionsLength: 0
SplineSet
168 -85 m 2
 188 0 l 1
 146 0 l 2
 65 0 16 70 36 157 c 2
 134 579 l 2
 154 666 235 737 316 737 c 2
 458 737 l 2
 539 737 587 666 567 579 c 2
 470 157 l 2
 450 70 368 0 287 0 c 2
 246 0 l 1
 231 -69 l 2
 227 -87 209 -101 193 -101 c 2
 178 -101 l 2
 171 -101 166 -94 168 -85 c 2
261 63 m 1
 302 63 l 2
 350 63 399 105 411 157 c 2
 508 579 l 2
 520 632 491 674 443 674 c 2
 302 674 l 2
 254 674 204 632 192 579 c 2
 95 157 l 2
 83 105 113 63 161 63 c 2
 202 63 l 1
 218 132 l 2
 222 150 239 164 255 164 c 2
 269 164 l 2
 276 164 283 157 281 148 c 2
 261 63 l 1
EndSplineSet
EndUndoOperation
UndoOperation
Index: 1
Type: 3
WasModified: 0
WasOrder2: 0
Layer: 2
EndUndoOperation
EndUndoes
Redoes
EndRedoes
EndUndoRedoHistory
Fore
SplineSet
193 -126 m 2
 178 -126 l 2
 155.822146129 -126 142.555606245 -106.457930275 142.555606245 -88.9229891914 c 0
 142.555606245 -85.7380310951 142.876426291 -82.6040183653 143.592555029 -79.5604712306 c 2
 156.430312965 -25 l 1
 146 -25 l 2
 100.796247269 -25 61.9634066047 -6.12126278318 36.9537956489 25.7337560549 c 0
 17.0640277242 51.0675740437 6.53241743718 83.5025765154 6.53241743718 118.923572521 c 0
 6.53241743718 133.123515179 8.22804111624 147.798017138 11.6467362249 162.669340861 c 2
 109.634313454 584.615575657 l 2
 122.183187406 639.203177346 155.493691707 687.27270712 198.277221998 719.691668659 c 0
 232.504944358 745.62751844 273.41214166 762 316 762 c 2
 458 762 l 2
 503.221535591 762 541.843759958 742.848726763 566.567592604 710.837777244 c 0
 586.218567297 685.394862793 596.529920728 652.951759285 596.529920728 617.634276952 c 0
 596.529920728 603.246836588 594.826064811 588.437069831 591.365830373 573.385050029 c 2
 494.365686546 151.384424343 l 2
 481.786273529 96.6639777189 448.045145192 48.8653014395 404.97935876 16.7707633556 c 0
 370.520598594 -8.9094362202 329.48530776 -25 287 -25 c 2
 266.1534024 -25 l 1
 255.405581135 -74.4390902196 l 2
 251.616498037 -91.489964161 241.12013869 -104.986828468 228.647816577 -113.919707819 c 0
 218.643115607 -121.085236892 206.607922963 -126 193 -126 c 2
255 189 m 2
 269 189 l 2
 289.108996881 189 306.346839452 172.64311204 306.346839452 151.096344292 c 0
 306.346839452 148.214293923 306.062331872 145.343740558 305.407444971 142.560471231 c 2
 292.569687035 88 l 1
 302 88 l 2
 316.770152807 88 333.46204549 93.9886881438 348.285190786 105.097202757 c 0
 366.818071557 118.985805531 381.441188008 140.112070957 386.638990107 162.635880053 c 2
 483.634169627 584.614949971 l 2
 485.079939488 591.000433523 485.707506846 596.912803747 485.707506846 602.3830391 c 0
 485.707506846 615.941210614 481.791415062 626.634560751 476.066767502 634.04726989 c 0
 469.070063007 643.107135116 458.503649548 649 443 649 c 2
 302 649 l 2
 287.217419157 649 270.284225957 642.984025332 255.244604467 631.775250826 c 0
 236.440778607 617.761078723 221.586445338 596.442164392 216.383893809 573.464228469 c 2
 119.365830373 151.385050029 l 2
 117.977464133 145.36879632 117.353929699 139.687565471 117.353929699 134.496155709 c 0
 117.353929699 121.295517301 121.298537885 110.699315732 127.190524784 103.213415341 c 0
 134.424191 94.0228815373 145.416961016 88 161 88 c 2
 182.129206557 88 l 1
 193.622256444 137.56377764 l 2
 197.32478468 154.071097976 207.157307429 167.575217681 219.437280473 176.677855043 c 0
 229.28972819 183.981068036 241.350516045 189 255 189 c 2
EndSplineSet
EndChar

StartChar: R
Encoding: 82 82 53
Width: 551
Flags: HMW
LayerCount: 2
UndoRedoHistory
Layer: 1
Undoes
UndoOperation
Index: 0
Type: 1
WasModified: 0
WasOrder2: 0
Layer: 2
Width: 551
VWidth: 1000
LBearingChange: 0
UnicodeEnc: 0
InstructionsLength: 0
SplineSet
388 0 m 2
 377 0 368 6 366 17 c 2
 298 290 l 1
 126 290 l 1
 66 31 l 2
 62 14 46 0 29 0 c 2
 15 0 l 2
 7 0 2 7 4 16 c 2
 163 705 l 2
 167 723 183 737 199 737 c 2
 458 737 l 2
 539 737 587 666 567 579 c 2
 537 447 l 2
 529 413 511 381 486 353 c 0
 462 327 432 307 401 297 c 2
 365 286 l 1
 430 23 l 2
 432 12 422 0 412 0 c 2
 388 0 l 2
140 353 m 1
 369 353 l 2
 417 353 466 395 478 447 c 2
 508 579 l 2
 520 632 491 674 443 674 c 2
 214 674 l 1
 140 353 l 1
EndSplineSet
EndUndoOperation
UndoOperation
Index: 1
Type: 3
WasModified: 0
WasOrder2: 0
Layer: 2
EndUndoOperation
EndUndoes
Redoes
EndRedoes
EndUndoRedoHistory
Fore
SplineSet
388 -25 m 2
 363.822723164 -25 345.757929946 -8.88857012068 341.584986639 11.5655354206 c 2
 278.458453337 265 l 1
 145.8751112 265 l 1
 90.336840726 25.2604031885 l 2
 83.9012222942 -2.09097514656 59.3741903786 -25 29 -25 c 2
 15 -25 l 2
 4.10765429923 -25 -6.76917887168 -20.0345538723 -13.6681063166 -11.1490098282 c 0
 -19.069936474 -4.19166752168 -21.4410117168 4.07674431623 -21.4410117168 12.1212991189 c 0
 -21.4410117168 15.3162407463 -21.1010903751 18.4288646313 -20.4063803689 21.4392746583 c 2
 138.618935132 710.548975162 l 2
 144.85745746 738.400140846 168.921536173 762 199 762 c 2
 458 762 l 2
 503.221535591 762 541.843759958 742.848726763 566.567592604 710.837777244 c 0
 586.218567297 685.394862793 596.529920728 652.951759285 596.529920728 617.634276952 c 0
 596.529920728 603.246836588 594.839649915 588.496506363 591.379415478 573.444486561 c 2
 561.336840726 441.260403189 l 2
 552.208023218 402.46292878 531.875829635 366.851185466 504.513198602 336.20503871 c 0
 477.914964782 307.390285405 444.233202172 284.064006473 408.306258308 273.086329181 c 2
 394.956693579 269.007295514 l 1
 414.823581216 188.489788589 434.796108088 108.0779209 454.596453336 27.4938715867 c 0
 455.047843787 25.0112241115 455.257418584 22.5396923185 455.257418584 20.1105649339 c 0
 455.257418584 6.17842948325 448.983209809 -5.11338256737 440.550773023 -13.0967875471 c 0
 433.793077177 -19.4946324452 424.27614334 -25 412 -25 c 2
 388 -25 l 2
369 378 m 2
 383.770152807 378 400.46204549 383.988688144 415.285190786 395.097202757 c 0
 433.818071557 408.985805531 448.441188008 430.112070957 453.638990107 452.635880053 c 2
 483.620584522 584.555513439 l 2
 485.066354383 590.940996991 485.707506846 596.912803747 485.707506846 602.3830391 c 0
 485.707506846 615.941210614 481.791415062 626.634560751 476.066767502 634.04726989 c 0
 469.070063007 643.107135116 458.503649548 649 443 649 c 2
 233.897007823 649 l 1
 171.423487574 378 l 1
 369 378 l 2
EndSplineSet
EndChar

StartChar: S
Encoding: 83 83 54
Width: 560
Flags: HMW
LayerCount: 2
UndoRedoHistory
Layer: 1
Undoes
UndoOperation
Index: 0
Type: 1
WasModified: 0
WasOrder2: 0
Layer: 2
Width: 560
VWidth: 1000
LBearingChange: 0
UnicodeEnc: 0
InstructionsLength: 0
SplineSet
137 0 m 2xf4
 56 0 7 70 27 157 c 2
 40 211 l 2
 42 220 50 227 58 227 c 2
 72 227 l 2
 89 227 99 213 95 195 c 2
 86 157 l 2
 74 105 103 63 151 63 c 2
 293 63 l 2
 341 63 390 105 402 157 c 2
 425 258 l 2
 437 310 408 353 360 353 c 2xf4
 218 353 l 2
 137 353 89 423 109 510 c 2
 125 579 l 2
 145 666 226 737 307 737 c 2
 424 737 l 2
 505 737 555 666 535 579 c 2
 531 564 l 2
 529 555 521 548 513 548 c 2
 484 548 l 2
 476 548 471 555 473 564 c 2
 476 579 l 2
 488 632 459 674 410 674 c 2xf8
 293 674 l 2
 245 674 195 632 183 579 c 2
 167 510 l 2
 155 458 185 416 233 416 c 2
 374 416 l 2
 455 416 504 345 484 258 c 2
 461 157 l 2
 441 70 359 0 278 0 c 2
 137 0 l 2xf4
EndSplineSet
EndUndoOperation
UndoOperation
Index: 1
Type: 3
WasModified: 0
WasOrder2: 0
Layer: 2
EndUndoOperation
EndUndoes
Redoes
EndRedoes
EndUndoRedoHistory
Fore
SplineSet
137 -25 m 2
 91.7962472688 -25 52.9634066047 -6.12126278318 27.9537956489 25.7337560549 c 0
 0.229172072466 61.0469165781 -9.47414269674 109.949650042 2.63303726778 162.615882887 c 2
 15.6513457888 216.691933667 l 2
 19.9378709476 235.486395889 35.980675976 252 58 252 c 2
 72 252 l 2
 86.6919443175 252 100.951868075 245.837816251 110.216931056 234.258851195 c 0
 117.504120824 225.151723069 120.878729578 213.965941526 120.878729578 202.714646733 c 0
 120.878729578 198.190547325 120.362524821 193.590953637 119.328482228 189.224996023 c 2
 110.361009893 151.364119947 l 2
 108.930917261 145.167051873 108.292493154 139.339372085 108.292493154 134.008428676 c 0
 108.292493154 120.797015283 112.163137443 110.269486606 117.882499366 102.913856289 c 0
 124.880483358 93.9137993095 135.492980805 88 151 88 c 2
 293 88 l 2
 307.770152807 88 324.46204549 93.9886881438 339.285190786 105.097202757 c 0
 357.818071557 118.985805531 372.425138162 140.042059344 377.622940262 162.56586844 c 2
 400.638990107 263.635880053 l 2
 402.066669304 269.822489908 402.707506846 275.673056234 402.707506846 281.0543153 c 0
 402.707506846 294.392394369 398.802485411 305.205116594 393.004348892 312.776552758 c 0
 385.907678265 322.043666158 375.30698473 328 360 328 c 2
 218 328 l 2
 172.89737959 328 134.283652195 346.823527508 109.50077436 378.61830067 c 0
 89.8020805093 403.890406143 79.4700792722 436.19152184 79.4700792722 471.428857133 c 0
 79.4700792722 485.783118349 81.1861110992 500.615695946 84.6449082681 515.66146363 c 2
 100.634313454 584.615575657 l 2
 113.183187406 639.203177346 146.493691707 687.27270712 189.277221998 719.691668659 c 0
 223.504944358 745.62751844 264.41214166 762 307 762 c 2
 424 762 l 2
 469.420452248 762 508.48217091 742.739570722 533.661283486 710.608073906 c 0
 553.695512785 685.042050761 564.406800409 652.333168493 564.406800409 616.652468639 c 0
 564.406800409 602.516991297 563.034405794 587.084351742 559.158701647 572.550461189 c 2
 555.267495241 557.95843717 l 2
 550.862786539 539.30928446 534.882679607 523 513 523 c 2
 484 523 l 2
 473.107654299 523 462.230821128 527.965446128 455.331893683 536.850990172 c 0
 449.930063526 543.808332478 447.558988283 552.076744316 447.558988283 560.121299119 c 0
 447.558988283 568.874915792 449.87230803 576.833996318 451.616106191 584.535771531 c 0
 453.058967817 590.908410378 453.703964871 596.885181481 453.703964871 602.337833232 c 0
 453.703964871 615.885183741 449.782162041 626.532288865 444.008912884 633.930958919 c 0
 436.95574445 642.969901231 426.142937645 649 410 649 c 2
 293 649 l 2
 278.217419157 649 261.284225957 642.984025332 246.244604467 631.775250826 c 0
 227.440778607 617.761078723 212.557643262 596.316472293 207.355091732 573.33853637 c 2
 191.361009893 504.364119947 l 2
 189.972643653 498.347866237 189.353929699 492.687565471 189.353929699 487.496155709 c 0
 189.353929699 474.295517301 193.298537885 463.699315732 199.190524784 456.213415341 c 0
 206.424191 447.022881537 217.416961016 441 233 441 c 2
 374 441 l 2
 419.322353485 441 458.163966025 421.793133636 483.114897298 389.720839579 c 0
 502.957151716 364.215313894 513.467582563 331.638045392 513.467582563 296.13797877 c 0
 513.467582563 281.905723762 511.797173002 267.311624255 508.377059738 252.43413156 c 2
 485.365686546 151.384424343 l 2
 472.786273529 96.6639777189 439.045145192 48.8653014395 395.97935876 16.7707633556 c 0
 361.520598594 -8.9094362202 320.48530776 -25 278 -25 c 2
 137 -25 l 2
EndSplineSet
EndChar

StartChar: T
Encoding: 84 84 55
Width: 516
Flags: HMW
LayerCount: 2
UndoRedoHistory
Layer: 1
Undoes
UndoOperation
Index: 0
Type: 1
WasModified: 0
WasOrder2: 0
Layer: 2
Width: 516
VWidth: 1000
LBearingChange: 0
UnicodeEnc: 0
InstructionsLength: 0
SplineSet
156 16 m 2
 308 674 l 1
 121 674 l 2
 105 674 95 688 99 705 c 2
 103 721 l 2
 105 730 113 737 121 737 c 2
 581 737 l 2
 589 737 594 730 592 721 c 2
 588 705 l 2
 584 688 568 674 552 674 c 2
 366 674 l 1
 214 16 l 2
 212 7 203 0 196 0 c 2
 166 0 l 2
 159 0 154 7 156 16 c 2
EndSplineSet
EndUndoOperation
UndoOperation
Index: 1
Type: 3
WasModified: 0
WasOrder2: 0
Layer: 2
EndUndoOperation
EndUndoes
Redoes
EndRedoes
EndUndoRedoHistory
Fore
SplineSet
196 -25 m 2
 166 -25 l 2
 143.822146129 -25 130.555606245 -5.45793027454 130.555606245 12.0770108086 c 0
 130.555606245 15.2619689049 130.889839357 18.3928486016 131.593575437 21.4392850541 c 2
 276.562008069 649 l 1
 121 649 l 2
 106.336142612 649 92.4871835948 655.467356254 83.5757455543 666.711837777 c 0
 76.5458357693 675.582200823 73.1179765663 686.485260918 73.1179765663 697.626778735 c 0
 73.1179765663 708.400699422 76.4207108869 717.779667673 78.6801419561 726.81739195 c 0
 83.0093134003 745.559822644 99.0296843199 762 121 762 c 2
 581 762 l 2
 591.892345701 762 602.769178872 757.034553872 609.668106317 748.149009828 c 0
 615.069936474 741.191667522 617.441011717 732.923255684 617.441011717 724.878700881 c 0
 617.441011717 721.48093716 617.032202894 718.031987452 616.255605484 714.925597809 c 2
 612.292335067 699.072516143 l 2
 608.567446433 683.4516646 599.283647739 670.380795237 587.305319412 661.353649252 c 0
 577.68134795 654.100801194 565.686768315 649 552 649 c 2
 385.887839955 649 l 1
 238.378592569 10.4402317071 l 2
 235.684383291 -1.53077664906 228.628656121 -10.379245661 220.678997937 -16.3239635975 c 0
 214.310842013 -21.0860413959 206.421797861 -25 196 -25 c 2
EndSplineSet
EndChar

StartChar: U
Encoding: 85 85 56
Width: 569
Flags: HMW
LayerCount: 2
UndoRedoHistory
Layer: 1
Undoes
UndoOperation
Index: 0
Type: 1
WasModified: 0
WasOrder2: 0
Layer: 2
Width: 569
VWidth: 1000
LBearingChange: 0
UnicodeEnc: 0
InstructionsLength: 0
SplineSet
146 0 m 2
 65 0 16 70 36 157 c 2
 166 721 l 2
 168 730 177 737 185 737 c 2
 199 737 l 2
 216 737 225 723 221 705 c 2
 95 157 l 2
 83 105 113 63 161 63 c 2
 302 63 l 2
 350 63 399 105 411 157 c 2
 538 705 l 2
 542 723 558 737 575 737 c 2
 589 737 l 2
 597 737 602 730 600 721 c 2
 470 157 l 2
 450 70 368 0 287 0 c 2
 146 0 l 2
EndSplineSet
EndUndoOperation
UndoOperation
Index: 1
Type: 3
WasModified: 0
WasOrder2: 0
Layer: 2
EndUndoOperation
EndUndoes
Redoes
EndRedoes
EndUndoRedoHistory
Fore
SplineSet
146 -25 m 2
 100.796247269 -25 61.9634066047 -6.12126278318 36.9537956489 25.7337560549 c 0
 17.0640277242 51.0675740437 6.53241743718 83.5025765154 6.53241743718 118.923572521 c 0
 6.53241743718 133.123515179 8.21885058961 147.758293525 11.6375456983 162.629617248 c 2
 141.594418865 726.43909022 l 2
 144.272390852 738.489964161 151.497145261 747.604112418 159.909110721 753.628898491 c 0
 166.665526368 758.467952941 174.947632592 762 185 762 c 2
 199 762 l 2
 213.539717104 762 227.814657563 755.832988605 236.87233787 744.117881846 c 0
 243.943532991 734.972073763 246.94214294 724.016320095 246.94214294 713.227052148 c 0
 246.94214294 708.615458683 246.365366691 703.883018317 245.365465002 699.383460717 c 2
 119.361009893 151.364119947 l 2
 117.972643653 145.347866237 117.353929699 139.687565471 117.353929699 134.496155709 c 0
 117.353929699 121.295517301 121.298537885 110.699315732 127.190524784 103.213415341 c 0
 134.424191 94.0228815373 145.416961016 88 161 88 c 2
 302 88 l 2
 316.770152807 88 333.46204549 93.9886881438 348.285190786 105.097202757 c 0
 366.818071557 118.985805531 381.446402945 140.134621014 386.644205044 162.65843011 c 2
 513.621791852 710.561718069 l 2
 519.926362061 738.679751444 544.465173551 762 575 762 c 2
 589 762 l 2
 599.892345701 762 610.769178872 757.034553872 617.668106317 748.149009828 c 0
 623.069936474 741.191667522 625.441011717 732.923255684 625.441011717 724.878700881 c 0
 625.441011717 721.683759254 625.03266728 718.386341155 624.362454302 715.370382752 c 2
 494.365686546 151.384424343 l 2
 481.786273529 96.6639777189 448.045145192 48.8653014395 404.97935876 16.7707633556 c 0
 370.520598594 -8.9094362202 329.48530776 -25 287 -25 c 2
 146 -25 l 2
EndSplineSet
EndChar

StartChar: V
Encoding: 86 86 57
Width: 572
Flags: HMW
LayerCount: 2
UndoRedoHistory
Layer: 1
Undoes
UndoOperation
Index: 0
Type: 1
WasModified: 0
WasOrder2: 0
Layer: 2
Width: 572
VWidth: 1000
LBearingChange: 0
UnicodeEnc: 0
InstructionsLength: 0
SplineSet
198 0 m 2xb0
 185 0 176 9 175 22 c 2
 144 717 l 2
 144 727 152 737 162 737 c 2
 182 737 l 2
 195 737 204 728 204 714 c 2
 234 68 l 1x70
 562 714 l 2
 569 728 582 737 595 737 c 2
 614 737 l 2
 624 737 629 727 624 717 c 2
 272 22 l 2
 265 9 252 0 239 0 c 2
 198 0 l 2xb0
EndSplineSet
EndUndoOperation
UndoOperation
Index: 1
Type: 3
WasModified: 0
WasOrder2: 0
Layer: 2
EndUndoOperation
EndUndoes
Redoes
EndRedoes
EndUndoRedoHistory
Fore
SplineSet
119 717 m 2
 119 739.589072994 136.397497955 762 162 762 c 2
 182 762 l 2
 195.742776333 762 209.553832895 756.305764392 218.636667978 744.952220539 c 0
 225.632809565 736.207043556 228.866440646 725.471834414 228.995941999 714.677081715 c 2
 254.580389953 163.758635767 l 1
 539.624741671 725.156051125 l 2
 550.018654365 745.943876512 570.369738313 762 595 762 c 2
 614 762 l 2
 625.071396011 762 636.049365431 757.023774129 643.029768937 748.165209582 c 0
 648.492006458 741.233291734 650.961524227 732.967898913 650.961524227 724.846096908 c 0
 650.961524227 718.123588318 649.249105929 711.592387776 646.317383821 705.72894356 c 0
 528.885458332 473.879028863 411.46892932 242.013717689 294.0272621 10.1735447222 c 0
 283.494653643 -9.38701384098 263.476736388 -25 239 -25 c 2
 198 -25 l 2
 184.197762886 -25 170.858889486 -19.3194039698 161.816187111 -8.87378655496 c 0
 154.558275221 -0.48985798037 150.868864993 9.73076328206 150.043262553 20.4635950009 c 2
 119 716.43351353 l 1
 119 717 l 2
EndSplineSet
EndChar

StartChar: W
Encoding: 87 87 58
Width: 837
Flags: HMW
LayerCount: 2
UndoRedoHistory
Layer: 1
Undoes
UndoOperation
Index: 0
Type: 1
WasModified: 0
WasOrder2: 0
Layer: 2
Width: 837
VWidth: 1000
LBearingChange: 0
UnicodeEnc: 0
InstructionsLength: 0
SplineSet
832 715 m 2
 838 728 850 737 863 737 c 2
 885 737 l 2
 893 737 898 728 894 720 c 2
 581 22 l 2
 575 9 562 0 550 0 c 2
 527 0 l 2
 515 0 506 8 506 20 c 2
 485 581 l 1
 204 20 l 2
 198 8 186 0 174 0 c 2
 151 0 l 2
 139 0 130 9 130 22 c 2
 140 720 l 2
 140 728 149 737 157 737 c 2
 179 737 l 2
 192 737 200 728 200 715 c 2
 192 117 l 1
 471 674 l 2
 477 686 488 695 500 695 c 2
 522 695 l 2
 534 695 542 686 542 674 c 2
 563 117 l 1
 832 715 l 2
EndSplineSet
EndUndoOperation
UndoOperation
Index: 1
Type: 3
WasModified: 0
WasOrder2: 0
Layer: 2
EndUndoOperation
EndUndoes
Redoes
EndRedoes
EndUndoRedoHistory
Fore
SplineSet
863 762 m 2
 885 762 l 2
 906.825951012 762 920.407809045 743.358041261 920.407809045 725.834722207 c 0
 920.407809045 720.22248707 919.151714468 714.627070374 916.663633476 709.433098142 c 2
 603.713537457 11.5443856155 l 2
 594.142309343 -9.19327529827 573.921292223 -25 550 -25 c 2
 527 -25 l 2
 516.685414247 -25 506.458001534 -21.9353570066 498.000230026 -15.3741766851 c 0
 487.388385655 -7.14195802182 481.17213247 5.78968475975 481.003521259 19.4302237661 c 2
 463.6663048 482.58157776 l 1
 226.375258329 8.843948875 l 2
 216.599866313 -10.7068351563 196.986413292 -25 174 -25 c 2
 151 -25 l 2
 137.233860094 -25 124.021235279 -18.976841097 115.331439956 -8.19330885818 c 0
 108.448120344 0.348491747054 105 11.0191532958 105 22 c 2
 104.997389435 22.1824501151 l 1
 115.000584043 720.223178908 l 2
 115.076459416 734.709200813 122.533042092 744.710255495 130.206753957 751.397347263 c 0
 136.526627331 756.904665489 145.153775376 762 157 762 c 2
 179 762 l 2
 192.804326032 762 206.58276355 756.120130455 215.334055731 744.766654804 c 0
 222.157948214 735.913688229 225.142988285 725.344142913 225.004556131 714.999939027 c 2
 218.455696277 225.642950821 l 1
 448.624741671 685.156051125 l 2
 457.407887836 702.722343454 475.099195156 720 500 720 c 2
 522 720 l 2
 535.849548831 720 549.027416563 713.759265444 557.374176685 702.999769974 c 0
 563.816871148 694.694734143 566.888173288 684.683394557 566.99699919 674.558706344 c 2
 583.963201595 224.550385423 l 1
 809.286736604 725.45549299 l 2
 818.533428571 745.489992252 838.125081409 762 863 762 c 2
EndSplineSet
EndChar

StartChar: X
Encoding: 88 88 59
Width: 557
Flags: HMW
LayerCount: 2
UndoRedoHistory
Layer: 1
Undoes
UndoOperation
Index: 0
Type: 1
WasModified: 0
WasOrder2: 0
Layer: 2
Width: 557
VWidth: 1000
LBearingChange: 0
UnicodeEnc: 0
InstructionsLength: 0
SplineSet
469 22 m 2
 473 13 464 0 454 0 c 2
 422 0 l 2
 413 0 406 5 403 13 c 2
 287 311 l 1
 34 13 l 2
 27 5 18 0 9 0 c 2
 -22 0 l 2
 -32 0 -37 13 -29 22 c 2
 265 368 l 1
 131 715 l 2
 127 724 138 737 148 737 c 2
 179 737 l 2
 188 737 195 732 199 724 c 2
 314 425 l 1
 567 724 l 2
 573 732 583 737 592 737 c 2
 624 737 l 2
 634 737 638 724 629 715 c 2
 336 368 l 1
 469 22 l 2
EndSplineSet
EndUndoOperation
UndoOperation
Index: 1
Type: 3
WasModified: 0
WasOrder2: 0
Layer: 2
EndUndoOperation
EndUndoes
Redoes
EndRedoes
EndUndoRedoHistory
Fore
SplineSet
624 762 m 2
 643.181829661 762 659.013746732 746.083060855 659.013746732 726.241944008 c 0
 659.013746732 715.948089908 654.883027407 705.991732728 647.564114904 698.241513775 c 2
 364.642025994 363.176787319 l 1
 492.183181769 31.3779910913 l 2
 494.160424421 26.6361356855 494.972222222 21.7931029123 494.972222222 17.2453703704 c 0
 494.972222222 4.24881434872 489.217130065 -6.05176728674 481.383396416 -13.5608597215 c 0
 475.069021435 -19.6135579023 465.90075507 -25 454 -25 c 2
 422 -25 l 2
 403.119402982 -25 386.217543068 -13.2367031579 379.648519758 4.05900628166 c 2
 278.910769055 262.850814122 l 1
 52.8213529678 -3.45213447097 l 2
 42.4321052698 -15.3255604116 27.4356285536 -25 9 -25 c 2
 -22 -25 l 2
 -44.8277487628 -25 -57.9665572008 -5.19896396732 -57.9665572008 11.9801645828 c 0
 -57.9665572008 21.3382210161 -54.5394937132 30.7647275845 -47.9167195385 38.3396619375 c 2
 236.32228684 372.85223407 l 1
 107.819988165 705.615649297 l 2
 105.949542889 710.113515526 105.157336062 714.755698056 105.157336062 719.099709329 c 0
 105.157336062 733.752069645 112.593772927 744.084893552 120.541504718 751.074003685 c 0
 127.040462888 756.789085119 135.962850949 762 148 762 c 2
 179 762 l 2
 198.981446857 762 215.729418775 750.157533171 221.912423674 734.081720434 c 2
 322.185865925 473.370770583 l 1
 547.494796019 739.644960694 l 2
 558.289447553 753.631526287 574.514474912 762 592 762 c 2
 624 762 l 2
EndSplineSet
EndChar

StartChar: Y
Encoding: 89 89 60
Width: 507
Flags: HMW
LayerCount: 2
UndoRedoHistory
Layer: 1
Undoes
UndoOperation
Index: 0
Type: 1
WasModified: 0
WasOrder2: 0
Layer: 2
Width: 507
VWidth: 1000
LBearingChange: 0
UnicodeEnc: 0
InstructionsLength: 0
SplineSet
598 716 m 2
 277 271 l 1
 218 16 l 2
 216 7 207 0 199 0 c 2
 170 0 l 2
 163 0 157 7 159 16 c 2
 218 271 l 1
 103 716 l 2
 101 726 109 737 119 737 c 2
 148 737 l 2
 157 737 165 731 168 722 c 2
 265 346 l 1
 536 722 l 2
 543 731 554 737 563 737 c 2
 592 737 l 2
 601 737 605 726 598 716 c 2
EndSplineSet
EndUndoOperation
UndoOperation
Index: 1
Type: 3
WasModified: 0
WasOrder2: 0
Layer: 2
EndUndoOperation
EndUndoes
Redoes
EndRedoes
EndUndoRedoHistory
Fore
SplineSet
77.6914776015 719.149715369 m 0
 77.6914776015 740.949656998 94.5505830382 762 119 762 c 2
 148 762 l 2
 168.973343202 762 187.033209868 748.320703896 191.995228662 729.086486715 c 2
 275.894644832 403.868131252 l 1
 356.018866412 515.017978793 436.111483981 626.199430346 516.255676037 737.329307411 c 0
 522.633524594 745.529398413 530.547844649 751.814568034 539.289117051 756.134579106 c 0
 546.273677548 759.586408232 554.038110069 762 563 762 c 2
 592 762 l 2
 602.942770967 762 613.498453245 756.542690499 619.738189572 747.950100188 c 0
 624.588562174 741.270769132 626.564853276 733.709451466 626.564853276 726.407445507 c 0
 626.564853276 717.446676584 623.713309344 708.917421591 618.496765986 701.68576491 c 2
 300.229655571 260.474350162 l 1
 242.37733976 10.4346801312 l 2
 239.677100079 -1.55362617807 232.473458682 -10.6251663513 224.090889279 -16.6288984913 c 0
 217.334473632 -21.467952941 209.052367408 -25 199 -25 c 2
 170 -25 l 2
 148.804775861 -25 133.61006569 -7.03279797778 133.61006569 12.5343238868 c 0
 133.61006569 15.5491044484 133.921626827 18.5354296978 134.593503183 21.4393020833 c 2
 192.258852222 270.670895384 l 1
 154.344487462 417.483348165 116.347492745 564.213170989 78.485310147 711.077805931 c 0
 77.943994528 713.784384026 77.6914776015 716.485800833 77.6914776015 719.149715369 c 0
EndSplineSet
EndChar

